<ttFont>
          <CharString index="0">
            rmoveto
            -40 -133 -439 -30 -134 vhcurveto
            -36 145 -59 181 -67 296 rrcurveto
            39 -9 -8 18 -28 hhcurveto
            -31 -8 -29 -28 -8 hvcurveto
            -30 -103 -128 -472 0 vvcurveto
            -68 238 -120 357 41 33 101 -26 42 vvcurveto
            13 -7 8 -24 vhcurveto
            -237 hlineto
            -23 -14 -5 -19 -17 19 -5 19 44 37 -6 -26 6 hvcurveto
            93 -273 63 -225 73 -232 rrcurveto
            -18 6 17 -7 18 hhcurveto
            18 14 18 10 3 hvcurveto
            52 186 114 393 0 vvcurveto
            3 -24 93 -328 64 -258 rrcurveto
            -31 8 22 -5 18 hhcurveto
            18 17 8 26 7 hvcurveto
            92 336 34 116 59 235 6 24 14 11 29 3 10 1 53 4 28 1 rrcurveto
            13 17 5 16 24 -21 0 -12 hvcurveto
            -255 hlineto
            -26 -8 -9 -16 -19 21 -5 13 19 35 0 -29 hvcurveto
            endchar
          </CharString>
          <CharString index="1">
            rmoveto
            -2 -3 0 -3 -3 vvcurveto
            -15 16 -13 12 19 16 10 14 7 vhcurveto
            405 763 rlineto
            5 9 9 20 10 vvcurveto
            8 -1 16 -24 -32 -12 -16 -41 -20 vhcurveto
            -84 -172 29 51 -125 -230 -129 -237 92 194 -181 -362 rrcurveto
            return
          </CharString>
          <CharString index="2">
            -17 17 -8 23 16 37 0 -39 vhcurveto
            -85 6 -79 -141 -190 -2 -18 -133 vvcurveto
            -28 -22 -8 -39 -26 -13 -6 -21 -18 23 -3 23 vhcurveto
            81 91 2 81 81 75 -2 81 hhcurveto
            27 12 0 33 3 hvcurveto
            7 81 9 145 23 vvcurveto
            20 -12 13 -18 vhcurveto
            return
          </CharString>
          <CharString index="3">
            rmoveto
            -78 323 7 -19 -5 14 rrcurveto
            16 -12 -11 4 -15 hhcurveto
            -17 -14 -5 -15 -11 hvcurveto
            -9 -23 -31 -106 -58 -173 rrcurveto
            -90 250 -12 38 9 vvcurveto
            6 5 4 9 vhcurveto
            38 hlineto
            24 14 6 17 22 -18 2 -39 hvcurveto
            -124 hlineto
            -42 -23 -3 -22 -22 28 0 37 12 3 -2 -8 3 hvcurveto
            133 -376 rlineto
            -17 13 8 -7 18 hhcurveto
            19 11 4 17 6 hvcurveto
            103 316 75 -317 rlineto
            -37 9 11 -8 22 hhcurveto
            11 19 8 24 10 hvcurveto
            105 255 27 83 11 8 rrcurveto
            6 8 5 3 30 hhcurveto
            26 30 0 24 18 -14 5 -105 -112 -11 -12 -17 -10 6 -8 17 hvcurveto
            10 hlineto
            return
          </CharString>
          <CharString index="4">
            38 48 -24 51 hhcurveto
            55 34 22 23 13 hvcurveto
            4 7 1 6 6 vvcurveto
            16 -11 12 -7 -6 -6 -3 -10 -18 vhcurveto
            -11 -22 -20 -6 -18 hhcurveto
            return
          </CharString>
          <CharString index="5">
            388 816 -107 callgsubr
            return
          </CharString>
          <CharString index="6">
            -86 hlineto
            113 -3 170 0 vhcurveto
            40 91 80 152 58 110 12 23 8 12 29 3 10 1 50 4 28 1 rrcurveto
            13 17 5 16 24 -21 0 -12 hvcurveto
            -242 hlineto
            -30 -9 -9 -16 -19 18 -5 21 17 24 0 -16 -34 -117 -195 -20 -59 hvcurveto
            -28 63 -120 234 23 vvcurveto
            return
          </CharString>
          <CharString index="7">
            -99 callsubr
            hintmask 1010100010110000
            -68 callsubr
            hintmask 1001100010110000
            -46 callgsubr
            hintmask 1010010010110000
            -82 callgsubr
            hintmask 1010100010110000
            -96 callgsubr
            hintmask 1010001010101000
            -105 callsubr
            return
          </CharString>
          <CharString index="8">
            rmoveto
            -17 -18 -9 -28 -1 hvcurveto
            -2 -47 -8 -97 -3 -31 rrcurveto
            -34 -3 -20 -3 -20 hhcurveto
            -299 320 hlineto
            1 38 23 1 38 31 19 -1 14 hhcurveto
            39 9 -51 -30 hvcurveto
            return
          </CharString>
          <CharString index="9">
            -35 -13 -13 -12 vvcurveto
            -17 15 -2 6 21 44 44 60 53 -30 19 -27 vhcurveto
            return
          </CharString>
          <CharString index="10">
            rmoveto
            19 -11 11 -18 -24 -3 -19 -27 -5 vhcurveto
            -87 -16 -76 -68 -117 hhcurveto
            -153 -75 161 195 193 96 180 138 130 49 -119 -131 -49 12 -10 24 29 5 22 12 hvcurveto
            42 -2 48 42 48 4 61 47 vvcurveto
            9 -3 24 -33 -24 -9 -19 -16 -1 0 -2 5 -83 vhcurveto
            return
          </CharString>
          <CharString index="11">
            rmoveto
            -74 -1 -67 -66 -80 hhcurveto
            -106 0 118 85 hvcurveto
            59 4 90 35 vvcurveto
            42 -11 3 -53 -83 -53 -9 -21 -18 21 -4 20 vhcurveto
            53 hlineto
            return
          </CharString>
          <CharString index="12">
            -85 callgsubr
            hintmask 0000100010000000
            -103 callsubr
            hintmask 0000010100000000
            -41 -56 28 -40 hhcurveto
            hintmask 0000100010000000
            -70 callsubr
            return
          </CharString>
          <CharString index="13">
            rmoveto
            30 -41 -47 16 -52 hhcurveto
            -100 -67 -59 -77 -72 60 -46 93 62 52 21 38 42 hvcurveto
            -43 12 31 -16 36 hhcurveto
            39 38 19 57 hvcurveto
            return
          </CharString>
          <CharString index="14">
            -91 704 165 hlineto
            35 2 -10 -39 hvcurveto
            -96 vlineto
            -42 4 -13 30 18 15 4 40 vhcurveto
            21 -1 51 22 21 1 42 22 vvcurveto
            39 -6 4 -32 vhcurveto
            -95 -75 -2 -95 -95 -75 2 -95 hhcurveto
            -31 -7 -4 -39 hvcurveto
            -22 1 -42 -21 -22 -1 -51 -21 vvcurveto
            -40 16 -4 17 25 9 13 42 vhcurveto
            96 vlineto
            38 2 11 35 vhcurveto
            return
          </CharString>
          <CharString index="15">
            -103 1 -51 10 27 vvcurveto
            24 21 13 29 11 vhcurveto
            -5 17 15 -1 18 hhcurveto
            125 72 71 93 52 -23 47 -46 29 hvcurveto
            26 26 35 11 29 3 rrcurveto
            14 2 10 12 15 vvcurveto
            23 -21 9 -17 -37 -51 -37 -44 -31 vhcurveto
            7 -22 -25 4 -29 hhcurveto
            59 -461 rmoveto
            21 160 -1 -97 -50 -67 -40 -123 hvcurveto
            return
          </CharString>
          <CharString index="16">
            rmoveto
            -154 -168 -31 -120 vhcurveto
            -3 -37 2 -2 hhcurveto
            345 vlineto
            0 36 7 36 76 182 -24 -145 vhcurveto
            -319 -251 rmoveto
            -128 99 155 -253 36 hhcurveto
            178 24 7 19 21 -15 3 -31 hvcurveto
            -123 hlineto
            -96 108 -141 224 0 vvcurveto
            159 13 149 72 171 vvcurveto
            168 -175 59 -122 vhcurveto
            -120 -22 -3 -106 hhcurveto
            -13 -16 -5 -14 hvcurveto
            return
          </CharString>
          <CharString index="17">
            197 401 rmoveto
            21 -2 14 -16 -20 -50 -1 -4 -34 vhcurveto
            -46 -5 -27 2 -31 vvcurveto
            -8 18 -8 10 vhcurveto
            10 57 5 11 hhcurveto
            return
          </CharString>
          <CharString index="18">
            400 -106 callgsubr
            return
          </CharString>
          <CharString index="19">
            972 rmoveto
            -14 -60 -24 -27 -46 hvcurveto
            27 -46 -59 24 -14 hhcurveto
            -7 -4 -5 -8 -42 110 -70 20 24 107 72 62 callgsubr
            return
          </CharString>
          <CharString index="20">
            -96 callsubr
            hintmask 1010001001000000
            -71 callsubr
            hintmask 0110010001000000
            -86 callgsubr
            hintmask 1010010010000000
            -52 callgsubr
            hintmask 1010010100000000
            -57 callgsubr
            endchar
          </CharString>
          <CharString index="21">
            -85 callgsubr
            hintmask 0010001000000000
            -103 callsubr
            hintmask 0001010000000000
            -41 -56 28 -40 hhcurveto
            hintmask 0010001000000000
            -70 callsubr
            return
          </CharString>
          <CharString index="22">
            -46 24 60 -11 49 hhcurveto
            64 101 19 104 89 -75 21 -99 26 hvcurveto
            -61 16 -50 17 54 vvcurveto
            44 33 30 62 62 31 -30 -30 16 vhcurveto
            7 -13 return
          </CharString>
          <CharString index="23">
            500 233 -104 callgsubr
            return
          </CharString>
          <CharString index="24">
            18 42 0 -23 hvcurveto
            -422 vlineto
            -109 -50 -115 -145 -194 -5 132 143 vhcurveto
            return
          </CharString>
          <CharString index="25">
            11 3 -11 -16 1 hvcurveto
            3 -50 1 -45 -51 vvcurveto
            -39 0 -55 -4 -42 vhcurveto
            -2 -14 -9 -3 -29 -4 rrcurveto
            return
          </CharString>
          <CharString index="26">
            -99 callsubr
            hintmask 1010100001110000
            -68 callsubr
            hintmask 1001100001110000
            -46 callgsubr
            hintmask 1010010001110000
            -82 callgsubr
            hintmask 1010100001110000
            -96 callgsubr
            hintmask 1010001001101000
            -74 callsubr
          </CharString>
          <CharString index="27">
            16 21 4 21 18 -9 7 -42 hvcurveto
            -202 hlineto
            -12 -25 -2 -23 -23 23 -2 14 18 44 -2 -35 hvcurveto
            -76 6 -74 -168 -119 -2 -188 -31 vvcurveto
            -30 -43 0 -29 vhcurveto
            return
          </CharString>
          <CharString index="28">
            -67 112 hlineto
            40 8 43 14 31 vhcurveto
            51 22 46 44 56 hhcurveto
            88 12 -108 -124 -2 0 -43 -3 -53 hvcurveto
            -2 -32 -8 -3 -33 -4 rrcurveto
            return
          </CharString>
          <CharString index="29">
            rmoveto
            -22 -13 -4 -20 -7 2 -17 22 hvcurveto
            438 hlineto
            20 11 7 22 2 hvcurveto
            5 70 11 136 49 vvcurveto
            18 -16 7 -18 -29 -4 -20 -30 -22 -11 -127 -2 -13 vhcurveto
            return
          </CharString>
          <CharString index="30">
            20 -9 7 -19 -17 -9 -11 -17 -41 47 -38 75 52 65 28 51 vhcurveto
            endchar
          </CharString>
          <CharString index="31">
            -236 -89 rmoveto
            43 53 32 68 63 52 -28 -37 -39 -60 -30 -71 -57 -48 19 40 vhcurveto
            return
          </CharString>
          <CharString index="32">
            106 0 48 -48 64 310 67 -45 -21 68 -20 21 -20 332 65 -52 52 hstemhm
            142 71 376 75 hintmask 0001010000000000
            326 444 91 callgsubr
            -21 -13 hvcurveto
            hintmask 0010000000000000
            -12 11 -23 121 callsubr
            27 10 13 -11 19 -10 hvcurveto
            hintmask 1000000111000000
            -261 374 -75 callgsubr
            hintmask 0100001011000000
            -37 callsubr
          </CharString>
          <CharString index="33">
            -105 callsubr
            endchar
          </CharString>
          <CharString index="34">
            rmoveto
            6 265 0 6 0 vvcurveto
            10 -4 2 -4 -7 -67 -3 -1 -7 vhcurveto
            -11 -15 -8 -13 -20 15 0 11 hvcurveto
            6 16 1 4 hhcurveto
            9 0 -11 -3 hvcurveto
            return
          </CharString>
          <CharString index="35">
            -25 -1 -5 -1 -56 vhcurveto
            -2 -75 -3 -10 -37 vvcurveto
            -17 -7 -2 -21 -4 -21 -4 -16 -22 23 0 7 vhcurveto
            102 hlineto
            9 15 2 20 22 -22 0 -6 hvcurveto
            return
          </CharString>
          <CharString index="36">
            31 1 -8 -30 hvcurveto
            -195 vlineto
            -105 40 -102 124 93 49 58 43 19 vhcurveto
            return
          </CharString>
          <CharString index="37">
            -26 -21 -6 -12 -21 hvcurveto
            -20 -12 -6 -9 -3 -7 rrcurveto
            return
          </CharString>
          <CharString index="38">
            rmoveto
            -77 36 89 -24 73 hhcurveto
            101 147 41 120 133 -212 63 -89 40 hvcurveto
            -65 29 -65 35 120 vvcurveto
            107 87 105 108 vhcurveto
            return
          </CharString>
          <CharString index="39">
            -17 6 -12 25 17 14 4 23 vhcurveto
            37 -2 41 38 38 2 39 38 vvcurveto
            return
          </CharString>
          <CharString index="40">
            -15 14 -4 9 vhcurveto
            109 hlineto
            15 14 0 19 20 -21 0 -8 -4 -5 2 8 2 2 16 2 11 hvcurveto
            -133 42 rmoveto
            -5 -1 2 2 2 4 4 1 2 hvcurveto
            90 123 -10 -132 rlineto
            -2 -36 -39 -1 -4 hhcurveto
            endchar
          </CharString>
          <CharString index="41">
            51 704 66 hstemhm
            15 67 98 172 -96 109 -86 86 -84 192 -181 73 189 67 hintmask 0111000101000000
            277 755 -6 callsubr
            hintmask 0111100001000000
            25 callsubr
            hintmask 0111000101000000
            60 callsubr
            hintmask 0111100001000000
            -93 callsubr
            hintmask 1000010000000000
            137 return
          </CharString>
          <CharString index="42">
            rmoveto
            37 0 58 14 18 -3 118 -35 -16 -9 -40 -40 -6 hvcurveto
            23 10 12 19 15 hhcurveto
            7 9 -7 -8 hvcurveto
            -10 -19 -47 -15 -13 26 -8 -23 vvcurveto
            -19 -15 -15 -21 -6 -5 1 2 -5 vhcurveto
            -5 6 8 -3 10 hhcurveto
            -50 49 rmoveto
            -20 10 -15 16 -6 vhcurveto
            -14 12 0 23 14 vvcurveto
            4 2 33 4 34 vhcurveto
            -11 -29 -7 -35 -15 vvcurveto
            return
          </CharString>
          <CharString index="43">
            -21 -8 -11 -32 -42 hhcurveto
            -47 -7 60 43 hvcurveto
            254 vlineto
            45 3 52 0 48 5 rrcurveto
            12 2 15 9 18 vvcurveto
            21 -20 8 -16 vhcurveto
            return
          </CharString>
          <CharString index="44">
            1 53 hhcurveto
            23 6 22 11 15 -11 13 -10 hvcurveto
            return
          </CharString>
          <CharString index="45">
            -60 callsubr
            hintmask 10100101
            -68 -68 -2 -68 hhcurveto
            hintmask 10010101
            -36 callgsubr
            hintmask 10100101
            -32 callgsubr
            hintmask 01100101
            77 77 1 77 hhcurveto
            hintmask 10100101
            20 callgsubr
            return
          </CharString>
          <CharString index="46">
            rmoveto
            -14 -60 -44 -27 -46 hvcurveto
            27 -46 -59 44 -14 hhcurveto
            -7 -4 -5 -8 -42 110 -90 20 24 107 92 36 return
          </CharString>
          <CharString index="47">
            rmoveto
            23 -10 15 -21 -28 -7 -23 -20 -34 -8 -98 -5 -45 vhcurveto
            -34 -4 -26 0 -30 hhcurveto
            -312 hlineto
            -16 -4 2 8 10 314 468 110 185 hvcurveto
            4 7 32 50 7 vvcurveto
            19 -25 0 -27 vhcurveto
            return
          </CharString>
          <CharString index="48">
            56 -20 -58 80 -110 hhcurveto
            -168 -140 -191 -242 -299 150 -120 145 200 78 149 84 hvcurveto
            return
          </CharString>
          <CharString index="49">
            -77 1 -82 -170 vvcurveto
            -166 -1 -88 -4 -74 vhcurveto
            -1 -17 -15 -12 -31 -2 -33 -2 rcurveline
            return
          </CharString>
          <CharString index="50">
            -195 28 callsubr
            hintmask 1110001010000000
            -40 callgsubr
            hintmask 1110100010000000
            -46 callsubr
            hintmask 1110010010000000
            -101 callgsubr
            hintmask 1110100000100000
            -40 callsubr
            hintmask 1110100010000000
            -17 callsubr
            hintmask 1110100001000000
            -14 callgsubr
          </CharString>
          <CharString index="51">
            28 callsubr
            hintmask 1110001001000000
            -40 callgsubr
            hintmask 1110100001000000
            -46 callsubr
            hintmask 1110010001000000
            -101 callgsubr
            hintmask 1110100000010000
            -40 callsubr
            hintmask 1110100001000000
            -17 callsubr
            hintmask 1110100000100000
            -83 callsubr
            return
          </CharString>
          <CharString index="52">
            10 5 -5 -9 -191 -3 -64 -2 -36 hvcurveto
            -1 -19 -7 -11 -32 -4 rrcurveto
            -23 -3 -9 -15 -15 vvcurveto
            -15 11 -13 21 vhcurveto
            37 17 3 39 38 60 -3 40 hhcurveto
            19 11 10 17 23 -25 11 -69 hvcurveto
            return
          </CharString>
          <CharString index="53">
            rmoveto
            34 -20 1 -37 -52 -88 -3 -26 -16 18 -5 28 vhcurveto
            62 hlineto
            17 2 -7 -21 hvcurveto
            return
          </CharString>
          <CharString index="54">
            -15 17 -6 10 20 16 11 11 vhcurveto
            36 1 94 38 vvcurveto
            20 -11 13 -22 -22 -9 -13 -15 -18 1 -22 1 -15 vhcurveto
            return
          </CharString>
          <CharString index="55">
            -19 11 -10 21 33 27 -4 -31 vhcurveto
            -109 6 -105 -109 -105 -2 -106 -104 vvcurveto
            -43 -28 -6 -19 -44 -8 -8 -13 -15 4 -12 39 vhcurveto
            187 hlineto
            59 10 10 15 23 -22 3 -25 hvcurveto
            return
          </CharString>
          <CharString index="56">
            16 -9 16 -41 vhcurveto
            -46 hlineto
            89 -2 179 301 vvcurveto
            2 0 91 1 66 vhcurveto
            return
          </CharString>
          <CharString index="57">
            97 -37 -74 39 -72 hhcurveto
            -185 -128 -201 -233 -310 157 -108 142 79 85 35 82 44 hvcurveto
            -10 -2 -32 -25 vvcurveto
            return
          </CharString>
          <CharString index="58">
            -16 -21 -6 -24 -25 23 -2 21 hvcurveto
            14 165 84 callsubr
            -80 126 hlineto
            31 9 33 16 30 vhcurveto
            49 26 45 39 55 hhcurveto
            88 2 -81 -124 -2 0 -72 -3 -53 hvcurveto
            -2 -32 -8 -3 -33 -4 rrcurveto
            return
          </CharString>
          <CharString index="59">
            -24 -18 -1 -27 -22 17 -8 22 hvcurveto
            37 hlineto
            11 2 -2 -4 hvcurveto
            return
          </CharString>
          <CharString index="60">
            rmoveto
            -111 -71 -71 -95 -51 20 -50 43 -28 hvcurveto
            -41 -18 -21 -19 -39 vvcurveto
            -52 36 -21 52 -9 vhcurveto
            return
          </CharString>
          <CharString index="61">
            -12 -25 -4 -21 -24 23 -1 14 17 43 0 -23 hvcurveto
            return
          </CharString>
          <CharString index="62">
            rmoveto
            -3 -6 -2 -1 0 vvcurveto
            -69 3 rlineto
            39 39 74 89 77 vvcurveto
            45 -29 37 -65 -74 -33 -61 -25 -18 5 -16 30 11 15 7 21 vhcurveto
            11 -11 0 7 vvcurveto
            return
          </CharString>
          <CharString index="63">
            -108 3 -128 -114 vvcurveto
            -100 -6 -104 -3 -90 vhcurveto
            -46 -2 -31 0 -15 hhcurveto
            return
          </CharString>
          <CharString index="64">
            -18 2 -26 32 26 7 25 25 vhcurveto
            134 vlineto
            28 -10 8 -18 vhcurveto
            -134 -11 -2 -112 -50 -102 2 -89 hhcurveto
            -20 -31 -2 -27 -21 24 -2 16 14 20 0 -6 15 hvcurveto
            -80 -152 -168 -364 -94 -158 -14 -24 -14 -11 -29 -3 rrcurveto
            -1 -10 -58 -5 -29 hhcurveto
            -18 -14 -7 -16 -16 12 -6 18 hvcurveto
            42 46 2 42 42 39 -2 42 hhcurveto
            26 16 6 19 22 -23 2 -13 hvcurveto
            -16 1 -15 -3 18 vvcurveto
            16 48 83 34 59 vhcurveto
            227 hlineto
            return
          </CharString>
          <CharString index="65">
            rmoveto
            -29 106 -99 29 11 14 5 13 9 -73 139 -38 -30 -19 -15 -23 vhcurveto
            return
          </CharString>
          <CharString index="66">
            16 21 7 18 17 -9 8 -42 hvcurveto
            -202 hlineto
            return
          </CharString>
          <CharString index="67">
            16 21 2 23 18 -9 7 -42 hvcurveto
            -196 hlineto
            return
          </CharString>
          <CharString index="68">
            -12 -1 -3 -7 -5 hhcurveto
            -189 hlineto
            -12 -5 2 5 hvcurveto
            27 277 287 39 vvcurveto
            9 -9 8 -22 vhcurveto
            -42 -59 -2 -43 -64 -17 2 -64 hhcurveto
            return
          </CharString>
          <CharString index="69">
            rmoveto
            26 -17 2 -13 -15 -11 -12 -15 vhcurveto
            return
          </CharString>
          <CharString index="70">
            210 -62 rmoveto
            218 96 -143 -174 -213 -94 -162 -220 -24 -38 0 10 hvcurveto
            678 vlineto
            1 20 22 3 20 hhcurveto
            endchar
          </CharString>
          <CharString index="71">
            -16 -21 -6 -24 -25 22 -2 21 hvcurveto
            14 157 1 10 hhcurveto
            return
          </CharString>
          <CharString index="72">
            -45 callgsubr
            hintmask 11000100
            -67 callgsubr
            return
          </CharString>
          <CharString index="73">
            -48 callsubr
            -67 2 -63 -67 vvcurveto
            -48 -2 -135 104 callsubr
            -11 -6 -29 callsubr
            return
          </CharString>
          <CharString index="74">
            rmoveto
            hintmask 00100000
            6 callgsubr
            hintmask 00011000
            -34 -68 -27 callsubr
            hintmask 00100000
            12 callsubr
            hintmask 00010100
            47 141 -63 callsubr
            endchar
          </CharString>
          <CharString index="75">
            6 20 23 33 26 14 -18 -18 -80 -85 -113 -57 -43 vhcurveto
            -4 -3 -4 -3 -4 vvcurveto
            -4 2 -7 14 20 5 6 3 2 vhcurveto
            return
          </CharString>
          <CharString index="76">
            -44 -1 -33 -62 vvcurveto
            -28 -19 -8 -62 -26 -13 -4 -20 -19 26 -5 20 vhcurveto
            1 81 81 1 81 91 85 -2 91 hhcurveto
            28 11 6 27 3 hvcurveto
            9 81 7 140 23 vvcurveto
            16 -2 27 -26 vhcurveto
            -581 -33 rmoveto
            -32 -29 2 -30 hhcurveto
            47 118 123 212 32 79 rrcurveto
            -4 vlineto
            -91 6 -28 -150 vvcurveto
            -61 0 -42 -1 -34 vhcurveto
            -1 -38 -40 0 -38 hhcurveto
            endchar
          </CharString>
          <CharString index="77">
            27 callgsubr
            439 hlineto
            8 5 3 13 vhcurveto
            76 hlineto
            23 24 3 27 25 -32 3 -13 hvcurveto
            -88 hlineto
            -5 -3 0 11 64 11 166 142 21 11 -9 -8 9 hvcurveto
            return
          </CharString>
          <CharString index="78">
            -32 -2 rrcurveto
            -14 -1 -28 -4 -23 vvcurveto
            -26 26 0 18 vhcurveto
            return
          </CharString>
          <CharString index="79">
            -6 -15 -6 -20 -12 11 -14 32 hvcurveto
            21 43 2 27 hhcurveto
            return
          </CharString>
          <CharString index="80">
            2 -19 hhcurveto
            -18 -8 -16 -14 hvcurveto
            return
          </CharString>
          <CharString index="81">
            17 -4 16 -17 -19 -7 -14 -8 -1 vhcurveto
            return
          </CharString>
          <CharString index="82">
            59 -37 -21 60 96 callsubr
            return
          </CharString>
          <CharString index="83">
            -391 rmoveto
            -71 42 -70 78 75 47 57 87 77 -35 64 -82 -71 -54 -59 -85 vhcurveto
            56 2 rmoveto
            58 30 28 37 28 32 -21 -61 -42 -18 -49 -47 -53 -9 57 30 vhcurveto
            return
          </CharString>
          <CharString index="84">
            3 26 3 52 27 29 3 282 30 vvcurveto
            25 -2 13 -21 -146 -51 -5 -26 -12 12 -8 26 vhcurveto
            90 hlineto
            return
          </CharString>
          <CharString index="85">
            44 hhcurveto
            93 47 58 43 19 hvcurveto
            hintmask 1011010001000000
            -78 1 4 -25 15 hhcurveto
            44 102 1 30 18 -25 3 -12 hvcurveto
            -16 -10 -1 -4 hhcurveto
            -23 -5 0 21 hvcurveto
            hintmask 1101010010000000
            5 -1 28 73 152 3 47 28 vvcurveto
            48 -15 1 -58 vhcurveto
            hintmask 1101010100000000
            -56 -79 -3 -28 -16 23 -5 21 hvcurveto
            66 hlineto
            27 0 -14 -27 hvcurveto
            endchar
          </CharString>
          <CharString index="86">
            rmoveto
            162 -69 33 -72 -66 -70 -36 -62 -29 vhcurveto
            459 vlineto
            27 -3 -4 5 -35 hhcurveto
            -128 -31 -13 -21 -16 39 -1 26 hvcurveto
            47 hlineto
            13 4 -11 -22 hvcurveto
            return
          </CharString>
          <CharString index="87">
            35 -18 8 -14 -12 -20 -6 -31 -7 1 -22 1 -17 vhcurveto
            return
          </CharString>
          <CharString index="88">
            -9 -20 60 -41 -21 402 52 -12 52 return
          </CharString>
          <CharString index="89">
            -23 -4 -16 -8 -20 hhcurveto
            -211 680 hlineto
            25 65 0 12 vhcurveto
            return
          </CharString>
          <CharString index="90">
            -23 -14 -7 -18 -20 23 -5 14 hvcurveto
            return
          </CharString>
          <CharString index="91">
            rmoveto
            -7 -6 -9 -8 -9 vvcurveto
            -11 14 -6 11 8 7 3 7 10 vhcurveto
            42 30 71 93 103 vvcurveto
            71 -33 34 -60 -58 -57 -30 -67 -48 29 -43 61 36 28 15 32 6 vhcurveto
            -52 -68 -81 -31 -27 vhcurveto
            43 261 rmoveto
            24 25 -10 -40 -26 -15 -28 -36 -32 -17 22 29 38 27 15 24 hvcurveto
            endchar
          </CharString>
          <CharString index="92">
            -32 -5 0 26 hvcurveto
            -215 -6 rmoveto
            -73 -74 53 118 101 56 95 99 81 30 -46 -38 15 hvcurveto
            9 -33 2 -27 -26 vvcurveto
            -64 -42 -133 -103 vhcurveto
            return
          </CharString>
          <CharString index="93">
            -9 13 -24 22 24 10 19 16 1 -3 75 0 vhcurveto
            return
          </CharString>
          <CharString index="94">
            12 callgsubr
            -70 121 callgsubr
            return
          </CharString>
          <CharString index="95">
            172 rmoveto
            -74 -1 -69 -58 -76 hhcurveto
            -78 -30 80 86 hvcurveto
            122 4 69 30 vvcurveto
            42 -6 3 -28 -61 -105 -4 -29 -11 15 -8 12 vhcurveto
            67 hlineto
            31 1 -8 -30 hvcurveto
            hintmask 1101001001000000
            1 -101 2 -89 -77 vvcurveto
            -115 -2 -94 -2 -83 vhcurveto
            -17 12 -17 27 26 8 17 20 64 -3 return
          </CharString>
          <CharString index="96">
            58 24 -2 94 hhcurveto
            8 6 8 11 17 1 36 1 14 hvcurveto
            6 96 rlineto
            return
          </CharString>
          <CharString index="97">
            -99 -114 -141 -131 85 -102 133 101 62 59 50 27 hvcurveto
            5 9 4 10 6 vvcurveto
            return
          </CharString>
          <CharString index="98">
            178 -14 62 669 50 4 50 return
          </CharString>
          <CharString index="99">
            -201 238 -25 callsubr
            hintmask 01010000
            314 300 133 callsubr
            -48 42 callgsubr
            121 -63 callsubr
            endchar
          </CharString>
          <CharString index="100">
            rmoveto
            -2 147 -1 100 21 40 3 332 74 vvcurveto
            37 -26 1 -51 -118 -55 -8 -35 -9 17 -5 13 vhcurveto
            50 24 2 33 hhcurveto
            return
          </CharString>
          <CharString index="101">
            rmoveto
            -107 4 -140 -107 38 callsubr
            return
          </CharString>
          <CharString index="102">
            -27 -12 -7 -15 -21 22 -5 29 hvcurveto
            210 hlineto
            return
          </CharString>
          <CharString index="103">
            -12 -17 -6 -17 -21 23 -4 18 hvcurveto
            226 hlineto
            return
          </CharString>
          <CharString index="104">
            -16 52 -69 33 -53 vhcurveto
            -33 -53 -52 -68 -16 vvcurveto
            -6 5 -11 21 27 105 128 26 29 -105 126 -27 -21 -5 -11 -6 vhcurveto
            return
          </CharString>
          <CharString index="105">
            113 callgsubr
            hintmask 10010000
            101 -22 rmoveto
            -4 -8 -2 -8 -6 vvcurveto
            -17 22 -3 12 17 18 19 10 5 vhcurveto
            244 456 rlineto
            8 15 19 39 14 vvcurveto
            11 -6 17 -28 -24 -17 -40 -7 -3 vhcurveto
            -91 -183 -90 -149 -80 -160 rrcurveto
            return
          </CharString>
          <CharString index="106">
            172 -157 157 -71 184 -184 202 153 160 -143 143 -70 70 -70 195 -195 211 return
          </CharString>
          <CharString index="107">
            34 47 -3 19 hhcurveto
            28 10 16 10 hvcurveto
            return
          </CharString>
          <CharString index="108">
            -37 0 -58 -14 -18 3 -118 35 return
          </CharString>
          <CharString index="109">
            11 2 -7 -19 hvcurveto
            -94 vlineto
            return
          </CharString>
          <CharString index="110">
            rmoveto
            28 -26 13 -25 -33 -33 -28 -54 -52 37 -61 87 82 82 45 144 19 vhcurveto
            return
          </CharString>
          <CharString index="111">
            -53 -8 -12 -10 -17 23 -3 42 68 61 26 52 38 -33 25 -44 -28 -20 -10 -19 -32 hvcurveto
            13 72 -19 4 rlineto
            endchar
          </CharString>
          <CharString index="112">
            16 callsubr
            66 17 callgsubr
            return
          </CharString>
          <CharString index="113">
            9 -183 55 -55 185 353 56 -41 58 return
          </CharString>
          <CharString index="114">
            -5 -3 1 5 88 1 197 157 47 0 -39 -47 hvcurveto
            -34 1 -101 -112 vvcurveto
            -146 0 -204 -5 -89 vhcurveto
            -17 -1 -10 -13 -21 hhcurveto
            -23 hlineto
            -16 -15 -12 -11 -13 16 -9 18 hvcurveto
            40 34 1 27 hhcurveto
            return
          </CharString>
          <CharString index="115">
            386 84 callgsubr
            -174 -100 -3 hvcurveto
            -9 -1 -14 -11 vhcurveto
            -34 hlineto
            return
          </CharString>
          <CharString index="116">
            15 38 3 36 30 56 -2 24 hhcurveto
            34 8 7 16 16 -9 8 -20 hvcurveto
            return
          </CharString>
          <CharString index="117">
            63 -47 47 198 74 143 -20 333 44 -44 61 return
          </CharString>
          <CharString index="118">
            hvcurveto
            47 hlineto
            2 callsubr
            return
          </CharString>
          <CharString index="119">
            -14 11 -17 15 vhcurveto
            return
          </CharString>
          <CharString index="120">
            -133 104 179 -256 36 hhcurveto
            173 29 9 25 17 -32 1 -31 -55 -54 1 11 -10 hvcurveto
            -102 113 -190 254 0 vvcurveto
            106 116 123 126 96 92 21 20 70 -1 48 2 rrcurveto
            return
          </CharString>
          <CharString index="121">
            916 rmoveto
            -102 callgsubr
            207 -12 rmoveto
            hintmask 0000100110000000
            -102 callgsubr
            hintmask 1111001001000000
            return
          </CharString>
          <CharString index="122">
            -83 callgsubr
            endchar
          </CharString>
          <CharString index="123">
            21 callgsubr
            178 return
          </CharString>
          <CharString index="124">
            31 47 -3 38 hhcurveto
            11 12 16 8 26 -24 2 -21 hvcurveto
            -73 128 hlineto
            92 49 97 101 69 14 -56 -28 3 vhcurveto
            5 -49 1 -85 -28 vvcurveto
            -25 -1 -57 -2 -21 vhcurveto
            -22 -1 -7 -4 -2 vhcurveto
            return
          </CharString>
          <CharString index="125">
            10 -3 15 -22 -29 -4 -21 -34 -3 vhcurveto
            -7 -73 rlineto
            return
          </CharString>
          <CharString index="126">
            -47 -86 hhcurveto
            -101 -51 66 103 116 65 81 95 86 24 -65 -38 12 hvcurveto
            -20 6 8 -13 24 hhcurveto
            29 4 21 13 hvcurveto
            36 -30 109 75 vvcurveto
            83 36 9 17 17 25 -10 -51 vhcurveto
            return
          </CharString>
          <CharString index="127">
            hhcurveto
            -210 -13 -180 -104 -3 hvcurveto
            -9 -1 -9 -11 vhcurveto
            -34 hlineto
            return
          </CharString>
          <CharString index="128">
            -24 -13 -6 -17 -22 23 -5 14 hvcurveto
            return
          </CharString>
          <CharString index="129">
            13 12 6 22 20 -20 3 -15 hvcurveto
            return
          </CharString>
          <CharString index="130">
            -1 -5 -254 -461 -20 vvcurveto
            -11 10 -9 18 23 10 15 10 6 vhcurveto
            26 65 289 527 16 vvcurveto
            5 -3 11 -23 -30 -16 -59 -23 -33 vhcurveto
            -11 -16 -21 -2 -19 hhcurveto
            return
          </CharString>
          <CharString index="131">
            -99 -250 61 188 58 80 60 203 60 return
          </CharString>
          <CharString index="132">
            -12 -17 -3 -22 -21 23 -2 18 hvcurveto
            232 hlineto
            return
          </CharString>
          <CharString index="133">
            rmoveto
            1 callsubr
            return
          </CharString>
          <CharString index="134">
            115 -16 64 729 61 return
          </CharString>
          <CharString index="135">
            rmoveto
            25 68 0 12 vhcurveto
            return
          </CharString>
          <CharString index="136">
            35 -9 3 -35 -49 -94 -3 -25 -10 17 -13 33 vhcurveto
            49 hlineto
            return
          </CharString>
          <CharString index="137">
            rmoveto
            -28 -9 -20 -27 -1 hvcurveto
            -2 -47 -8 -92 -3 -31 rrcurveto
            -34 -3 -20 -3 -20 hhcurveto
            -299 320 hlineto
            1 28 28 1 28 38 23 -1 18 hhcurveto
            40 8 -48 -30 hvcurveto
            return
          </CharString>
          <CharString index="138">
            27 2 210 13 vvcurveto
            9 5 2 13 vhcurveto
            22 57 -3 28 hhcurveto
            50 hlineto
            16 9 -7 -14 hvcurveto
            -118 vlineto
            -57 -2 -191 -6 -70 vhcurveto
            -102 -8 -33 -32 -51 hhcurveto
            return
          </CharString>
          <CharString index="139">
            41 42 33 74 76 44 -35 -36 -39 -54 -29 -72 -63 -47 22 43 vhcurveto
            317 190 rmoveto
            46 11 38 65 89 hhcurveto
            88 43 -65 -28 -7 -3 -7 -13 hvcurveto
            endchar
          </CharString>
          <CharString index="140">
            -5 -3 1 5 100 0 185 136 36 21 -26 -38 1 hvcurveto
            1 -54 0 -34 -91 -274 -9 -157 -59 vvcurveto
            -34 8 -14 24 30 5 12 68 4 vhcurveto
            return
          </CharString>
          <CharString index="141">
            -54 152 hlineto
            120 72 40 48 26 20 -9 -25 vhcurveto
            return
          </CharString>
          <CharString index="142">
            37 47 -2 13 hhcurveto
            29 13 15 10 15 -17 7 -21 hvcurveto
            -78 hlineto
            70 -2 326 165 117 1 28 39 vvcurveto
            38 0 74 -109 vhcurveto
            endchar
          </CharString>
          <CharString index="143">
            552 -85 callgsubr
            return
          </CharString>
          <CharString index="144">
            -96 335 hlineto
            1 68 68 1 68 hhcurveto
            58 112 -2 0 hvcurveto
            -347 vlineto
            return
          </CharString>
          <CharString index="145">
            -109 -4 -96 -102 vvcurveto
            -46 -47 0 -21 vhcurveto
            return
          </CharString>
          <CharString index="146">
            11 6 -6 -11 -19 -46 -140 -43 -99 hvcurveto
            return
          </CharString>
          <CharString index="147">
            hlineto
            7 2 4 16 vhcurveto
            12 42 -2 12 hhcurveto
            return
          </CharString>
          <CharString index="148">
            55 callgsubr
            41 118 hstemhm
            -29 217 12 165 -96 138 -114 72 -72 193 -13 234 hintmask 0001001000000000
            return
          </CharString>
          <CharString index="149">
            -109 4 -129 -109 -109 -4 -96 -102 vvcurveto
            -46 -33 0 -20 vhcurveto
            return
          </CharString>
          <CharString index="150">
            1 callgsubr
            180 7 callgsubr
            return
          </CharString>
          <CharString index="151">
            217 12 165 -72 72 -72 193 -13 234 return
          </CharString>
          <CharString index="152">
            rmoveto
            50 -45 48 -67 -46 -43 -23 -47 -32 vhcurveto
            49 vlineto
            return
          </CharString>
          <CharString index="153">
            -22 -8 -13 -31 -50 hhcurveto
            -73 0 65 38 hvcurveto
            266 vlineto
            49 3 82 0 44 4 rrcurveto
            11 1 17 9 20 vvcurveto
            23 -21 5 -19 vhcurveto
            return
          </CharString>
          <CharString index="154">
            428 rmoveto
            30 -7 20 -25 vhcurveto
            -232 hlineto
            -7 -1 2 18 81 8 186 119 65 21 -36 -32 hvcurveto
            -52 -40 8 -35 vvcurveto
            return
          </CharString>
          <CharString index="155">
            rmoveto
            25 69 0 12 16 26 2 23 20 -14 5 -42 vhcurveto
            -192 hlineto
            return
          </CharString>
          <CharString index="156">
            -9 2 10 -26 21 hhcurveto
            30 6 17 19 17 -16 63 -11 57 hvcurveto
            -9 50 -3 39 31 vvcurveto
            77 44 5 10 14 27 -8 -71 return
          </CharString>
          <CharString index="157">
            -10 -38 -31 -78 -72 vhcurveto
            448 vlineto
            47 -6 65 -102 -206 -20 -191 -111 -3 vhcurveto
            -28 -1 -1 -17 -12 hhcurveto
            -44 hlineto
            return
          </CharString>
          <CharString index="158">
            152 callgsubr
            -70 70 return
          </CharString>
          <CharString index="159">
            513 rmoveto
            -94 63 -47 57 68 59 63 91 vhcurveto
            3 -1 6 2 vvcurveto
            -13 34 31 -4 44 hhcurveto
            14 7 0 3 15 hvcurveto
            return
          </CharString>
          <CharString index="160">
            19 -16 55 callsubr
            57 13 callgsubr
            54 71 360 71 -50 70 hintmask 0000110000000000
            432 return
          </CharString>
          <CharString index="161">
            9 -31 60 -15 57 329 55 return
          </CharString>
          <CharString index="162">
            60 -49 -21 803 60 -6 -20 return
          </CharString>
          <CharString index="163">
            15 24 1 31 25 -24 3 -13 hvcurveto
            -78 hlineto
            return
          </CharString>
          <CharString index="164">
            15 17 6 23 21 -17 10 -13 hvcurveto
            -78 hlineto
            return
          </CharString>
          <CharString index="165">
            176 4 -21 387 47 1 47 return
          </CharString>
          <CharString index="166">
            -69 -40 43 52 63 45 45 71 hvcurveto
            return
          </CharString>
          <CharString index="167">
            13 7 12 12 23 -15 4 -15 hvcurveto
            return
          </CharString>
          <CharString index="168">
            47 13 callgsubr
            return
          </CharString>
          <CharString index="169">
            8 0 10 -1 10 vhcurveto
            return
          </CharString>
          <CharString index="170">
            -5 -3 2 9 94 0 191 153 33 22 -19 -8 -9 -7 -4 -8 -8 hvcurveto
            -10 -9 -5 -15 -11 vvcurveto
            return
          </CharString>
          <CharString index="171">
            -7 2 -13 1 14 vvcurveto
            28 56 9 32 74 47 -47 -88 vhcurveto
            -13 -1 -11 -41 vvcurveto
            35 -41 -47 16 -51 hhcurveto
            return
          </CharString>
          <CharString index="172">
            91 callsubr
            -19 -13 hvcurveto
            hintmask 0001000000000000
            return
          </CharString>
          <CharString index="173">
            146 788 rmoveto
            21 -7 8 -18 -79 -78 -11 -25 -19 22 -1 16 vhcurveto
            50 hlineto
            16 6 -8 -15 hvcurveto
            return
          </CharString>
          <CharString index="174">
            -16 -4 -565 -1 -45 vhcurveto
            -20 -3 -34 -25 vhcurveto
            -16 hlineto
            return
          </CharString>
          <CharString index="175">
            163 -147 147 -67 67 -67 207 -189 64 -64 117 105 112 -85 64 -51 72 return
          </CharString>
          <CharString index="176">
            28 -10 197 180 72 2 208 51 vvcurveto
            endchar
          </CharString>
          <CharString index="177">
            -5 -3 2 9 88 0 147 153 return
          </CharString>
          <CharString index="178">
            hstemhm
            -14 200 -110 53 -53 110 return
          </CharString>
          <CharString index="179">
            165 -139 139 -66 66 -66 182 -182 204 -17 150 -64 64 -64 168 return
          </CharString>
          <CharString index="180">
            -12 -58 -3 -38 hhcurveto
            -29 -27 2 1 -28 hvcurveto
            300 273 vlineto
            13 24 0 -28 hvcurveto
            -82 vlineto
            return
          </CharString>
          <CharString index="181">
            -12 -25 -2 -23 -19 23 -6 14 28 57 0 -23 hvcurveto
            return
          </CharString>
          <CharString index="182">
            61 362 60 32 166 113 callgsubr
            return
          </CharString>
          <CharString index="183">
            rmoveto
            20 6 21 11 6 vhcurveto
            -8 9 11 -4 13 hhcurveto
            return
          </CharString>
          <CharString index="184">
            51 -41 -21 765 50 17 -20 return
          </CharString>
          <CharString index="185">
            rmoveto
            9 6 13 12 1 vhcurveto
            return
          </CharString>
          <CharString index="186">
            460 0 45 -45 66 157 64 -13 178 -64 64 -64 178 35 220 -66 66 return
          </CharString>
          <CharString index="187">
            -65 212 hlineto
            -34 18 42 -45 88 hhcurveto
            69 137 58 191 96 -32 137 -152 return
          </CharString>
          <CharString index="188">
            36 -36 99 26 85 -46 46 -46 185 hstemhm
            21 45 -45 59 99 58 hintmask 10100101
            189 return
          </CharString>
          <CharString index="189">
            -94 -11 -84 -32 -66 hhcurveto
            -104 -34 79 73 12 1 15 1 14 hvcurveto
            -313 -130 rmoveto
            return
          </CharString>
          <CharString index="190">
            -20 58 callgsubr
            return
          </CharString>
          <CharString index="191">
            1 10 hhcurveto
            -17 callgsubr
            return
          </CharString>
          <CharString index="192">
            61 -61 147 69 197 -72 72 -72 160 return
          </CharString>
          <CharString index="193">
            hstemhm
            27 78 callgsubr
            return
          </CharString>
          <CharString index="194">
            44 -28 -21 218 120 -45 45 return
          </CharString>
          <CharString index="195">
            -12 43 -29 -21 150 61 89 46 return
          </CharString>
          <CharString index="196">
            201 -11 62 -62 220 -21 60 -4 62 -30 181 -60 60 -42 42 -42 62 return
          </CharString>
          <CharString index="197">
            -23 -4 -11 3 -23 vvcurveto
            -18 21 -5 22 vhcurveto
            18 34 2 21 50 30 -2 29 hhcurveto
            return
          </CharString>
          <CharString index="198">
            rmoveto
            hintmask 0001000000000000
            6 callgsubr
            hintmask 0000110000000000
            -34 -68 2 -19 hhcurveto
            -18 -8 return
          </CharString>
          <CharString index="199">
            676 -22 callgsubr
            return
          </CharString>
          <CharString index="200">
            -20 43 callsubr
            return
          </CharString>
          <CharString index="201">
            -331 -233 62 -62 195 427 51 return
          </CharString>
          <CharString index="202">
            -302 0 58 378 -20 return
          </CharString>
          <CharString index="203">
            -20 21 -20 hstemhm
            return
          </CharString>
          <CharString index="204">
            15 42 3 36 30 56 -2 24 hhcurveto
            34 8 14 9 28 -9 6 -20 hvcurveto
            return
          </CharString>
          <CharString index="205">
            rmoveto
            13 13 -7 -18 -21 -18 -5 -7 -8 -19 5 20 20 15 6 11 hvcurveto
            return
          </CharString>
          <CharString index="206">
            20 callgsubr
            endchar
          </CharString>
          <CharString index="207">
            hstemhm
            30 75 276 82 -64 64 return
          </CharString>
          <CharString index="208">
            -65 -11 61 362 60 return
          </CharString>
          <CharString index="209">
            290 376 44 callgsubr
            return
          </CharString>
          <CharString index="210">
            -5 -3 3 18 83 1 187 157 47 0 -39 -71 hvcurveto
            endchar
          </CharString>
          <CharString index="211">
            -4 -47 vhcurveto
            -1 -15 return
          </CharString>
          <CharString index="212">
            196 -67 67 120 205 -70 121 callgsubr
            hintmask 1100110100000000
            return
          </CharString>
          <CharString index="213">
            2 callgsubr
            hstemhm
            48 66 return
          </CharString>
          <CharString index="214">
            166 -147 147 -66 182 -182 204 67 66 return
          </CharString>
          <CharString index="215">
            -46 -26 0 -18 -12 -17 -5 -20 vhcurveto
            return
          </CharString>
          <CharString index="216">
            -55 51 4 51 -37 -21 395 64 return
          </CharString>
          <CharString index="217">
            63 -41 -21 64 -20 21 -20 return
          </CharString>
          <CharString index="218">
            60 hstemhm
            29 75 254 69 return
          </CharString>
          <CharString index="219">
            -73 196 -196 221 return
          </CharString>
          <CharString index="220">
            45 -27 -21 420 58 return
          </CharString>
          <CharString index="221">
            113 -90 113 hstemhm
            return
          </CharString>
          <CharString index="222">
            57 -39 -21 22 -21 return
          </CharString>
          <CharString index="223">
            42 285 -20 hstemhm
            21 109 -50 98 hintmask 11100000
            130 return
          </CharString>
          <CharString index="224">
            144 hlineto
            33 31 rlineto
            -43 23 113 -232 34 hhcurveto
            return
          </CharString>
          <CharString index="225">
            -16 -2 -18 -3 -19 vvcurveto
            -22 40 0 32 vhcurveto
            161 hlineto
            return
          </CharString>
          <CharString index="226">
            40 102 32 165 -20 hstem
            24 60 94 58 vstem
            174 return
          </CharString>
          <CharString index="227">
            -21 145 -20 return
          </CharString>
          <CharString index="228">
            15 vhcurveto
            hintmask 0001010000000000
            47 141 1 53 hhcurveto
            23 6 return
          </CharString>
          <CharString index="229">
            -12 -29 -1 -24 -19 27 -6 14 17 39 0 -23 hvcurveto
            return
          </CharString>
          <CharString index="230">
            67 123 144 -94 112 -81 81 -81 182 return
          </CharString>
          <CharString index="231">
            -21 153 44 104 40 hstem
            17 53 100 55 vstem
            78 return
          </CharString>
          <CharString index="232">
            -46 -30 61 -40 60 367 59 return
          </CharString>
          <CharString index="233">
            -148 -137 return
          </CharString>
          <CharString index="234">
            -12 -22 -3 -22 -23 28 0 18 hvcurveto
            217 hlineto
            return
          </CharString>
          <CharString index="235">
            -20 4 callgsubr
            return
          </CharString>
          <CharString index="236">
            56 80 238 -183 56 71 56 127 59 return
          </CharString>
          <CharString index="237">
            -117 -3 -40 -53 vvcurveto
            -56 -1 1 -31 -4 vhcurveto
            return
          </CharString>
          <CharString index="238">
            -9 41 -41 63 -52 -21 157 35 123 36 return
          </CharString>
          <CharString index="239">
            245 -21 309 -20 return
          </CharString>
          <CharString index="240">
            rmoveto
            hintmask 10000000
            6 callgsubr
            hintmask 01100000
            -34 return
          </CharString>
          <CharString index="241">
            13 17 2 20 19 -18 7 -30 hvcurveto
            -70 hlineto
            return
          </CharString>
          <CharString index="242">
            -15 -2 -27 -4 -18 vvcurveto
            -18 28 -2 14 vhcurveto
            return
          </CharString>
          <CharString index="243">
            -14 -2 -20 -3 -18 vvcurveto
            -21 18 0 18 vhcurveto
            return
          </CharString>
          <CharString index="244">
            -9 -5 -20 11 -37 vvcurveto
            -9 11 -12 24 vhcurveto
            return
          </CharString>
          <CharString index="245">
            55 callsubr
            hstemhm
            54 71 return
          </CharString>
          <CharString index="246">
            -14 -2 -23 -3 -18 vvcurveto
            -21 21 0 18 vhcurveto
            return
          </CharString>
          <CharString index="247">
            -1 27 0 53 28 93 5 164 94 vvcurveto
            return
          </CharString>
          <CharString index="248">
            131 -69 181 49 145 -70 173 return
          </CharString>
          <CharString index="249">
            -14 -2 -28 -4 -18 vvcurveto
            -21 26 0 18 vhcurveto
            return
          </CharString>
          <CharString index="250">
            hstemhm
            -14 161 -73 221 return
          </CharString>
          <CharString index="251">
            120 callsubr
            hstemhm
            return
          </CharString>
          <CharString index="252">
            vhcurveto
            37 -2 38 38 38 2 37 38 vvcurveto
            return
          </CharString>
          <CharString index="253">
            19 -4 21 -28 -28 -3 -21 -11 -1 vhcurveto
            return
          </CharString>
          <CharString index="254">
            hvcurveto
            -28 5 -28 -25 -19 -3 -19 -13 vvcurveto
            return
          </CharString>
          <CharString index="255">
            -11 -15 -16 -14 -14 17 -17 9 hvcurveto
            78 return
          </CharString>
          <CharString index="256">
            541 rmoveto
            -23 3 -34 -44 vvcurveto
            -104 hlineto
            return
          </CharString>
          <CharString index="257">
            -74 -49 -44 -88 -57 21 -53 1 -14 vhcurveto
            return
          </CharString>
          <CharString index="258">
            -20 86 callsubr
            return
          </CharString>
        <CharString name=".notdef">
          76 2 52 705 59 hstem
          93 59 396 59 vstem
          589 815 rmoveto
          3 -51 -167 0 -67 hhcurveto
          -34 -114 -1 -2 -43 hvcurveto
          -20 -1 -3 -18 -16 vvcurveto
          3 -245 0 -235 -263 vvcurveto
          -28 7 -7 12 vhcurveto
          476 hlineto
          12 7 7 28 263 0 235 3 245 hvcurveto
          16 -4 18 -17 1 vhcurveto
          -418 -761 rmoveto
          -14 -5 4 14 hvcurveto
          654 vlineto
          26 0 7 28 vhcurveto
          339 hlineto
          23 6 -9 -18 hvcurveto
          -657 vlineto
          -14 -6 -7 -13 vhcurveto
          -55 140 rmoveto
          8 -29 36 -53 61 vhcurveto
          28 38 19 27 32 39 rrcurveto
          5 6 1 4 5 vvcurveto
          10 -21 22 -7 -14 -14 -16 -37 -27 vhcurveto
          -38 -52 -42 56 -22 28 -5 6 rlinecurve
          26 -21 -14 25 -16 hhcurveto
          -8 -21 -26 -8 -11 29 -32 85 -113 hvcurveto
          -24 -32 15 23 -68 -84 rrcurveto
          -11 -14 -15 -12 -12 vvcurveto
          -9 17 -21 9 20 43 60 54 51 vhcurveto
          -60 55 18 -36 10 hhcurveto
          13 20 26 15 hvcurveto
          endchar
        </CharString>
        <CharString name="A">
          -19 callgsubr
          hstem
          112 callgsubr
          vstem
          -102 callsubr
          endchar
        </CharString>
        <CharString name="AE">
          79 callsubr
          hstemhm
          398 200 -73 73 209 64 37 67 -22 66 hintmask 0110011010101000
          991 320 30 callsubr
          hintmask 1001001010110000
          99 callgsubr
          hintmask 1010011010110000
          123 callgsubr
          hintmask 1001000110110000
          73 callsubr
          hintmask 1010101010110000
          -43 callsubr
          hintmask 1010101001101000
          -31 callsubr
        </CharString>
        <CharString name="AEacute">
          79 callsubr
          33 118 hstemhm
          398 200 -76 138 -135 73 209 64 37 67 -22 66 hintmask 0000000010100000
          660 -92 callgsubr
          hintmask 0110011001001010
          331 -621 30 callsubr
          hintmask 1001001001001100
          99 callgsubr
          hintmask 1010011001001100
          123 callgsubr
          hintmask 1001000101001100
          73 callsubr
          hintmask 1010101001001100
          -43 callsubr
          hintmask 1010101000011010
          -31 callsubr
        </CharString>
        <CharString name="Aacute">
          -19 callgsubr
          37 118 hstemhm
          -37 219 109 138 97 228 hintmask 00001010
          429 -92 callgsubr
          hintmask 11110101
          -41 -125 -107 callgsubr
          endchar
        </CharString>
        <CharString name="Abreve">
          -19 callgsubr
          48 45 -45 107 hstemhm
          -37 219 59 116 callgsubr
          46 228 hintmask 1111001001000000
          -102 callsubr
          hintmask 0000010010000000
          124 229 -38 callsubr
          hintmask 0000100100000000
          -27 callgsubr
          hintmask 0000010010000000
          -77 callsubr
        </CharString>
        <CharString name="Acircumflex">
          -19 callgsubr
          52 -21 124 -20 hstemhm
          112 callgsubr
          hintmask 00001100
          478 848 rmoveto
          8 3 8 9 36 -107 71 -24 -20 -110 -69 -42 -8 4 -5 7 14 59 23 19 callgsubr
          -23 14 hhcurveto
          hintmask 11110011
          -90 -32 -107 callgsubr
          endchar
        </CharString>
        <CharString name="Adieresis">
          -19 callgsubr
          30 89 callgsubr
          -37 219 18 105 102 105 14 228 hintmask 0000010110000000
          200 14 callsubr
          -19 -88 -107 callgsubr
          endchar
        </CharString>
        <CharString name="Agrave">
          -19 callgsubr
          37 118 hstemhm
          -37 219 109 138 97 228 hintmask 00001010
          291 -44 callgsubr
          hintmask 11110101
          97 -125 -107 callgsubr
          endchar
        </CharString>
        <CharString name="Amacron">
          -19 callgsubr
          60 -25 callsubr
          112 callgsubr
          hintmask 1111000011000000
          -102 callsubr
          hintmask 0000010100000000
          142 224 -37 callgsubr
        </CharString>
        <CharString name="Aogonek">
          104 -202 43 104 46 -30 -20 59 45 178 65 549 -20 hstemhm
          -37 219 320 64 -40 228 hintmask 0101111010000000
          -102 callsubr
          hintmask 1010000100000000
          219 -754 -99 callgsubr
        </CharString>
        <CharString name="Aring">
          -19 callgsubr
          36 119 hstemhm
          -37 219 109 45 52 45 93 228 hintmask 0000101100000000
          433 914 rmoveto
          37 -24 21 -47 -40 -31 -26 -34 -35 32 -24 40 36 34 20 41 vhcurveto
          -71 24 98 callsubr
          hintmask 1111010010000000
          26 -122 -107 callgsubr
          endchar
        </CharString>
        <CharString name="Aringacute">
          109 -55 46 9 45 178 65 460 119 -34 -20 159 -20 hstemhm
          296 45 52 45 91 228 hintmask 1111011110000000
          391 716 rmoveto
          13 -4 -12 8 -19 hhcurveto
          -24 -9 -11 -10 -3 hvcurveto
          -40 -111 -110 -368 -59 -148 -8 -24 -13 -11 -28 -3 -7 -1 -45 -4 -19 -1 rrcurveto
          -13 -12 -8 -13 -15 11 -9 12 hvcurveto
          267 hlineto
          26 8 12 12 20 -16 5 -13 -30 -47 0 16 1 hvcurveto
          2 22 30 84 21 52 rrcurveto
          228 hlineto
          11 -31 52 -156 -21 -51 -71 26 -29 vvcurveto
          -11 7 -5 24 vhcurveto
          233 hlineto
          23 12 5 19 19 -22 3 -19 -63 -41 1 31 -9 hvcurveto
          -244 592 rmoveto
          27 -105 36 -129 29 -92 rrcurveto
          -1 -28 -29 0 -28 hhcurveto
          -38 -33 0 1 -38 hvcurveto
          21 83 65 187 16 56 rrcurveto
          93 324 rmoveto
          18 -10 13 -20 2 vhcurveto
          -31 -74 -62 -28 -2 hvcurveto
          -12 3 -10 12 -1 vhcurveto
          -21 -11 -13 -19 -22 vvcurveto
          -35 32 -24 40 36 34 20 41 37 -24 21 -47 vhcurveto
          -4 hlineto
          38 15 51 33 24 vvcurveto
          hintmask 1110111110000000
          -85 -106 98 callsubr
          endchar
        </CharString>
        <CharString name="Atilde">
          -19 callgsubr
          63 -47 callgsubr
          112 callgsubr
          hintmask 1111000001100000
          -102 callsubr
          hintmask 0000011010000000
          -159 209 -95 callsubr
          endchar
        </CharString>
        <CharString name="B">
          95 0 62 318 64 313 64 -52 52 hstemhm
          38 172 -70 70 333 72 -32 32 -32 74 hintmask 1110100010000000
          67 48 rmoveto
          -17 -12 -5 -18 -19 18 -6 33 hvcurveto
          200 hlineto
          193 175 58 162 105 -74 75 -114 21 hvcurveto
          hintmask 1101010100000000
          90 24 56 74 93 vvcurveto
          138 -125 71 -142 -25 -156 -2 -1 -100 vhcurveto
          -15 -11 -10 -14 -17 8 -8 18 44 20 0 -36 1 hvcurveto
          2 -69 6 -215 -136 -54 -1 -97 -90 vvcurveto
          -23 -45 -1 -27 vhcurveto
          222 332 rmoveto
          143 151 -17 -141 -152 -209 -8 -164 hvcurveto
          315 vlineto
          1 27 1 2 51 hhcurveto
          hintmask 1110101000000000
          2 377 rmoveto
          121 131 -28 -124 -156 -177 -4 -86 -1 hvcurveto
          -44 -26 1 2 hvcurveto
          306 vlineto
          0 35 4 46 vhcurveto
          endchar
        </CharString>
        <CharString name="C">
          40 callgsubr
          115 callgsubr
          hintmask 11101100
          610 219 -97 callsubr
          hintmask 11011100
          -3 callgsubr
        </CharString>
        <CharString name="CR">
          -256 endchar
        </CharString>
        <CharString name="Cacute">
          40 callgsubr
          16 118 hstemhm
          37 75 191 138 84 70 hintmask 00001010
          441 -92 callgsubr
          hintmask 11100101
          169 -722 -97 callsubr
          hintmask 11010101
          -3 callgsubr
        </CharString>
        <CharString name="Ccaron">
          40 callgsubr
          30 -21 125 -20 115 callgsubr
          hintmask 00001100
          461 -88 callsubr
          hintmask 11100011
          149 -753 -97 callsubr
          hintmask 11010011
          -3 callgsubr
        </CharString>
        <CharString name="Ccedilla">
          52 143 callgsubr
          26 62 -41 -20 481 -20 329 46 -46 61 hstemhm
          37 75 218 194 -67 67 1 70 hintmask 0001011010010000
          610 219 -97 callsubr
          hintmask 0001010110010000
          -59 callsubr
          hintmask 1100100001000000
          -289 -212 36 callgsubr
          hintmask 1010100000100000
          67 callgsubr
          hintmask 1100100001000000
          4 callsubr
        </CharString>
        <CharString name="Ccircumflex">
          40 callgsubr
          30 -21 125 -20 115 callgsubr
          hintmask 00001100
          461 -93 callgsubr
          hintmask 11100011
          149 -628 -97 callsubr
          hintmask 11010011
          -3 callgsubr
        </CharString>
        <CharString name="Cdotaccent">
          40 callgsubr
          21 113 hstemhm
          37 75 184 105 124 70 hintmask 11100101
          610 219 -97 callsubr
          hintmask 11010101
          -59 callsubr
          hintmask 00001010
          -314 697 -84 callgsubr
        </CharString>
        <CharString name="D">
          104 0 48 -48 64 692 65 -52 52 hstemhm
          140 71 376 75 hintmask 10011100
          63 818 -75 callgsubr
          hintmask 01101100
          -37 callsubr
        </CharString>
        <CharString name="Dcaron">
          104 0 48 -48 64 692 65 -52 52 61 callsubr
          140 71 376 75 hintmask 00001100
          423 -88 callsubr
          hintmask 10010011
          -360 -154 -75 callgsubr
          hintmask 01100011
          -37 callsubr
        </CharString>
        <CharString name="Dcroat">
          -75 callsubr
        </CharString>
        <CharString name="E">
          -64 callgsubr
          58 callgsubr
          hintmask 0101100110100000
          -70 callgsubr
          hintmask 1010100111000000
          -68 callsubr
          hintmask 1001100111000000
          -46 callgsubr
          hintmask 1010010111000000
          -82 callgsubr
          hintmask 1010100111000000
          -96 callgsubr
          hintmask 1010001110100000
          -74 callsubr
        </CharString>
        <CharString name="Eacute">
          -64 callgsubr
          33 118 hstemhm
          140 71 80 138 -7 68 callgsubr
          hintmask 0000000101000000
          429 -92 callgsubr
          hintmask 0101100010101000
          173 -626 -100 callsubr
          endchar
        </CharString>
        <CharString name="Ebreve">
          -64 callgsubr
          44 45 -45 107 hstemhm
          140 71 25 116 callgsubr
          -53 68 callgsubr
          hintmask 0101100001001010
          -70 callgsubr
          hintmask 1010100001001100
          -68 callsubr
          hintmask 1001100001001100
          -46 callgsubr
          hintmask 1010010001001100
          -82 callgsubr
          hintmask 1010100001001100
          -96 callgsubr
          hintmask 1010001001001010
          -105 callsubr
          hintmask 0000000010010000
          -127 629 -38 callsubr
          hintmask 0000000100100000
          -27 callgsubr
          hintmask 0000000010010000
          -77 callsubr
        </CharString>
        <CharString name="Ecaron">
          -64 callgsubr
          47 -21 125 83 callsubr
          hintmask 0000000110000000
          468 -88 callsubr
          hintmask 0101100001101000
          134 -657 -81 callsubr
        </CharString>
        <CharString name="Ecircumflex">
          -64 callgsubr
          47 -21 125 83 callsubr
          hintmask 0000000110000000
          468 -93 callgsubr
          hintmask 0101100001101000
          134 -532 -81 callsubr
        </CharString>
        <CharString name="Edieresis">
          -64 callgsubr
          26 89 callgsubr
          140 71 -23 105 102 105 -78 68 callgsubr
          hintmask 0000000010110000
          188 916 rmoveto
          -102 callgsubr
          207 -12 rmoveto
          hintmask 0000000100110000
          -102 callgsubr
          hintmask 0101100001001010
          207 -589 -99 callsubr
          hintmask 1010100001001100
          -68 callsubr
          hintmask 1001100001001100
          -46 callgsubr
          hintmask 1010010001001100
          -82 callgsubr
          hintmask 1010100001001100
          -96 callgsubr
          hintmask 1010001001001010
          -74 callsubr
        </CharString>
        <CharString name="Edotaccent">
          -64 callgsubr
          38 113 hstemhm
          140 71 78 105 28 68 callgsubr
          hintmask 0101100010101000
          602 315 -100 callsubr
          hintmask 0000000101000000
          -313 601 -84 callgsubr
        </CharString>
        <CharString name="Egrave">
          -64 callgsubr
          33 118 hstemhm
          140 71 64 138 9 68 callgsubr
          hintmask 0000000101000000
          275 -44 callgsubr
          hintmask 0101100010101000
          327 -626 -100 callsubr
          endchar
        </CharString>
        <CharString name="Emacron">
          -64 callgsubr
          59 59 -37 -21 60 -20 21 83 callsubr
          hintmask 0101100000011010
          -70 callgsubr
          hintmask 1010100000011100
          -68 callsubr
          hintmask 1001100000011100
          -46 callgsubr
          hintmask 1010010000011100
          -82 callgsubr
          hintmask 1010100000011100
          -96 callgsubr
          hintmask 1010001000011010
          -105 callsubr
          hintmask 0000000010100000
          -111 627 rmoveto
          hintmask 0000000100000000
          6 callgsubr
          hintmask 0000000011000000
          -34 -68 -27 callsubr
          hintmask 0000000100000000
          12 callsubr
          hintmask 0000000010100000
          47 141 -63 callsubr
          endchar
        </CharString>
        <CharString name="Eng">
          230 -239 66 81 85 7 51 703 50 17 128 callsubr
          32 60 -60 153 -9 61 callgsubr
          hintmask 1111010010010000
          213 708 rmoveto
          395 -704 2 -2 1 -2 rrcurveto
          -127 -6 -22 -46 -69 hhcurveto
          -33 -46 16 44 6 2 24 15 7 hvcurveto
          -8 6 14 -8 16 hhcurveto
          hintmask 1111010001010000
          21 19 13 29 31 -26 12 -24 -68 -35 -52 -56 -84 77 -40 75 hvcurveto
          hintmask 1111010010100000
          111 45 85 187 hvcurveto
          95 -2 156 84 vvcurveto
          154 2 61 2 146 vhcurveto
          25 79 0 12 vhcurveto
          hintmask 1111010010001000
          -4 callgsubr
          hintmask 1111010010100000
          21 callsubr
          hintmask 1110110010010000
          -63 callgsubr
          hintmask 1111010010100000
          11 callgsubr
          hintmask 1111000110100000
          -44 callsubr
          hintmask 1111001010100000
          -4 callsubr
          hintmask 1111000110100000
          22 callgsubr
          hintmask 1111010010100000
          -100 hlineto
          endchar
        </CharString>
        <CharString name="Eogonek">
          73 -149 43 106 48 -48 66 -52 -20 283 175 -64 178 34 221 -66 66 -52 52 hstemhm
          140 71 44 64 103 68 callgsubr
          hintmask 0010011001010100
          -70 callgsubr
          hintmask 0100101001011000
          -68 callsubr
          hintmask 0100011001011000
          -46 callgsubr
          hintmask 0100100101011000
          -82 callgsubr
          hintmask 0100101001011000
          -96 callgsubr
          hintmask 0100100011010100
          -105 callsubr
          hintmask 1001000000100000
          -274 -301 -99 callgsubr
        </CharString>
        <CharString name="Eth">
          -75 callsubr
        </CharString>
        <CharString name="Etilde">
          -64 callgsubr
          40 62 -42 -21 25 38 -38 66 2 83 callsubr
          hintmask 0101100000001101
          -70 callgsubr
          hintmask 1010100000001110
          -68 callsubr
          hintmask 1001100000001110
          -46 callgsubr
          hintmask 1010010000001110
          -82 callgsubr
          hintmask 1010100000001110
          -96 callgsubr
          hintmask 1010001000001101
          -105 callsubr
          hintmask 0000000011010000
          -434 590 -85 callgsubr
          hintmask 0000000100010000
          -103 callsubr
          hintmask 0000000010100000
          -41 -56 28 -40 hhcurveto
          hintmask 0000000100010000
          65 callgsubr
        </CharString>
        <CharString name="Euro">
          63 -14 62 -62 219 49 61 105 61 1 -20 315 61 hstemhm
          550 70 hintmask 01110110
          617 166 rmoveto
          19 -3 20 -25 -31 2 -40 -16 -4 vhcurveto
          hintmask 10110110
          -81 -24 -66 -20 -82 hhcurveto
          -108 -69 86 120 -17 hvcurveto
          49 55 1 25 hhcurveto
          23 6 23 11 14 -11 15 -10 hvcurveto
          -26 -48 -3 -44 hhcurveto
          -23 hlineto
          -4 28 -1 30 31 vvcurveto
          16 vlineto
          52 59 1 27 hhcurveto
          23 6 23 11 14 -11 15 -10 hvcurveto
          -26 -48 -3 -44 hhcurveto
          -26 hlineto
          132 6 61 164 148 hhcurveto
          109 43 -67 -90 -36 4 -33 34 24 8 25 19 188 -114 55 -110 hvcurveto
          hintmask 10101110
          -166 -96 -140 -216 -26 hvcurveto
          -21 -20 1 -9 hhcurveto
          -18 -8 -17 -14 hvcurveto
          hintmask 10110110
          -13 11 -19 15 vhcurveto
          48 -15 hlineto
          -33 2 -29 3 -27 vhcurveto
          -22 -21 1 -10 hhcurveto
          -18 -8 -17 -14 -13 11 -19 15 hvcurveto
          60 hlineto
          -176 27 103 -92 135 hhcurveto
          182 52 96 84 hvcurveto
          endchar
        </CharString>
        <CharString name="F">
          1 0 48 -48 60 211 184 -66 175 36 221 -66 66 -50 50 hstemhm
          38 172 -69 69 -69 235 46 62 37 67 hintmask 1010100100110000
          137 92 rmoveto
          -41 -1 -32 -3 -38 hhcurveto
          -17 -11 -4 -21 -23 26 0 17 hvcurveto
          265 hlineto
          hintmask 0110100001110000
          15 15 5 21 34 -21 0 -15 hvcurveto
          -127 hlineto
          hintmask 1001100010110000
          12 -3 88 45 50 1 81 50 vvcurveto
          2 38 24 1 38 hhcurveto
          22 23 -1 -1 22 hvcurveto
          16 -1 28 -21 -66 vvcurveto
          hintmask 1010100100110000
          -18 14 -10 18 20 10 10 28 vhcurveto
          32 -2 41 33 33 2 36 33 vvcurveto
          hintmask 1001100100110000
          21 0 26 -30 -34 0 -21 -26 vhcurveto
          hintmask 1010010100110000
          -10 0 -52 -14 vhcurveto
          -9 -57 -2 -32 hhcurveto
          -37 -21 0 2 -39 hvcurveto
          300 271 vlineto
          27 12 -4 -37 hvcurveto
          -67 vlineto
          hintmask 1010100100110000
          -24 5 -23 28 27 7 14 33 vhcurveto
          126 vlineto
          35 -6 13 -28 vhcurveto
          -70 -70 -2 -70 -85 -95 2 -85 hhcurveto
          -29 -9 -11 -14 hvcurveto
          hintmask 1010001010110000
          -10 6 -15 16 49 23 -12 -27 vhcurveto
          -92 6 -59 -92 vvcurveto
          -132 -1 -133 -3 -132 vhcurveto
          endchar
        </CharString>
        <CharString name="G">
          62 -14 10 callsubr
          115 callgsubr
          -58 58 hintmask 1011101010000000
          512 254 -33 callgsubr
          hintmask 1011101100000000
          -59 callgsubr
          hintmask 1011011100000000
          -50 callsubr
          hintmask 0111101100000000
          -69 callgsubr
          endchar
        </CharString>
        <CharString name="Gbreve">
          62 -14 10 callsubr
          27 45 -45 107 hstemhm
          37 75 121 116 callgsubr
          53 70 -58 58 hintmask 1011100010001000
          512 254 -33 callgsubr
          hintmask 1011100010010000
          -59 callgsubr
          hintmask 1011010010010000
          -50 callsubr
          hintmask 0111100010010000
          -69 callgsubr
          hintmask 0000000100100000
          -40 690 -38 callsubr
          hintmask 0000001001000000
          -27 callgsubr
          hintmask 0000000100100000
          -77 callsubr
        </CharString>
        <CharString name="Gcircumflex">
          62 -14 10 callsubr
          30 -21 125 -20 115 callgsubr
          -58 58 hintmask 0000001100000000
          465 -93 callgsubr
          hintmask 1011100010100000
          47 -593 -33 callgsubr
          hintmask 1011100011000000
          -59 callgsubr
          hintmask 1011010011000000
          -50 callsubr
          hintmask 0111100011000000
          -69 callgsubr
          endchar
        </CharString>
        <CharString name="Gcommaaccent">
          63 -231 176 41 10 callsubr
          hstemhm
          38 75 189 -18 callgsubr
          115 70 -58 58 hintmask 0101110100001000
          513 254 -33 callgsubr
          hintmask 0101110100010000
          -59 callgsubr
          hintmask 0101101100010000
          -50 callsubr
          hintmask 0011110100010000
          -69 callgsubr
          hintmask 1000000010000000
          -211 -358 -48 callgsubr
        </CharString>
        <CharString name="Gdotaccent">
          62 -14 10 callsubr
          21 113 hstemhm
          37 75 196 105 112 70 -58 58 hintmask 1011100100100000
          512 254 -33 callgsubr
          hintmask 1011100101000000
          -59 callgsubr
          hintmask 1011010101000000
          -50 callsubr
          hintmask 0111100101000000
          -69 callgsubr
          hintmask 0000001010000000
          -204 662 -84 callgsubr
        </CharString>
        <CharString name="H">
          213 109 callsubr
          305 50 -36 50 hstemhm
          39 -1 callsubr
          hintmask 1101101000000100
          657 732 48 callsubr
          hintmask 1101101000100000
          -6 callgsubr
          hintmask 1101010010100000
          53 callgsubr
          hintmask 1101011000100000
          77 callgsubr
          hintmask 1101100001100000
          42 callsubr
          hintmask 1101100100100000
          83 callgsubr
          hintmask 1101100001100000
          109 callgsubr
          hintmask 1101101000001000
          37 callsubr
          hintmask 0011101000010000
          108 callsubr
          hintmask 1101101000000010
          37 callgsubr
          hintmask 1101101000100000
          69 callsubr
        </CharString>
        <CharString name="Hbar">
          218 109 callsubr
          107 110 callsubr
          152 50 -36 50 hstemhm
          41 -1 callsubr
          hintmask 000001010000000000000000
          710 625 rmoveto
          hintmask 000010000000000000000000
          -32 -210 -3 -55 hhcurveto
          hintmask 000001100000000000000000
          -35 -250 2 -19 hhcurveto
          -18 -8 -17 -15 hvcurveto
          hintmask 000010000000000000000000
          -15 11 -18 15 vhcurveto
          hintmask 000001010000000000000000
          47 493 1 53 hhcurveto
          23 6 24 11 16 -11 14 -10 hvcurveto
          hintmask 110100001010000001000000
          -51 107 48 callsubr
          hintmask 110100001010001000000000
          -6 callgsubr
          hintmask 110100000100101000000000
          53 callgsubr
          hintmask 110100000110001000000000
          77 callgsubr
          hintmask 110100001000011000000000
          42 callsubr
          hintmask 110100001001001000000000
          83 callgsubr
          hintmask 110100001000011000000000
          109 callgsubr
          hintmask 110100001010000010000000
          37 callsubr
          hintmask 001100001010000100000000
          108 callsubr
          hintmask 110100001010000000100000
          37 callgsubr
          hintmask 110100001010001000000000
          69 callsubr
        </CharString>
        <CharString name="Hcircumflex">
          213 109 callsubr
          305 50 -36 50 61 callsubr
          39 -1 callsubr
          hintmask 000000110000000000000000
          533 -93 callgsubr
          hintmask 110110001000000100000000
          124 -115 48 callsubr
          hintmask 110110001000100000000000
          -6 callgsubr
          hintmask 110101000010100000000000
          53 callgsubr
          hintmask 110101001000100000000000
          77 callgsubr
          hintmask 110110000001100000000000
          42 callsubr
          hintmask 110110000100100000000000
          83 callgsubr
          hintmask 110110000001100000000000
          109 callgsubr
          hintmask 110110001000001000000000
          37 callsubr
          hintmask 001110001000010000000000
          108 callsubr
          hintmask 110110001000000010000000
          37 callgsubr
          hintmask 110110001000100000000000
          69 callsubr
        </CharString>
        <CharString name="I">
          28 callgsubr
          86 callsubr
          hintmask 11100000
          26 callgsubr
          hintmask 11001000
          -41 callsubr
          hintmask 11100000
          -45 callgsubr
          hintmask 11010000
          -67 callgsubr
          hintmask 11100000
          15 callsubr
        </CharString>
        <CharString name="IJ">
          283 -14 64 -50 51 119 94 507 50 86 callsubr
          33 85 callsubr
          hintmask 0101100000000000
          26 callgsubr
          hintmask 0101001000000000
          -41 callsubr
          hintmask 0101100000000000
          -45 callgsubr
          hintmask 0101010000000000
          -67 callgsubr
          hintmask 0101100000000000
          -83 callgsubr
          hintmask 1011000101000000
          197 84 76 callsubr
          hintmask 1011000011000000
          -2 callgsubr
          hintmask 1011000100010000
          85 callgsubr
          hintmask 1011000101000000
          74 callsubr
          hintmask 1011000100100000
          33 callgsubr
        </CharString>
        <CharString name="Iacute">
          28 callgsubr
          33 118 hstemhm
          27 187 -112 138 -97 71 -71 174 hintmask 00101000
          240 -92 callgsubr
          hintmask 11010000
          -26 -195 -65 callgsubr
          endchar
        </CharString>
        <CharString name="Ibreve">
          28 callgsubr
          44 45 -45 107 hstemhm
          27 187 -159 116 callgsubr
          -151 71 -71 174 hintmask 1100100000000000
          26 callgsubr
          hintmask 1100000010000000
          -41 callsubr
          hintmask 1100100000000000
          -45 callgsubr
          hintmask 1100000100000000
          -67 callgsubr
          hintmask 1100100000000000
          -83 callgsubr
          hintmask 0001001000000000
          80 893 -38 callsubr
          hintmask 0010010000000000
          -27 callgsubr
          hintmask 0001001000000000
          -77 callsubr
        </CharString>
        <CharString name="Icircumflex">
          28 callgsubr
          47 -21 125 151 callsubr
          hintmask 00110000
          291 -93 callgsubr
          hintmask 11001000
          -77 -101 29 callgsubr
          hintmask 11000010
          -41 callsubr
          hintmask 11001000
          -35 callsubr
          hintmask 11001000
          15 callsubr
        </CharString>
        <CharString name="Idieresis">
          28 callgsubr
          26 89 callgsubr
          17 105 -95 78 callgsubr
          -93 105 hintmask 0001100010000000
          17 916 rmoveto
          -102 callgsubr
          207 -12 rmoveto
          hintmask 0010100010000000
          -102 callgsubr
          hintmask 1100010000000000
          -10 -158 29 callgsubr
          hintmask 1100000100000000
          -41 callsubr
          hintmask 1100010000000000
          -45 callgsubr
          hintmask 1100001000000000
          -67 callgsubr
          hintmask 1100010000000000
          15 callsubr
        </CharString>
        <CharString name="Idotaccent">
          28 callgsubr
          38 113 hstemhm
          27 187 -92 105 -84 71 -71 174 hintmask 11010000
          214 746 -65 callgsubr
          hintmask 00101000
          -92 865 -84 callgsubr
        </CharString>
        <CharString name="Igrave">
          28 callgsubr
          33 118 hstemhm
          27 187 -111 138 -98 71 -71 174 hintmask 00101000
          103 -44 callgsubr
          hintmask 11010000
          111 -195 -65 callgsubr
          endchar
        </CharString>
        <CharString name="Imacron">
          28 callgsubr
          59 59 -37 -21 60 -20 21 151 callsubr
          hintmask 1100001000000000
          26 callgsubr
          hintmask 1100000010000000
          -41 callsubr
          hintmask 1100001000000000
          -45 callgsubr
          hintmask 1100000100000000
          -67 callgsubr
          hintmask 1100001000000000
          -83 callgsubr
          hintmask 0001010000000000
          97 891 91 callgsubr
          -16 -14 hvcurveto
          hintmask 0010000000000000
          -14 11 -17 121 callsubr
          22 11 15 -11 13 -10 hvcurveto
          endchar
        </CharString>
        <CharString name="Iogonek">
          -240 -149 43 106 51 -37 -20 777 50 hstemhm
          27 187 -131 64 -4 71 -71 174 hintmask 01011000
          26 callgsubr
          hintmask 01010001
          -41 callsubr
          hintmask 01011000
          -45 callgsubr
          hintmask 01010010
          -67 callgsubr
          hintmask 01011000
          -83 callgsubr
          hintmask 10100100
          -58 -37 -99 callgsubr
        </CharString>
        <CharString name="Itilde">
          28 callgsubr
          50 62 -42 -21 25 38 -38 66 2 151 callsubr
          hintmask 1100000100000000
          26 callgsubr
          hintmask 1100000001000000
          -41 callsubr
          hintmask 1100000100000000
          -45 callgsubr
          hintmask 1100000010000000
          -67 callgsubr
          hintmask 1100000100000000
          -83 callgsubr
          hintmask 0001101000000000
          -206 864 -86 callsubr
          endchar
        </CharString>
        <CharString name="J">
          -71 -14 64 120 94 507 50 hstemhm
          -4 85 callsubr
          hintmask 11110100
          57 135 76 callsubr
          hintmask 11101100
          -2 callgsubr
          hintmask 11110001
          85 callgsubr
          hintmask 11110100
          74 callsubr
          hintmask 11110010
          33 callgsubr
        </CharString>
        <CharString name="Jcircumflex">
          -71 -14 64 120 94 507 50 61 callsubr
          -4 85 callsubr
          hintmask 0001100000000000
          478 -93 callgsubr
          hintmask 1110010100000000
          -421 -712 76 callsubr
          hintmask 1110001100000000
          -2 callgsubr
          hintmask 1110010001000000
          85 callgsubr
          hintmask 1110010100000000
          74 callsubr
          hintmask 1110010010000000
          33 callgsubr
        </CharString>
        <CharString name="K">
          153 -36 72 callgsubr
          159 249 hintmask 1001100010000000
          148 callgsubr
          hintmask 1001001010000000
          127 callgsubr
          hintmask 1001100010000000
          122 callsubr
          hintmask 1010000110000000
          -110 4 -127 -110 -109 -4 -96 -102 vvcurveto
          -46 -32 0 -16 vhcurveto
          hintmask 0110010010000000
          127 callsubr
          hintmask 0110000110000000
          13 12 8 19 17 -20 6 -15 hvcurveto
          hintmask 0110100010000000
          -96 285 hlineto
          18 18 rlineto
          hintmask 1010100010000000
          13 callsubr
          hintmask 1001100010000000
          13 7 12 9 hvcurveto
          hintmask 1010100010000000
          47 callgsubr
          endchar
        </CharString>
        <CharString name="K.salt">
          169 -47 60 -60 135 -88 48 334 54 314 45 -24 50 hstemhm
          39 172 -74 186 -186 201 326 65 hintmask 1001011001000000
          211 746 rmoveto
          25 63 0 12 vhcurveto
          hintmask 1001010101000000
          16 21 5 20 10 -9 15 -42 hvcurveto
          -196 hlineto
          hintmask 1001011001000000
          -12 -25 -3 -22 -23 23 -2 25 hvcurveto
          hintmask 0011100011000000
          42 8 -1 -92 hvcurveto
          -47 3 -204 -23 vvcurveto
          -23 -3 -182 -2 -107 vhcurveto
          -42 -1 -18 -2 -42 hhcurveto
          -29 -9 -7 -18 -19 28 -4 25 139 callgsubr
          14 7 14 27 -21 2 -15 hvcurveto
          hintmask 0101101001000000
          -91 285 hlineto
          46 47 200 -7 46 -79 9 -76 rlinecurve
          -103 12 -26 -164 149 hhcurveto
          38 44 18 79 12 -3 26 -28 -26 -8 -21 -13 hvcurveto
          hintmask 1001101001000000
          -27 -1 -4 -14 -24 hhcurveto
          -53 7 135 72 -7 hvcurveto
          -6 63 -28 150 -239 3 128 131 92 92 74 70 16 15 57 3 66 3 rrcurveto
          15 1 5 14 7 vvcurveto
          9 -11 14 -12 vhcurveto
          -267 hlineto
          -27 -7 -18 -7 -14 13 -10 21 10 21 0 -12 -27 -208 -200 -84 -86 hvcurveto
          endchar
        </CharString>
        <CharString name="Kcommaaccent">
          153 -222 176 10 72 callgsubr
          -15 -18 callgsubr
          65 249 hintmask 0100110000001000
          148 callgsubr
          hintmask 0100100100001000
          127 callgsubr
          hintmask 0100110000001000
          122 callsubr
          hintmask 0101000010001000
          -110 4 -127 -110 -109 -4 -96 -102 vvcurveto
          -46 -32 0 -16 vhcurveto
          hintmask 0011001000001000
          127 callsubr
          hintmask 0011000010001000
          13 12 8 19 17 -20 6 -15 hvcurveto
          hintmask 0011010000001000
          -96 285 hlineto
          18 18 rlineto
          hintmask 0101010000001000
          13 callsubr
          hintmask 0100110000001000
          13 7 12 9 hvcurveto
          hintmask 0101010000001000
          47 callgsubr
          hintmask 1000000001000000
          116 -516 rmoveto
          hintmask 1000000000010000
          -13 callgsubr
          hintmask 1000000000100000
          -98 callsubr
          hintmask 1000000001000000
          -30 callgsubr
        </CharString>
        <CharString name="L">
          125 callgsubr
          110 callgsubr
          150 67 hintmask 10110100
          67 48 -78 callsubr
          hintmask 01110100
          -18 callsubr
          hintmask 10101100
          -80 callsubr
          endchar
        </CharString>
        <CharString name="Lacute">
          125 callgsubr
          33 118 hstemhm
          32 180 -102 138 -107 185 150 67 hintmask 00010100
          248 -92 callgsubr
          hintmask 10101001
          -181 -893 -78 callsubr
          hintmask 01101001
          -18 callsubr
          hintmask 10100011
          -80 callsubr
          endchar
        </CharString>
        <CharString name="Lcaron">
          125 callgsubr
          47 -21 125 -20 110 callgsubr
          150 67 hintmask 00011000
          304 -88 callsubr
          hintmask 10100101
          -237 -924 -78 callsubr
          hintmask 01100101
          -18 callsubr
          hintmask 10100011
          -80 callsubr
          endchar
        </CharString>
        <CharString name="Lcommaaccent">
          -29 -233 176 57 48 -48 66 705 50 110 callgsubr
          -75 -18 callgsubr
          116 67 hintmask 0101100001000000
          67 48 -78 callsubr
          hintmask 0011100001000000
          -18 callsubr
          hintmask 0101010001000000
          -80 callsubr
          hintmask 1000001000000000
          184 -154 -23 callgsubr
        </CharString>
        <CharString name="Ldot">
          -32 0 48 -48 66 237 113 355 50 110 callgsubr
          -26 105 71 67 hintmask 10011001
          67 48 -78 callsubr
          hintmask 01011001
          -18 callsubr
          hintmask 10010101
          -80 callsubr
          hintmask 00100010
          233 312 -84 callgsubr
        </CharString>
        <CharString name="Lslash">
          -27 0 48 -48 66 310 110 callsubr
          349 50 hstemhm
          34 180 -71 185 150 67 hintmask 0001010000000000
          358 442 rmoveto
          hintmask 0010000000000000
          -45 -38 -3 -77 hhcurveto
          hintmask 0001100000000000
          -48 -56 2 -27 hhcurveto
          -22 -10 -19 -13 hvcurveto
          hintmask 0010000000000000
          -13 15 -20 17 vhcurveto
          hintmask 0001010000000000
          66 139 1 74 hhcurveto
          29 8 24 11 14 -13 16 -12 hvcurveto
          hintmask 1000001101000000
          -289 -394 -78 callsubr
          hintmask 0100001101000000
          -18 callsubr
          hintmask 1000001011000000
          -80 callsubr
          endchar
        </CharString>
        <CharString name="M">
          439 -41 51 -17 -21 28 51 750 -20 hstemhm
          54 157 -74 204 373 139 -71 71 -71 218 hintmask 1001011000000000
          998 733 rmoveto
          20 5 18 -3 23 vvcurveto
          23 -24 0 -21 vhcurveto
          -148 hlineto
          -74 8 -5 -37 -20 hvcurveto
          -53 -144 -129 -373 -57 -148 -48 149 -184 417 -35 121 rrcurveto
          36 -11 -7 4 -19 hhcurveto
          -125 hlineto
          -39 -19 -3 -23 hvcurveto
          -42 106 39 -60 -108 3 -107 -114 vvcurveto
          -100 -2 -99 -7 -90 vhcurveto
          -46 -33 0 -15 vhcurveto
          hintmask 0111101000000000
          -12 -17 -2 -23 -20 23 -3 18 hvcurveto
          226 hlineto
          hintmask 0111011000000000
          13 7 11 12 23 -15 5 -15 hvcurveto
          hintmask 0111100100000000
          -100 599 hlineto
          44 -124 158 -357 55 -153 rrcurveto
          -14 5 14 -30 28 hhcurveto
          20 12 12 23 8 hvcurveto
          28 80 104 277 95 268 rrcurveto
          -579 vlineto
          -46 -25 0 -14 vhcurveto
          hintmask 1001101000000000
          -12 -17 -2 -20 -22 23 -4 18 hvcurveto
          225 hlineto
          hintmask 1001100010000000
          13 7 10 16 20 -15 5 -15 hvcurveto
          -112 hlineto
          hintmask 1001101000000000
          56 -5 200 114 147 4 94 57 vvcurveto
          21 2 23 29 3 vhcurveto
          41 4 28 0 41 4 rrcurveto
          endchar
        </CharString>
        <CharString name="N">
          230 0 51 -41 -21 765 50 17 128 callsubr
          176 61 callgsubr
          hintmask 0110100100000000
          -11 callgsubr
          hintmask 1010100001000000
          -4 callgsubr
          hintmask 1010100100000000
          21 callsubr
          hintmask 1001100010000000
          -63 callgsubr
          hintmask 1010100100000000
          11 callgsubr
          hintmask 1010001100000000
          -44 callsubr
          hintmask 1010010100000000
          -4 callsubr
          hintmask 1010001100000000
          22 callgsubr
          hintmask 1010100100000000
          -100 657 hlineto
          endchar
        </CharString>
        <CharString name="NULL">
          -594 endchar
        </CharString>
        <CharString name="Nacute">
          57 callgsubr
          53 118 4 callgsubr
          10 138 28 61 callgsubr
          hintmask 0000100010000000
          491 -92 callgsubr
          hintmask 0110010001000000
          116 -935 -66 callgsubr
          endchar
        </CharString>
        <CharString name="Ncaron">
          57 callgsubr
          67 -21 125 128 callsubr
          176 61 callgsubr
          hintmask 0000110000000000
          532 -88 callsubr
          hintmask 0110001001000000
          75 -966 -61 callgsubr
          hintmask 1010001000010000
          -4 callgsubr
          hintmask 1010001001000000
          21 callsubr
          hintmask 1001001000100000
          -63 callgsubr
          hintmask 1010001001000000
          11 callgsubr
          hintmask 1010000011000000
          -44 callsubr
          hintmask 1010000101000000
          -4 callsubr
          hintmask 1010000011000000
          22 callgsubr
          hintmask 1010001001000000
          -100 657 hlineto
          endchar
        </CharString>
        <CharString name="Ncommaaccent">
          230 -230 176 54 51 -41 -21 765 50 17 128 callsubr
          41 -18 callgsubr
          26 61 callgsubr
          hintmask 0011010000010000
          -11 callgsubr
          hintmask 0101010000000100
          -4 callgsubr
          hintmask 0101010000010000
          21 callsubr
          hintmask 0100110000001000
          -63 callgsubr
          hintmask 0101010000010000
          11 callgsubr
          hintmask 0101000100010000
          -44 callsubr
          hintmask 0101001000010000
          -4 callsubr
          hintmask 0101000100010000
          22 callgsubr
          hintmask 0101010000010000
          -100 657 hlineto
          hintmask 1000000010000000
          171 -811 -48 callgsubr
        </CharString>
        <CharString name="Ndotaccent">
          57 callgsubr
          58 113 4 callgsubr
          23 105 48 61 callgsubr
          hintmask 0110010001000000
          607 6 -66 callgsubr
          hintmask 0000100010000000
          153 208 -84 callgsubr
        </CharString>
        <CharString name="Ntilde">
          57 callgsubr
          79 62 -42 -21 25 38 -38 66 2 128 callsubr
          176 61 callgsubr
          hintmask 0110000001001000
          -11 callgsubr
          hintmask 1010000001000010
          -4 callgsubr
          hintmask 1010000001001000
          21 callsubr
          hintmask 1001000001000100
          -63 callgsubr
          hintmask 1010000001001000
          11 callgsubr
          hintmask 1010000000011000
          -44 callsubr
          hintmask 1010000000101000
          -4 callsubr
          hintmask 1010000000011000
          22 callgsubr
          hintmask 1010000001001000
          -100 657 hlineto
          hintmask 0000011010000000
          40 216 -95 callsubr
          endchar
        </CharString>
        <CharString name="O">
          27 callsubr
          hstem
          37 75 484 75 vstem
          -78 callgsubr
          endchar
        </CharString>
        <CharString name="OE">
          534 -16 64 -48 48 -48 66 211 175 -64 174 37 222 -66 66 -44 61 hstemhm
          37 75 484 76 211 68 callgsubr
          hintmask 1001010011110000
          37 404 rmoveto
          -294 144 -126 162 129 78 63 112 49 vhcurveto
          -95 vlineto
          hintmask 0101010011101000
          -53 0 -11 58 vhcurveto
          33 40 2 81 94 36 -2 94 hhcurveto
          28 11 4 29 3 hvcurveto
          8 81 8 140 23 vvcurveto
          16 -2 24 -29 -23 -11 -17 -27 -1 vhcurveto
          -2 -47 -8 -92 -3 -31 rrcurveto
          hintmask 0010110011110000
          -34 -3 -20 -3 -20 hhcurveto
          -299 320 hlineto
          1 28 28 1 28 38 23 -1 18 hhcurveto
          40 8 -48 -30 hvcurveto
          hintmask 1001010011110000
          -17 7 -15 24 14 17 7 23 145 callsubr
          hintmask 1000110011110000
          14 -8 15 -24 -31 -1 -28 -4 -21 0 -54 -17 vhcurveto
          hintmask 1001001011110000
          -12 -58 -3 -38 hhcurveto
          -29 -27 2 1 -28 hvcurveto
          300 273 vlineto
          13 24 0 -48 hvcurveto
          -62 vlineto
          hintmask 1001010011110000
          -28 5 -18 29 26 7 17 35 vhcurveto
          134 vlineto
          28 -10 8 -18 vhcurveto
          -134 -11 -2 -112 -50 -33 2 -42 hhcurveto
          -44 0 -35 -36 -34 0 -19 1 -36 hvcurveto
          hintmask 1001000111110000
          75 -22 -67 102 -149 hhcurveto
          -216 -105 -230 -204 hvcurveto
          75 -4 rmoveto
          178 78 199 168 138 100 -166 -201 -240 -110 -122 126 callsubr
          -89 135 217 vhcurveto
          endchar
        </CharString>
        <CharString name="Oacute">
          27 callsubr
          16 118 hstemhm
          37 75 179 138 167 75 hintmask 00101000
          429 -92 callgsubr
          hintmask 11010100
          -317 -541 -106 callgsubr
          endchar
        </CharString>
        <CharString name="Obreve">
          27 callsubr
          27 45 -45 107 hstemhm
          37 75 127 116 callgsubr
          118 75 hintmask 11001001
          -78 callgsubr
          hintmask 00010010
          441 540 -38 callsubr
          hintmask 00100100
          -27 callgsubr
          hintmask 00010010
          -77 callsubr
        </CharString>
        <CharString name="Ocircumflex">
          27 callsubr
          30 13 callgsubr
          37 75 484 75 hintmask 00110000
          473 -93 callgsubr
          hintmask 11001100
          -361 -447 -106 callgsubr
          endchar
        </CharString>
        <CharString name="Odieresis">
          27 callsubr
          9 89 callgsubr
          37 75 95 105 102 105 77 75 hintmask 00010110
          207 916 rmoveto
          -102 callgsubr
          207 -12 rmoveto
          hintmask 00100110
          -102 callgsubr
          hintmask 11001001
          -302 -504 -106 callgsubr
          endchar
        </CharString>
        <CharString name="Ograve">
          27 callsubr
          16 118 hstemhm
          37 75 181 138 165 75 hintmask 00101000
          293 -44 callgsubr
          hintmask 11010100
          -181 -541 -106 callgsubr
          endchar
        </CharString>
        <CharString name="Ohungarumlaut">
          27 callsubr
          16 118 hstemhm
          37 75 109 138 22 138 77 75 hintmask 00101100
          359 -92 callgsubr
          160 hmoveto
          18 -12 13 -20 -30 -76 -68 -27 -13 10 -10 14 28 86 55 32 vhcurveto
          hintmask 11010010
          -407 -541 -106 callgsubr
          endchar
        </CharString>
        <CharString name="Omacron">
          27 callsubr
          47 -25 callsubr
          37 75 484 75 hintmask 11000011
          -78 callgsubr
          hintmask 00010100
          456 543 -33 callsubr
        </CharString>
        <CharString name="Oogonek">
          113 -169 43 110 64 -54 -20 803 61 hstemhm
          36 75 153 64 267 75 hintmask 01011010
          111 -89 callsubr
          hintmask 10100100
          301 -410 -99 callgsubr
        </CharString>
        <CharString name="Oslash">
          115 -16 64 -46 -21 796 61 -7 -20 hstemhm
          37 75 484 75 hintmask 10101100
          -78 callgsubr
          hintmask 01010000
          75 -386 -106 callsubr
          endchar
        </CharString>
        <CharString name="Oslashacute">
          115 -16 64 -46 -21 796 61 -7 -20 43 118 hstemhm
          37 75 199 138 147 75 hintmask 00001010
          449 -92 callgsubr
          hintmask 10100101
          -337 -541 -106 callgsubr
          hintmask 01010000
          75 -386 -106 callsubr
          endchar
        </CharString>
        <CharString name="Otilde">
          27 callsubr
          42 -47 callgsubr
          37 75 484 75 hintmask 1100000110000000
          -78 callgsubr
          hintmask 0001101000000000
          138 520 -86 callsubr
          endchar
        </CharString>
        <CharString name="P">
          30 0 51 288 64 354 64 -52 52 hstemhm
          139 72 -72 222 180 75 hintmask 11100110
          81 48 rmoveto
          -39 -3 -14 -11 -20 28 -3 33 hvcurveto
          216 hlineto
          35 10 8 17 19 -14 7 -29 hvcurveto
          hintmask 11011010
          -107 290 hlineto
          0 43 -2 23 149 190 64 192 166 -129 60 -162 vhcurveto
          -111 -48 -3 -96 hhcurveto
          -24 -4 -15 -9 -14 6 -11 22 hvcurveto
          14 hlineto
          43 6 -20 -20 hvcurveto
          -66 6 -107 -119 -154 -1 -41 -150 vvcurveto
          -25 -10 -19 -47 vhcurveto
          hintmask 11101010
          202 709 rmoveto
          82 176 -5 -160 -175 -203 -14 -62 -34 -31 2 0 hvcurveto
          345 vlineto
          4 23 24 3 25 hhcurveto
          endchar
        </CharString>
        <CharString name="Q">
          114 -114 62 -62 78 -62 146 -119 119 729 61 hstemhm
          37 75 484 75 hintmask 00101110
          188 -80 rmoveto
          -14 17 -4 16 vhcurveto
          hintmask 00011110
          19 48 27 49 hhcurveto
          hintmask 01001110
          38 53 -43 51 hhcurveto
          55 57 27 25 15 -7 11 -17 hvcurveto
          hintmask 10001110
          -28 -36 -16 -25 hhcurveto
          -30 -39 25 13 -35 hvcurveto
          132 15 165 108 299 vvcurveto
          231 -114 199 -201 -210 -109 -230 -204 -263 119 -128 135 -24 vhcurveto
          -48 -12 -55 -26 -31 vvcurveto
          -76 480 rmoveto
          178 80 199 168 138 98 -163 -204 vhcurveto
          hintmask 00101110
          -240 -105 -122 126 callsubr
          -94 135 217 vhcurveto
          endchar
        </CharString>
        <CharString name="R">
          97 -44 101 callgsubr
          hstemhm
          42 169 -71 198 203 75 hintmask 10101010
          541 588 -91 callsubr
          hintmask 01010110
          -52 callsubr
          hintmask 10101010
          88 callgsubr
          endchar
        </CharString>
        <CharString name="R.salt">
          106 -96 60 36 48 310 65 334 64 hstemhm
          43 169 -77 199 208 75 hintmask 11111010
          617 602 rmoveto
          170 -157 49 -175 vhcurveto
          -43 -73 -3 -58 hhcurveto
          -34 -34 -1 -23 -25 33 -4 9 hvcurveto
          hintmask 11110110
          36 13 -2 -40 1 hvcurveto
          2 -105 4 -188 -18 vvcurveto
          -18 -4 -243 -1 -59 vhcurveto
          -1 -42 -20 -1 -40 -1 rrcurveto
          -17 -21 -4 -21 -21 36 -2 17 139 callgsubr
          9 10 14 19 -16 7 -15 hvcurveto
          hintmask 11111010
          -91 308 hlineto
          214 34 -95 -72 6 hvcurveto
          -103 8 -27 -184 158 hhcurveto
          40 43 19 79 12 -1 26 -27 -22 -4 -22 -7 hvcurveto
          -17 -1 -10 -30 -24 hhcurveto
          -66 15 149 78 -7 hvcurveto
          -11 135 -73 34 -56 24 rrcurveto
          119 21 97 63 134 vvcurveto
          -75 -5 rmoveto
          -152 -169 -22 -119 vhcurveto
          -3 -37 2 -2 hhcurveto
          325 vlineto
          0 31 7 48 69 182 -15 -145 vhcurveto
          endchar
        </CharString>
        <CharString name="Racute">
          97 -44 101 callgsubr
          33 118 hstemhm
          42 169 -71 198 -95 138 160 75 hintmask 0000100100000000
          381 -92 callgsubr
          hintmask 1010010010000000
          160 -353 -91 callsubr
          hintmask 0101001010000000
          -52 callsubr
          hintmask 1010010010000000
          88 callgsubr
          endchar
        </CharString>
        <CharString name="Rcaron">
          97 -44 101 callgsubr
          61 callsubr
          42 169 -71 198 203 75 hintmask 0000110000000000
          445 -88 callsubr
          hintmask 1010001010000000
          96 -384 -91 callsubr
          hintmask 0101000110000000
          -52 callsubr
          hintmask 1010001010000000
          88 callgsubr
          endchar
        </CharString>
        <CharString name="Rcommaaccent">
          97 -228 176 8 101 callgsubr
          hstemhm
          42 169 -71 198 -37 -18 callgsubr
          131 75 hintmask 0101010000100000
          541 588 -91 callsubr
          hintmask 0010101000100000
          -52 callsubr
          hintmask 0101010000100000
          88 callgsubr
          hintmask 1000000100000000
          79 -438 rmoveto
          hintmask 1000000001000000
          -13 callgsubr
          hintmask 1000000010000000
          -98 callsubr
          hintmask 1000000100000000
          -30 callgsubr
        </CharString>
        <CharString name="S">
          19 -16 138 callsubr
          360 71 -50 70 hintmask 10101100
          110 85 -69 callsubr
          hintmask 10011010
          -74 callgsubr
          hintmask 10101100
          -90 callgsubr
          hintmask 01101100
          -14 callsubr
          endchar
        </CharString>
        <CharString name="Sacute">
          19 -16 55 callsubr
          43 118 hstemhm
          54 71 128 138 94 71 -50 70 hintmask 0000101000000000
          391 -92 callgsubr
          hintmask 1010010100000000
          -281 -856 -69 callsubr
          hintmask 1001010010000000
          -74 callgsubr
          hintmask 1010010100000000
          -90 callgsubr
          hintmask 0110010100000000
          -14 callsubr
          endchar
        </CharString>
        <CharString name="Scaron">
          53 callsubr
          -88 callsubr
          hintmask 1010001100000000
          -322 -887 -69 callsubr
          hintmask 1001001010000000
          -74 callgsubr
          hintmask 1010001100000000
          -90 callgsubr
          hintmask 0110001100000000
          -14 callsubr
          endchar
        </CharString>
        <CharString name="Schwa">
          65 -11 63 263 68 391 63 hstemhm
          28 77 -63 79 425 75 hintmask 11101100
          535 319 rmoveto
          -117 -20 -63 -150 -139 hhcurveto
          -118 -74 144 83 20 4 13 20 hvcurveto
          398 71 rmoveto
          -51 -160 -2 -45 hhcurveto
          -74 -75 0 -2 -47 hvcurveto
          -34 -1 -15 -44 -44 vvcurveto
          -93 70 -208 192 182 135 179 257 233 -99 179 -214 vhcurveto
          hintmask 11110100
          -143 -137 -118 -160 -19 13 -22 25 26 13 22 19 113 108 102 98 151 84 -184 -151 -16 -2 -21 -1 -19 hvcurveto
          endchar
        </CharString>
        <CharString name="Scircumflex">
          53 callsubr
          -93 callgsubr
          hintmask 1010001100000000
          -322 -762 -69 callsubr
          hintmask 1001001010000000
          -74 callgsubr
          hintmask 1010001100000000
          -90 callgsubr
          hintmask 0110001100000000
          -14 callsubr
          endchar
        </CharString>
        <CharString name="T">
          41 0 51 704 128 callgsubr
          hintmask 11101100
          276 755 -6 callsubr
          hintmask 11110100
          25 callsubr
          hintmask 11101100
          60 callsubr
          hintmask 11110100
          -93 callsubr
          endchar
        </CharString>
        <CharString name="Tbar">
          41 0 51 351 66 -44 -21 67 -20 21 -20 304 128 callgsubr
          hintmask 0010100000000000
          456 471 rmoveto
          hintmask 0100000000000000
          -32 -51 -3 -55 hhcurveto
          hintmask 0011000000000000
          -34 -78 2 -19 hhcurveto
          -18 -8 -21 -13 hvcurveto
          hintmask 0100000000000000
          -13 11 -21 15 vhcurveto
          hintmask 0010100000000000
          47 161 1 53 hhcurveto
          23 6 26 10 13 -11 19 -10 hvcurveto
          hintmask 1000011011000000
          -180 284 -6 callsubr
          hintmask 1000011101000000
          25 callsubr
          hintmask 1000011011000000
          60 callsubr
          hintmask 1000011101000000
          -93 callsubr
          endchar
        </CharString>
        <CharString name="Tcaron">
          41 0 51 704 66 47 -21 125 -20 141 callgsubr
          hintmask 00110000
          430 -88 callsubr
          hintmask 11001011
          -154 -217 -6 callsubr
          hintmask 11001101
          25 callsubr
          hintmask 11001011
          60 callsubr
          hintmask 11001101
          -93 callsubr
          endchar
        </CharString>
        <CharString name="Thorn">
          39 0 51 131 64 339 64 121 51 hstemhm
          39 172 -72 189 -189 222 180 75 hintmask 11111001
          91 48 rmoveto
          -39 -13 -9 -15 -19 20 -5 51 hvcurveto
          196 hlineto
          hintmask 11110011
          32 23 0 25 20 -24 6 -29 hvcurveto
          hintmask 11111001
          -97 133 hlineto
          0 43 -2 23 149 190 60 181 166 -129 60 -162 -49 -34 0 -1 -32 vhcurveto
          92 vlineto
          31 41 0 25 vhcurveto
          hintmask 11110101
          19 33 1 25 22 -30 2 -20 hvcurveto
          -33 -119 -2 -46 hhcurveto
          -24 -14 -9 -17 -13 9 -10 29 hvcurveto
          4 hlineto
          43 6 -20 -20 hvcurveto
          -66 6 -149 -120 -153 -1 -1 -149 vvcurveto
          -14 0 -30 -47 vhcurveto
          192 537 rmoveto
          82 176 -5 -160 -161 -203 -13 -62 hvcurveto
          hintmask 11111001
          -34 -31 2 0 hvcurveto
          330 vlineto
          4 23 24 3 25 hhcurveto
          endchar
        </CharString>
        <CharString name="U">
          -9 callsubr
          43 callsubr
          hintmask 1111001000000000
          104 callgsubr
          hintmask 1110011000000000
          -40 callgsubr
          hintmask 1111001000000000
          -46 callsubr
          hintmask 1110101000000000
          -101 callgsubr
          hintmask 1111000010000000
          -40 callsubr
          hintmask 1111001000000000
          -17 callsubr
          hintmask 1111000100000000
          -14 callgsubr
        </CharString>
        <CharString name="Uacute">
          -9 callsubr
          33 118 1 callgsubr
          27 138 15 7 callgsubr
          hintmask 0001000100000000
          466 -92 callgsubr
          hintmask 1110100010000000
          -282 -57 callsubr
        </CharString>
        <CharString name="Ubreve">
          -9 callsubr
          44 45 -45 107 1 callgsubr
          -21 116 callgsubr
          -38 7 callgsubr
          hintmask 1110010000100000
          184 746 -55 callgsubr
          hintmask 0000100001000000
          335 621 -38 callsubr
          hintmask 0001000010000000
          -27 callgsubr
          hintmask 0000100001000000
          -77 callsubr
        </CharString>
        <CharString name="Ucircumflex">
          -9 callsubr
          47 -21 125 93 callsubr
          hintmask 0001100000000000
          512 -93 callgsubr
          hintmask 1110010010000000
          -328 -101 28 callsubr
          hintmask 1110000110000000
          -40 callgsubr
          hintmask 1110010010000000
          -46 callsubr
          hintmask 1110001010000000
          -101 callgsubr
          hintmask 1110010000100000
          -40 callsubr
          hintmask 1110010010000000
          -17 callsubr
          hintmask 1110010001000000
          -14 callgsubr
        </CharString>
        <CharString name="Udieresis">
          -9 callsubr
          26 113 -101 113 1 callgsubr
          -61 105 102 105 -71 7 callgsubr
          hintmask 0000100011000000
          240 916 rmoveto
          -102 callgsubr
          207 -12 rmoveto
          hintmask 0001000011000000
          -102 callgsubr
          hintmask 1110010000100000
          -263 -158 -55 callgsubr
          endchar
        </CharString>
        <CharString name="Ugrave">
          -9 callsubr
          33 118 1 callgsubr
          24 138 18 7 callgsubr
          hintmask 0001000100000000
          325 -44 callgsubr
          hintmask 1110100010000000
          -141 -57 callsubr
        </CharString>
        <CharString name="Uhungarumlaut">
          -9 callsubr
          33 118 1 callgsubr
          -57 138 33 138 -72 7 callgsubr
          hintmask 0001000110000000
          382 -92 callgsubr
          171 hmoveto
          18 -12 13 -20 -30 -76 -68 -27 -13 10 -10 14 28 86 55 32 vhcurveto
          hintmask 1110100001000000
          -369 -195 -56 callsubr
          endchar
        </CharString>
        <CharString name="Umacron">
          -9 callsubr
          59 59 -37 -21 60 -20 21 93 callsubr
          hintmask 1110000100100000
          104 callgsubr
          hintmask 1110000001100000
          -40 callgsubr
          hintmask 1110000100100000
          -46 callsubr
          hintmask 1110000010100000
          -101 callgsubr
          hintmask 1110000100001000
          -40 callsubr
          hintmask 1110000100100000
          -17 callsubr
          hintmask 1110000100010000
          -83 callsubr
          hintmask 0000101000000000
          353 619 91 callsubr
          -16 -14 hvcurveto
          hintmask 0001000000000000
          12 callsubr
          hintmask 0000101000000000
          47 141 -63 callsubr
          endchar
        </CharString>
        <CharString name="Uogonek">
          179 -149 43 92 62 -34 -20 723 50 4 50 hstemhm
          17 168 -69 69 -69 186 -13 64 129 7 callgsubr
          hintmask 0101110001000000
          185 100 callgsubr
          hintmask 0101100101000000
          -40 callgsubr
          hintmask 0101110001000000
          -46 callsubr
          hintmask 0101101001000000
          -101 callgsubr
          hintmask 0101110000010000
          -40 callsubr
          hintmask 0101110001000000
          -17 callsubr
          hintmask 0101110000100000
          -83 callsubr
          hintmask 1010000010000000
          177 -309 -99 callgsubr
        </CharString>
        <CharString name="Uring">
          -9 callsubr
          12 139 1 callgsubr
          26 45 52 45 12 7 callgsubr
          hintmask 1110100001000000
          184 746 -56 callsubr
          hintmask 0001000110000000
          285 581 -62 callgsubr
        </CharString>
        <CharString name="Utilde">
          -9 callsubr
          59 62 -42 -21 25 38 -38 66 2 93 callsubr
          hintmask 1110000010010000
          104 callgsubr
          hintmask 1110000000110000
          -40 callgsubr
          hintmask 1110000010010000
          -46 callsubr
          hintmask 1110000001010000
          -101 callgsubr
          hintmask 1110000010000100
          -40 callsubr
          hintmask 1110000010010000
          -17 callsubr
          hintmask 1110000010001000
          -83 callsubr
          hintmask 0000110100000000
          45 601 -85 callgsubr
          hintmask 0001000100000000
          -103 callsubr
          hintmask 0000101000000000
          -41 -56 28 -40 hhcurveto
          hintmask 0001000100000000
          65 callgsubr
        </CharString>
        <CharString name="V">
          93 -13 -21 755 45 9 46 hstem
          -23 197 335 235 vstem
          347 99 rmoveto
          0 -173 607 45 38 96 -30 42 vvcurveto
          15 -7 5 -24 vhcurveto
          -217 hlineto
          -23 -22 -1 -19 -22 27 -4 19 45 23 -5 -27 5 hvcurveto
          212 -752 rlineto
          -17 5 16 -8 16 hhcurveto
          21 10 15 10 3 hvcurveto
          41 135 104 379 62 172 9 24 11 11 29 3 10 1 41 4 28 1 rrcurveto
          13 17 3 18 20 -10 4 -23 hvcurveto
          -243 hlineto
          -26 -13 -6 -19 -22 26 -2 13 hvcurveto
          17 -1 24 3 -18 vvcurveto
          -53 -162 -549 0 vhcurveto
          endchar
        </CharString>
        <CharString name="W">
          39 callgsubr
          hstem
          -31 204 763 234 vstem
          936 681 -107 callsubr
        </CharString>
        <CharString name="Wacute">
          39 callgsubr
          33 118 hstemhm
          -31 204 323 138 302 234 hintmask 00001010
          634 -92 callgsubr
          hintmask 11110101
          302 -260 -107 callsubr
        </CharString>
        <CharString name="Wcircumflex">
          39 callgsubr
          61 callsubr
          -31 204 763 234 hintmask 00001100
          694 -93 callgsubr
          hintmask 11110011
          242 -166 -107 callsubr
        </CharString>
        <CharString name="Wdieresis">
          39 callgsubr
          26 89 callgsubr
          -31 204 252 105 102 105 199 234 hintmask 0000010110000000
          425 14 callsubr
          304 -223 -107 callsubr
        </CharString>
        <CharString name="Wgrave">
          39 callgsubr
          33 118 hstemhm
          -31 204 339 138 286 234 hintmask 00001010
          512 -44 callgsubr
          hintmask 11110101
          424 -260 -107 callsubr
        </CharString>
        <CharString name="X">
          91 -37 46 -9 49 704 46 -27 49 hstemhm
          -16 212 -190 190 262 219 -191 231 hintmask 10100110
          203 734 rmoveto
          26 92 -19 36 vvcurveto
          17 -7 5 -24 vhcurveto
          -223 hlineto
          -23 -12 -7 -15 -20 17 -4 19 46 31 -8 -24 13 hvcurveto
          157 -307 -160 -325 -13 -23 -8 -12 -28 -3 rlinecurve
          -7 -1 -40 -4 -19 -1 rrcurveto
          hintmask 01101001
          -13 -17 -6 -15 -18 21 -6 12 hvcurveto
          244 hlineto
          26 8 9 16 18 -15 5 -19 1 hvcurveto
          -30 2 -35 -4 18 17 129 257 2 0 161 -298 -21 -17 -67 15 -35 vvcurveto
          hintmask 10101010
          -16 7 -6 24 vhcurveto
          227 hlineto
          hintmask 10101001
          23 17 5 17 19 -16 5 -25 -63 -46 5 27 -14 hvcurveto
          -195 373 167 318 12 23 8 12 29 3 rlinecurve
          10 1 35 1 28 4 rrcurveto
          hintmask 10101010
          14 2 16 7 14 vvcurveto
          hintmask 10011010
          18 -15 4 -18 vhcurveto
          -223 hlineto
          -26 -8 -7 -16 -18 16 -8 18 29 8 0 -16 -21 -104 -184 -30 -66 hvcurveto
          0 -121 229 20 vvcurveto
          endchar
        </CharString>
        <CharString name="Y">
          55 callgsubr
          hstemhm
          -29 44 callsubr
          hintmask 10110101
          188 743 -89 callgsubr
          hintmask 11011001
          -5 callsubr
          hintmask 11010010
          22 callsubr
          hintmask 11011001
          -101 callsubr
          endchar
        </CharString>
        <CharString name="Yacute">
          41 callsubr
          407 -92 callgsubr
          hintmask 1010100101000000
          -219 -198 -89 callgsubr
          hintmask 1100110001000000
          -5 callsubr
          hintmask 1100100010000000
          22 callsubr
          hintmask 1100110001000000
          -101 callsubr
          endchar
        </CharString>
        <CharString name="Ycircumflex">
          55 callgsubr
          55 13 callgsubr
          -29 44 callsubr
          hintmask 0001100000000000
          466 -93 callgsubr
          hintmask 1010010101000000
          -278 -104 -89 callgsubr
          hintmask 1100011001000000
          -5 callsubr
          hintmask 1100010010000000
          22 callsubr
          hintmask 1100011001000000
          -101 callsubr
          endchar
        </CharString>
        <CharString name="Ydieresis">
          55 callgsubr
          34 89 callgsubr
          -29 217 -7 105 -86 165 -72 72 -72 193 -98 105 -20 234 hintmask 0000101000100000
          181 916 rmoveto
          -102 callgsubr
          207 -12 rmoveto
          hintmask 0001001000100000
          -102 callgsubr
          hintmask 1010010010010000
          -200 -161 -89 callgsubr
          hintmask 1100010100010000
          -5 callsubr
          hintmask 1100010001000000
          22 callsubr
          hintmask 1100010100010000
          -101 callsubr
          endchar
        </CharString>
        <CharString name="Ygrave">
          41 callsubr
          269 -44 callgsubr
          hintmask 1010100101000000
          -81 -198 -89 callgsubr
          hintmask 1100110001000000
          -5 callsubr
          hintmask 1100100010000000
          22 callsubr
          hintmask 1100110001000000
          -101 callsubr
          endchar
        </CharString>
        <CharString name="Ytilde">
          55 callgsubr
          67 -47 callgsubr
          -29 44 callsubr
          hintmask 1010000010101000
          188 743 -89 callgsubr
          hintmask 1100000011001000
          -5 callsubr
          hintmask 1100000010010000
          22 callsubr
          hintmask 1100000011001000
          -101 callsubr
          hintmask 0000110100000000
          -22 181 -85 callgsubr
          hintmask 0001000100000000
          -103 callsubr
          hintmask 0000101000000000
          -41 -56 28 -40 hhcurveto
          hintmask 0001000100000000
          65 callgsubr
        </CharString>
        <CharString name="Z">
          70 callgsubr
          hstemhm
          51 67 421 66 hintmask 10011100
          605 281 -60 callsubr
          hintmask 10101100
          -68 -68 -2 -68 hhcurveto
          hintmask 10011100
          -36 callgsubr
          hintmask 10101100
          -32 callgsubr
          hintmask 01101100
          77 77 1 77 hhcurveto
          hintmask 10101100
          99 callsubr
        </CharString>
        <CharString name="Zacute">
          70 callgsubr
          53 118 hstemhm
          51 67 144 138 139 66 hintmask 00001010
          400 -92 callgsubr
          hintmask 10010101
          205 -660 -62 callsubr
          endchar
        </CharString>
        <CharString name="Zcaron">
          70 callgsubr
          67 13 callgsubr
          51 67 421 66 hintmask 00001100
          444 -88 callsubr
          hintmask 10010011
          161 -691 -60 callsubr
          hintmask 10100011
          -68 -68 -2 -68 hhcurveto
          hintmask 10010011
          -36 callgsubr
          hintmask 10100011
          -32 callgsubr
          hintmask 01100011
          77 77 1 77 hhcurveto
          hintmask 10100011
          99 callsubr
        </CharString>
        <CharString name="Zdotaccent">
          70 callgsubr
          58 113 hstemhm
          51 67 164 105 152 66 hintmask 10010101
          605 281 -62 callsubr
          hintmask 00001010
          -323 635 -84 callgsubr
        </CharString>
        <CharString name="a">
          -35 callgsubr
          45 callgsubr
          hintmask 1011010001000000
          -56 callgsubr
          hintmask 0111010010000000
          -26 callsubr
          hintmask 1011000110000000
          -98 callgsubr
          hintmask 1010101010000000
          -71 callgsubr
          hintmask 1011010010000000
          -76 callsubr
          endchar
        </CharString>
        <CharString name="a.salt">
          -90 -11 58 -58 109 87 58 36 196 -58 58 10 -20 hstemhm
          26 70 -40 62 218 63 -63 175 hintmask 1011001001000000
          335 215 rmoveto
          19 -33 -44 9 -39 hhcurveto
          -121 -72 -58 -79 -70 63 -47 119 51 48 11 36 30 hvcurveto
          -32 17 27 -15 51 hhcurveto
          50 29 19 64 hvcurveto
          hintmask 0111000110000000
          7 -6 19 -20 -21 -6 -15 -7 -22 -10 -6 -15 -17 -17 13 56 vhcurveto
          54 3 80 36 vvcurveto
          129 -47 59 -105 -54 -51 -17 -46 -31 vhcurveto
          1 8 3 16 12 vvcurveto
          hintmask 1010010110000000
          15 -7 22 -22 -30 -3 -22 -14 vhcurveto
          -79 1 -42 -15 vvcurveto
          hintmask 1011000110000000
          -11 4 -23 30 23 4 19 14 vhcurveto
          hintmask 1010101010000000
          63 32 42 83 54 49 -50 -80 -26 -1 -46 0 vhcurveto
          -239 -108 rmoveto
          45 48 33 75 58 58 -30 -38 -37 -48 -33 -75 -67 -49 24 36 vhcurveto
          endchar
        </CharString>
        <CharString name="aacute">
          -35 callgsubr
          33 166 45 callgsubr
          hintmask 0000010000000000
          320 623 rmoveto
          -91 callgsubr
          hintmask 1011001000100000
          12 -426 -94 callsubr
          hintmask 0111001001000000
          -26 callsubr
          hintmask 1011000011000000
          -98 callgsubr
          hintmask 1010100101000000
          -71 callgsubr
          hintmask 1011001001000000
          -76 callsubr
          endchar
        </CharString>
        <CharString name="abreve">
          -35 callgsubr
          48 45 -45 107 49 callgsubr
          -49 116 callgsubr
          -13 67 -67 157 hintmask 1011000100000100
          -56 callgsubr
          hintmask 0111000100001000
          -26 callsubr
          hintmask 1011000001001000
          -98 callgsubr
          hintmask 1010100010001000
          -71 callgsubr
          hintmask 1011000100001000
          -76 callsubr
          hintmask 0000001000010000
          250 481 -38 callsubr
          hintmask 0000010000100000
          -27 callgsubr
          hintmask 0000001000010000
          -77 callsubr
        </CharString>
        <CharString name="acircumflex">
          -35 callgsubr
          69 -21 145 -20 45 callgsubr
          hintmask 1011000100010000
          -56 callgsubr
          hintmask 0111000100100000
          -26 callsubr
          hintmask 1011000001100000
          -98 callgsubr
          hintmask 1010100010100000
          -71 callgsubr
          hintmask 1011000100100000
          -76 callsubr
          hintmask 0000011000000000
          247 402 -97 callgsubr
        </CharString>
        <CharString name="acute">
          -440 524 -21 183 -20 hstem
          146 656 rmoveto
          -7 callgsubr
          endchar
        </CharString>
        <CharString name="adieresis">
          -35 callgsubr
          33 113 -90 113 49 callgsubr
          -83 105 102 105 -52 67 -67 157 hintmask 1011000100000100
          -56 callgsubr
          hintmask 0111000100001000
          -26 callsubr
          hintmask 1011000001001000
          -98 callgsubr
          hintmask 1010100010001000
          -71 callgsubr
          hintmask 1011000100001000
          -76 callsubr
          hintmask 0000001000110000
          -23 467 rmoveto
          -102 callgsubr
          207 -23 rmoveto
          hintmask 0000010000110000
          -102 callgsubr
          endchar
        </CharString>
        <CharString name="ae">
          89 callsubr
          120 callgsubr
          hintmask 1001000110011000
          410 244 52 callgsubr
          hintmask 1010100000111000
          69 callgsubr
          hintmask 1010010001011000
          64 callsubr
          hintmask 1010100010011000
          63 callgsubr
          hintmask 0101010010011000
          146 callsubr
          hintmask 1001010010011000
          82 callsubr
          hintmask 1010001010011000
          32 callsubr
        </CharString>
        <CharString name="aeacute">
          89 callsubr
          18 166 120 callgsubr
          hintmask 0000000010000000
          458 623 rmoveto
          -91 callgsubr
          hintmask 1001000101001100
          -48 -379 52 callgsubr
          hintmask 1010100000011100
          69 callgsubr
          hintmask 1010010000101100
          64 callsubr
          hintmask 1010100001001100
          63 callgsubr
          hintmask 0101010001001100
          146 callsubr
          hintmask 1001010001001100
          82 callsubr
          hintmask 1010001001001100
          32 callsubr
        </CharString>
        <CharString name="agrave">
          -35 callgsubr
          33 166 45 callgsubr
          hintmask 0000010000000000
          160 623 -42 callsubr
          hintmask 1011001000100000
          172 -426 -94 callsubr
          hintmask 0111001001000000
          -26 callsubr
          hintmask 1011000011000000
          -98 callgsubr
          hintmask 1010100101000000
          -71 callgsubr
          hintmask 1011001001000000
          -76 callsubr
          endchar
        </CharString>
        <CharString name="amacron">
          -35 callgsubr
          64 59 -37 -21 60 -20 21 -20 45 callgsubr
          hintmask 1011000001000100
          -56 callgsubr
          hintmask 0111000001001000
          -26 callsubr
          hintmask 1011000000011000
          -98 callgsubr
          hintmask 1010100000101000
          -71 callgsubr
          hintmask 1011000001001000
          -76 callsubr
          hintmask 0000001010000000
          267 480 rmoveto
          hintmask 0000010000000000
          6 callgsubr
          hintmask 0000001100000000
          -34 -68 -27 callsubr
          hintmask 0000010000000000
          12 callsubr
          hintmask 0000001010000000
          47 141 -63 callsubr
          endchar
        </CharString>
        <CharString name="ampersand">
          144 -9 42 -42 61 -50 -21 368 110 -57 57 318 61 hstemhm
          31 75 32 75 153 74 -35 35 73 57 hintmask 1001011110100000
          446 349 rmoveto
          hintmask 1000111101100000
          49 -29 53 23 hhcurveto
          11 13 -12 -54 -55 -18 -51 -24 -44 hvcurveto
          -56 81 -80 100 -43 93 rrcurveto
          60 58 88 86 110 vvcurveto
          97 -69 27 -61 -92 -80 -60 -102 -64 31 -71 37 -72 vhcurveto
          -58 -44 -117 -98 -141 vvcurveto
          -151 133 -44 95 83 66 34 65 61 vhcurveto
          hintmask 0011011110100000
          -55 46 39 -54 34 hhcurveto
          149 26 4 23 hvcurveto
          hintmask 1001011101100000
          23 -26 1 -50 1 vhcurveto
          -63 1 -12 -2 -13 5 -18 7 -27 33 -46 63 rrcurveto
          30 55 32 67 80 vvcurveto
          95 -46 22 -43 -52 -24 -32 -35 -17 6 -26 35 vhcurveto
          -209 65 rmoveto
          74 -130 50 -75 64 -78 rrcurveto
          hintmask 0101011110100000
          -33 -26 -51 -46 -88 hhcurveto
          -55 -99 17 124 91 53 57 78 73 hvcurveto
          129 290 rmoveto
          -82 -73 -57 -37 -44 vhcurveto
          -25 55 -18 51 47 vvcurveto
          63 32 40 55 52 14 -37 -36 vhcurveto
          endchar
        </CharString>
        <CharString name="aogonek">
          -164 43 110 60 -60 109 -99 -20 204 60 26 193 -60 60 45 callgsubr
          -151 64 hintmask 0100110100010000
          -56 callgsubr
          hintmask 0010110100100000
          -26 callsubr
          hintmask 0100110001100000
          -98 callgsubr
          hintmask 0100101010100000
          -71 callgsubr
          hintmask 0100110100100000
          -76 callsubr
          hintmask 1001000000001000
          316 -109 -99 callgsubr
        </CharString>
        <CharString name="apostrophe">
          -270 648 203 hstem
          162 851 81 callgsubr
        </CharString>
        <CharString name="aring">
          -35 callgsubr
          48 139 49 callgsubr
          4 45 52 45 31 67 -67 157 hintmask 1011001000001000
          -56 callgsubr
          hintmask 0111001000010000
          -26 callsubr
          hintmask 1011000010010000
          -98 callgsubr
          hintmask 1010100100010000
          -71 callgsubr
          hintmask 1011001000010000
          -76 callsubr
          hintmask 0000010001100000
          206 473 -62 callgsubr
        </CharString>
        <CharString name="aringacute">
          -35 callgsubr
          48 139 27 145 49 callgsubr
          4 45 52 45 31 67 -67 157 hintmask 0000001000000000
          316 783 rmoveto
          23 -9 15 -30 -38 -67 -118 -9 -13 14 -5 11 29 90 78 29 vhcurveto
          hintmask 1011000100000100
          16 -586 -94 callsubr
          hintmask 0111000100001000
          -26 callsubr
          hintmask 1011000001001000
          -98 callgsubr
          hintmask 1010100010001000
          -71 callgsubr
          hintmask 1011000100001000
          -76 callsubr
          hintmask 0000010000110000
          206 473 -62 callgsubr
        </CharString>
        <CharString name="asciicircum">
          -279 531 120 callsubr
          hstem
          277 510 -97 callgsubr
        </CharString>
        <CharString name="asciitilde">
          -171 508 -47 callgsubr
          hintmask 01101000
          43 -24 callgsubr
        </CharString>
        <CharString name="asterisk">
          -230 570 152 -51 51 -51 157 hstemhm
          84 190 -190 203 hintmask 00110000
          248 828 rmoveto
          -22 -19 -52 -42 -25 hvcurveto
          57 -38 -12 37 -22 hhcurveto
          -16 -10 -6 -22 -17 24 -18 42 -47 hvcurveto
          hintmask 01001000
          4 -34 -21 0 -28 hhcurveto
          -24 -12 -14 -13 -20 22 -4 14 25 28 1 3 30 hvcurveto
          -22 -18 -44 -39 -23 vvcurveto
          hintmask 10001000
          -16 8 -9 20 24 41 79 9 4 vhcurveto
          -8 7 51 -80 22 hhcurveto
          13 13 6 17 34 -68 43 -4 5 hvcurveto
          hintmask 00110000
          -1 9 55 -3 29 hhcurveto
          12 13 8 16 15 -12 13 -14 -23 -49 -2 -3 -18 hvcurveto
          1 12 56 48 22 vvcurveto
          13 -6 15 -20 vhcurveto
          endchar
        </CharString>
        <CharString name="at">
          94 -84 62 71 60 230 60 -60 72 66 64 hstemhm
          43 66 62 72 179 64 98 63 hintmask 1101111110000000
          584 236 rmoveto
          -89 -38 -32 -26 -24 -10 7 34 vhcurveto
          28 -2 26 27 51 3 42 52 vvcurveto
          13 -12 16 -20 -17 -16 -11 -16 -8 1 -5 1 -11 vhcurveto
          hintmask 1110111110000000
          147 callgsubr
          -92 62 -74 91 49 34 22 26 21 hvcurveto
          -20 8 18 -23 45 hhcurveto
          78 70 49 134 hvcurveto
          164 -1 -106 140 -193 hhcurveto
          -176 -128 -132 -182 -184 131 -127 150 24 16 8 21 21 -11 12 -28 -121 -95 101 148 147 95 103 142 161 77 -109 -132 hvcurveto
          -162 -31 rmoveto
          -31 -20 -65 -73 -53 -33 38 69 76 42 47 51 58 28 -38 -58 vhcurveto
          endchar
        </CharString>
        <CharString name="atilde">
          -35 callgsubr
          46 62 -42 -21 25 38 -38 66 2 -20 45 callgsubr
          hintmask 0000001101000000
          66 36 callsubr
          hintmask 0000010001000000
          -103 callsubr
          hintmask 0000001010000000
          -41 -56 28 -40 hhcurveto
          hintmask 0000010001000000
          -70 callsubr
          hintmask 1011000000100010
          266 -355 -94 callsubr
          hintmask 0111000000100100
          -26 callsubr
          hintmask 1011000000001100
          -98 callgsubr
          hintmask 1010100000010100
          -71 callgsubr
          hintmask 1011000000100100
          -76 callsubr
          endchar
        </CharString>
        <CharString name="b">
          -77 -9 61 -43 -21 409 61 309 51 hstemhm
          -64 200 -70 70 277 73 hintmask 10111010
          136 782 rmoveto
          34 -14 2 -12 vhcurveto
          -90 hlineto
          -52 -32 -10 -19 -16 24 -6 22 hvcurveto
          38 hlineto
          29 16 -8 -19 hvcurveto
          hintmask 01110110
          -37 1 -107 -98 vvcurveto
          -301 -8 -42 -1 -131 vhcurveto
          -24 14 -12 19 33 1 16 64 4 vhcurveto
          hintmask 10111010
          18 callgsubr
          3 -129 rmoveto
          47 46 145 109 43 76 -41 -131 -139 -93 -34 -57 -81 -43 54 99 vhcurveto
          endchar
        </CharString>
        <CharString name="backslash">
          -64 2 -21 850 -20 hstem
          507 18 rmoveto
          -181 362 92 -194 -129 237 -125 230 29 -51 -84 172 rrcurveto
          41 -20 -12 16 -32 hhcurveto
          -24 -1 -16 -8 -10 9 -20 5 -9 hvcurveto
          405 -763 rlineto
          -14 7 16 -10 19 hhcurveto
          12 16 13 15 3 0 3 -2 3 hvcurveto
          endchar
        </CharString>
        <CharString name="bar">
          -352 -134 -21 1005 -20 hstem
          86 70 vstem
          156 802 rmoveto
          108 callgsubr
          1 -147 0 -177 -146 -147 -1 -186 -146 vvcurveto
          -14 16 -10 19 23 12 6 21 vhcurveto
          -2 143 0 184 143 143 2 173 144 vvcurveto
          endchar
        </CharString>
        <CharString name="braceleft">
          -260 -58 51 355 52 388 50 -3 -20 hstemhm
          121 72 -72 204 hintmask 11101000
          193 201 rmoveto
          0 -1 173 -111 111 1 205 0 vhcurveto
          174 vlineto
          6 0 26 53 3 vhcurveto
          51 6 rlineto
          hintmask 11100100
          15 3 13 4 15 vvcurveto
          20 -18 2 -11 vhcurveto
          hintmask 11011000
          -24 -54 -3 -18 hhcurveto
          -78 -2 -72 -16 hvcurveto
          -77 1 -55 -35 vvcurveto
          -180 -66 0 -15 -25 -17 -8 -18 -18 13 -8 23 15 74 -9 -139 vhcurveto
          -168 vlineto
          -79 26 -11 42 vhcurveto
          46 hlineto
          21 65 1 21 28 -54 1 -20 -47 -9 0 54 hvcurveto
          endchar
        </CharString>
        <CharString name="braceright">
          -260 -58 50 -47 20 415 52 355 51 hstemhm
          9 204 -72 72 hintmask 10110100
          141 579 rmoveto
          0 1 -173 111 -111 -1 -205 0 vhcurveto
          -174 vlineto
          -6 0 -26 -53 -3 vhcurveto
          -51 -6 rlineto
          hintmask 10111000
          -15 -3 -13 -4 -15 vvcurveto
          -20 18 -2 11 vhcurveto
          hintmask 01110100
          24 54 3 18 hhcurveto
          78 2 72 16 hvcurveto
          77 -1 55 35 vvcurveto
          180 66 0 15 25 17 8 18 18 -13 8 -23 -15 -74 9 139 vhcurveto
          168 vlineto
          79 -26 11 -42 vhcurveto
          -46 hlineto
          -21 -65 -1 -21 -28 54 -1 20 47 9 0 -54 hvcurveto
          endchar
        </CharString>
        <CharString name="bracketleft">
          151 callgsubr
          89 69 -69 219 hintmask 11001000
          106 835 rmoveto
          -11 -1 -10 -18 -16 vvcurveto
          4 -209 0 -16 -209 vvcurveto
          -65 0 -259 -1 -65 vhcurveto
          -28 7 -7 12 vhcurveto
          115 hlineto
          33 53 2 23 20 -40 6 -34 hvcurveto
          hintmask 10110000
          -49 -27 0 17 hvcurveto
          746 vlineto
          9 3 20 18 1 vhcurveto
          103 8 rlineto
          15 1 13 3 18 vvcurveto
          20 -18 2 -11 vhcurveto
          hintmask 11010000
          -22 -93 0 -3 -60 hvcurveto
          endchar
        </CharString>
        <CharString name="bracketright">
          151 callgsubr
          9 221 -69 69 hintmask 11010000
          213 835 rmoveto
          hintmask 10110000
          3 -60 -93 0 -22 hhcurveto
          -11 -18 -2 -20 -18 13 -3 15 -1 hvcurveto
          103 -8 rlineto
          hintmask 11001000
          18 -1 3 -20 -9 vvcurveto
          -746 vlineto
          -17 -27 0 -49 -34 -40 -6 -20 -23 53 -2 33 vhcurveto
          115 hlineto
          12 7 7 28 hvcurveto
          -1 65 0 259 65 vvcurveto
          209 0 16 4 209 vhcurveto
          16 -10 18 -11 1 vhcurveto
          endchar
        </CharString>
        <CharString name="breve">
          -345 510 45 -45 107 hstemhm
          -5 116 callgsubr
          hintmask 01010000
          234 589 -38 callsubr
          hintmask 10100000
          -27 callgsubr
          hintmask 01010000
          -77 callsubr
        </CharString>
        <CharString name="brokenbar">
          -353 -135 -21 1006 -20 hstem
          86 70 vstem
          156 817 rmoveto
          11 -12 22 -23 -11 -24 -14 -13 vhcurveto
          1 -69 0 -75 -69 -68 -1 -74 -68 vvcurveto
          -15 16 -5 18 21 15 7 17 vhcurveto
          67 -2 70 67 66 2 76 67 vvcurveto
          -2 -525 rmoveto
          8 -9 14 -24 -11 -24 -4 -15 vhcurveto
          -69 1 -73 -69 -68 -1 -73 -68 vvcurveto
          -22 16 -9 18 21 13 6 27 vhcurveto
          67 -2 71 67 66 2 77 67 vvcurveto
          endchar
        </CharString>
        <CharString name="bullet">
          -291 267 183 hstem
          67 170 vstem
          237 360 rmoveto
          48 -28 42 -54 -52 -36 -39 -53 -54 38 -37 45 41 46 31 62 vhcurveto
          endchar
        </CharString>
        <CharString name="c">
          59 callgsubr
          hstemhm
          29 77 274 64 hintmask 10111000
          382 428 -94 callgsubr
          hintmask 11011000
          -53 callsubr
          endchar
        </CharString>
        <CharString name="c.salt">
          -109 -6 60 -60 152 148 188 -58 58 hstemhm
          29 81 211 119 -91 91 hintmask 10011010
          420 128 rmoveto
          -44 -44 -50 -30 -67 hhcurveto
          -105 -44 68 103 118 58 81 111 53 17 -18 -15 hvcurveto
          hintmask 01101100
          124 callgsubr
          67 -80 48 -93 -141 -97 -113 -143 -129 78 -103 145 94 63 38 64 57 vhcurveto
          6 7 3 10 8 vvcurveto
          14 -8 11 -16 -10 -7 -4 -14 -14 vhcurveto
          endchar
        </CharString>
        <CharString name="c_h">
          363 -81 49 26 62 -62 156 -129 -21 369 59 -6 60 225 111 callsubr
          -19 184 -69 69 -69 158 34 183 -70 70 hintmask 1100101101001000
          894 293 rmoveto
          45 -6 -26 90 -130 hhcurveto
          -60 -48 -19 -52 -32 hvcurveto
          309 vlineto
          8 0 93 -114 vhcurveto
          hintmask 1010011110101000
          -75 -45 -41 -112 -67 16 -68 9 -37 hvcurveto
          2 -13 3 -6 1 -3 rrcurveto
          48 -35 -44 14 -46 hhcurveto
          -136 -10 callsubr
          6 -3 16 -23 -24 -10 -16 -6 -3 vhcurveto
          hintmask 1100011110011000
          34 callgsubr
          92 34 5 16 21 24 -9 -52 -23 1 -217 0 vhcurveto
          -90 -5 -165 -2 -59 vhcurveto
          -1 -30 -6 -7 -19 -3 rrcurveto
          hintmask 1001101101001000
          -55 -8 -27 -5 -20 vvcurveto
          -17 18 -2 20 vhcurveto
          25 34 3 30 31 47 -3 38 hhcurveto
          hintmask 1001101110010100
          11 19 7 17 23 -31 5 -21 hvcurveto
          -43 141 hlineto
          86 41 90 99 81 12 -60 -21 3 vhcurveto
          5 -38 1 -77 -41 vvcurveto
          -41 -1 -66 -2 -25 vhcurveto
          -2 -24 -9 -5 -24 -2 rrcurveto
          hintmask 1100101110101000
          -35 -3 -40 -4 -22 vvcurveto
          -16 19 -5 23 vhcurveto
          17 41 3 28 28 47 -3 17 hhcurveto
          23 18 5 16 23 -37 5 -27 hvcurveto
          -14 208 hlineto
          42 0 45 -4 30 vhcurveto
          endchar
        </CharString>
        <CharString name="c_k">
          350 -59 50 3 47 -47 62 -62 156 -133 -21 388 47 -9 60 225 111 callsubr
          14 151 -68 159 -23 237 hintmask 1000110111010000
          524 370 rmoveto
          76 callgsubr
          hintmask 1000110111101000
          -23 -4 -11 1 -23 vvcurveto
          hintmask 1100010111101000
          -18 21 -5 22 vhcurveto
          hintmask 1000110111101000
          144 callgsubr
          hintmask 1100010111010000
          50 18 -2 29 hhcurveto
          60 callgsubr
          hintmask 1100010111101000
          -49 117 callsubr
          135 1 28 1 23 vvcurveto
          22 -35 3 -31 -55 0 1 10 -11 vhcurveto
          -32 30 -72 134 -41 102 39 36 6 7 59 55 7 7 11 5 13 1 rrcurveto
          69 6 12 4 20 vvcurveto
          20 -29 2 -66 vhcurveto
          -59 hlineto
          -49 -34 -2 -22 -16 17 -7 14 hvcurveto
          4 hlineto
          7 2 -5 -5 -10 -34 -28 -78 -72 hvcurveto
          402 vlineto
          8 -3 93 -114 -71 -46 -41 -112 -67 16 -68 9 -37 vhcurveto
          2 -13 3 -6 1 -3 rrcurveto
          hintmask 1001001111101000
          48 -35 -44 14 -46 hhcurveto
          -136 -10 callsubr
          6 -3 16 -23 -24 -10 -16 -6 -3 vhcurveto
          hintmask 1010001111010000
          34 callgsubr
          89 34 8 16 21 23 -12 -49 1 vhcurveto
          2 -113 0 -71 -92 vvcurveto
          endchar
        </CharString>
        <CharString name="c_p">
          383 -202 48 143 60 -60 161 -135 -21 416 61 -49 49 11 -20 170 111 callsubr
          -18 182 -69 69 -69 160 190 74 hintmask 1100100111010100
          591 219 rmoveto
          121 66 70 79 89 47 -89 -94 -117 -72 -61 -79 -88 -42 74 96 vhcurveto
          -66 -64 rmoveto
          -53 -1 -99 -2 -89 vhcurveto
          -1 -60 -4 -4 -57 -6 rrcurveto
          hintmask 1100100110100100
          -19 -2 -32 1 -25 vvcurveto
          -17 15 -3 8 vhcurveto
          225 hlineto
          hintmask 1010010111001100
          12 13 7 14 19 -24 8 -31 hvcurveto
          -35 192 hlineto
          -24 15 49 -25 65 hhcurveto
          104 121 64 176 105 -43 137 -159 -75 -45 -31 -43 -32 hvcurveto
          194 vlineto
          4 0 97 -111 150 callsubr
          hintmask 1001001111010100
          34 -38 -32 12 -45 hhcurveto
          -137 -10 callsubr
          hintmask 1010010111010100
          6 -3 16 -23 -24 -10 -16 -6 -3 vhcurveto
          -25 -14 -27 19 callsubr
          -54 vlineto
          -18 3 -251 -93 vvcurveto
          endchar
        </CharString>
        <CharString name="c_t">
          189 -11 60 -60 158 -132 -21 428 60 -8 -20 24 -20 174 111 callsubr
          93 70 hintmask 0101001111000000
          518 165 rmoveto
          -36 2 -60 26 -39 vhcurveto
          -27 18 29 -14 44 hhcurveto
          96 39 90 38 11 -7 19 -18 -33 -1 -24 -21 -8 hvcurveto
          hintmask 1000011111000000
          -21 -8 -11 -32 -42 hhcurveto
          -47 -7 35 68 hvcurveto
          260 vlineto
          48 3 52 -1 48 6 rrcurveto
          12 2 15 9 18 vvcurveto
          21 -20 8 -16 vhcurveto
          hintmask 1000101111000000
          105 callgsubr
          101 vlineto
          70 -42 47 -70 150 callsubr
          hintmask 0011001111000000
          34 -38 -32 12 -45 hhcurveto
          -137 -10 callsubr
          6 -5 18 -23 -24 -11 -18 -6 -3 vhcurveto
          -25 -14 -24 19 callsubr
          endchar
        </CharString>
        <CharString name="cacute">
          59 callgsubr
          23 166 hstemhm
          29 77 274 64 hintmask 00010000
          364 633 rmoveto
          -91 callgsubr
          hintmask 10101100
          18 -205 -94 callgsubr
          hintmask 11001100
          -53 callsubr
          endchar
        </CharString>
        <CharString name="caron">
          -279 495 20 104 21 hstem
          277 640 -61 callsubr
          9 -3 8 -8 hvcurveto
          endchar
        </CharString>
        <CharString name="ccaron">
          59 callgsubr
          13 20 104 21 hstemhm
          29 77 274 64 hintmask 10100110
          382 428 -94 callgsubr
          hintmask 11000110
          -53 callsubr
          11 212 -61 callsubr
          hvcurveto
          hintmask 00011000
          9 -3 8 -8 vhcurveto
          endchar
        </CharString>
        <CharString name="ccedilla">
          -106 143 callgsubr
          34 62 -49 -20 301 223 -89 60 hstemhm
          29 77 124 194 -67 67 -44 64 hintmask 0001001100100000
          382 428 -94 callgsubr
          hintmask 0001010100100000
          -53 callsubr
          hintmask 1100100010000000
          -161 -421 36 callgsubr
          hintmask 1010100001000000
          67 callgsubr
          hintmask 1100100010000000
          4 callsubr
        </CharString>
        <CharString name="ccircumflex">
          59 callgsubr
          49 144 callsubr
          29 77 274 64 hintmask 10100110
          382 428 -94 callgsubr
          hintmask 11000110
          -53 callsubr
          hintmask 00011000
          3 82 -97 callgsubr
        </CharString>
        <CharString name="cdotaccent">
          59 callgsubr
          41 113 hstemhm
          29 77 113 105 56 64 hintmask 10101010
          382 428 -94 callgsubr
          hintmask 11001010
          -53 callsubr
          hintmask 00010100
          -163 152 -84 callgsubr
        </CharString>
        <CharString name="cedilla">
          -366 143 callgsubr
          47 -20 hstemhm
          14 194 -67 67 hintmask 11011000
          5 7 36 callgsubr
          hintmask 10110100
          67 callgsubr
          hintmask 11011000
          4 callsubr
        </CharString>
        <CharString name="cent">
          -102 43 -21 795 -20 hstemhm
          34 81 115 68 28 119 -91 91 hintmask 11110100
          405 289 rmoveto
          -31 -35 -34 -27 -42 -9 rrcurveto
          237 0 64 1 65 vhcurveto
          41 -3 14 -16 -13 vvcurveto
          hintmask 11111000
          124 callgsubr
          60 -65 45 -81 8 vhcurveto
          1 40 0 42 46 vvcurveto
          108 callgsubr
          -53 1 -47 -46 vvcurveto
          -119 -19 -78 -105 -128 vvcurveto
          -121 68 -98 128 -12 vhcurveto
          -100 vlineto
          -14 14 -20 21 25 10 16 21 vhcurveto
          99 vlineto
          62 11 46 35 43 53 rrcurveto
          6 7 3 10 8 vvcurveto
          14 -9 11 -15 -10 -8 -4 -14 -13 vhcurveto
          -175 -72 rmoveto
          -81 14 -34 64 91 vvcurveto
          97 39 73 77 22 vhcurveto
          -268 0 -46 -1 -47 vhcurveto
          endchar
        </CharString>
        <CharString name="circumflex">
          -279 531 120 callsubr
          hstem
          277 510 -97 callgsubr
        </CharString>
        <CharString name="colon">
          -361 -18 108 195 108 hstemhm
          58 117 hintmask 10100000
          58 35 rmoveto
          -77 callgsubr
          hintmask 01100000
          303 vmoveto
          94 callgsubr
        </CharString>
        <CharString name="comma">
          -392 -91 176 hstemhm
          46 -18 callgsubr
          hintmask 11000000
          46 36 rmoveto
          hintmask 10010000
          -13 callgsubr
          hintmask 10100000
          -98 callsubr
          hintmask 11000000
          -30 callgsubr
        </CharString>
        <CharString name="copyright">
          97 -67 62 70 59 -59 117 87 170 -84 60 -60 84 55 64 hstemhm
          43 66 62 72 341 63 hintmask 1010101111000000
          647 251 rmoveto
          167 -107 140 -188 -183 -126 -132 -182 -184 128 -127 158 143 175 104 214 vhcurveto
          -63 1 rmoveto
          -174 -137 -83 -116 -129 -93 101 148 147 92 103 149 153 81 -109 -133 vhcurveto
          -160 124 rmoveto
          147 callgsubr
          -93 58 -73 106 72 48 33 44 31 hvcurveto
          3 5 2 6 6 vvcurveto
          12 -8 11 -18 -16 -7 -8 -13 -10 vhcurveto
          hintmask 1100011111000000
          -34 -28 -39 -3 -18 hhcurveto
          -61 -43 36 76 72 38 47 68 47 17 -31 -35 9 hvcurveto
          hintmask 1101001111000000
          -12 3 8 -8 19 hhcurveto
          27 7 15 6 8 0 93 1 26 hvcurveto
          10 -12 12 -22 -21 -10 -12 -11 -13 1 -16 1 -11 vhcurveto
          endchar
        </CharString>
        <CharString name="currency">
          -34 196 -21 22 60 245 59 18 -20 hstemhm
          65 104 -73 73 214 73 -73 112 hintmask 11101010
          283 561 rmoveto
          -47 -43 -13 -26 -34 hvcurveto
          -14 16 -7 5 -2 4 rrcurveto
          hintmask 11011010
          23 -18 -12 9 -13 hhcurveto
          -18 -10 -15 -15 -13 34 -34 23 -23 hvcurveto
          hintmask 11100110
          -17 -27 -9 -33 -40 vvcurveto
          -43 10 -35 16 -27 vhcurveto
          hintmask 11101001
          -23 -22 -34 -35 -12 vvcurveto
          -15 10 -15 18 13 12 9 23 18 vhcurveto
          2 4 7 5 14 16 rrcurveto
          -24 32 39 -11 40 hhcurveto
          35 48 13 32 39 hvcurveto
          21 -24 5 -7 6 -4 rrcurveto
          -23 17 13 -9 13 hhcurveto
          14 14 15 15 14 -46 43 -21 21 hvcurveto
          hintmask 11101010
          17 26 11 33 41 vvcurveto
          35 -8 32 -14 26 vhcurveto
          hintmask 11011001
          23 22 38 38 13 vvcurveto
          15 -10 15 -18 -13 -12 -9 -23 -18 vhcurveto
          -3 -4 -6 -6 -16 -17 rrcurveto
          hintmask 11101010
          26 -30 -40 15 -46 hhcurveto
          -10 -59 rmoveto
          67 43 -47 -73 -90 -64 -35 -47 -43 -60 36 86 82 57 41 47 hvcurveto
          endchar
        </CharString>
        <CharString name="d">
          125 callsubr
          275 75 callgsubr
          hintmask 10111100
          465 57 -7 callsubr
          hintmask 01111010
          -25 callgsubr
          hintmask 10111001
          56 callgsubr
          hintmask 01111100
          -15 callsubr
          endchar
        </CharString>
        <CharString name="dagger">
          -252 7 -21 412 59 2 -20 21 -20 407 -20 hstemhm
          33 173 -70 70 -70 173 hintmask 10011100
          288 460 rmoveto
          hintmask 11001010
          -22 -28 -3 -34 hhcurveto
          122 2 95 128 vvcurveto
          16 -9 29 -25 -19 -17 -11 -18 vhcurveto
          1 -132 0 -101 -128 vvcurveto
          hintmask 10101100
          -28 -36 2 -14 hhcurveto
          -11 -15 -13 -17 hvcurveto
          hintmask 11001010
          -19 17 -12 9 vhcurveto
          78 hlineto
          -140 -1 -110 -139 vvcurveto
          -8 16 -15 19 23 12 13 13 vhcurveto
          -2 138 0 111 138 vvcurveto
          76 hlineto
          hintmask 10011001
          15 14 12 21 19 -16 9 -5 hvcurveto
          endchar
        </CharString>
        <CharString name="daggerdbl">
          -252 -4 -21 312 59 109 59 336 -20 hstemhm
          33 173 -70 70 -70 173 hintmask 11110010
          288 349 rmoveto
          -22 -28 -3 -34 hhcurveto
          109 vlineto
          29 29 1 18 hhcurveto
          15 14 22 11 15 -16 13 -5 hvcurveto
          -22 -28 -3 -34 hhcurveto
          hintmask 11110100
          97 2 84 107 vvcurveto
          16 -9 32 -25 -20 -16 -14 -18 vhcurveto
          1 -111 0 -92 -101 vvcurveto
          -28 -36 2 -14 hhcurveto
          hintmask 11111000
          148 callsubr
          -109 hlineto
          -28 -36 2 -14 hhcurveto
          148 callsubr
          hlineto
          hintmask 11110100
          -1 -96 0 -91 -101 vvcurveto
          -8 16 -16 19 23 12 14 13 vhcurveto
          -2 100 0 91 94 vvcurveto
          29 29 1 18 hhcurveto
          hintmask 11110010
          15 14 22 11 15 -16 13 -5 hvcurveto
          endchar
        </CharString>
        <CharString name="dcaron">
          125 callsubr
          197 176 -98 75 callgsubr
          -62 -18 callgsubr
          hintmask 1010111000000000
          465 57 -7 callsubr
          hintmask 0110110100000000
          -25 callgsubr
          hintmask 1010110010000000
          56 callgsubr
          hintmask 0110111000000000
          -15 callsubr
          hintmask 0001000001000000
          263 750 rmoveto
          hintmask 0001000000010000
          -13 callgsubr
          hintmask 0001000000100000
          -98 callsubr
          hintmask 0001000001000000
          -30 callgsubr
        </CharString>
        <CharString name="dcroat">
          125 callsubr
          85 110 callsubr
          144 75 callgsubr
          hintmask 0000101000000000
          542 628 65 callsubr
          -13 11 -20 15 vhcurveto
          hintmask 0000101000000000
          47 141 1 53 hhcurveto
          23 6 24 11 14 -11 16 -10 hvcurveto
          hintmask 1010000111000000
          -77 -571 -7 callsubr
          hintmask 0110000110100000
          -25 callgsubr
          hintmask 1010000110010000
          56 callgsubr
          hintmask 0110000111000000
          -15 callsubr
          endchar
        </CharString>
        <CharString name="degree">
          -348 669 41 84 43 hstem
          33 57 68 57 vstem
          215 754 rmoveto
          44 -26 39 -63 -62 -31 -37 -48 -55 38 -28 48 48 48 27 58 vhcurveto
          -90 40 rmoveto
          23 10 -20 -21 -26 -10 -17 -24 -22 -12 18 24 24 13 18 22 hvcurveto
          endchar
        </CharString>
        <CharString name="dieresis">
          -252 495 114 callsubr
          15 105 102 105 hintmask 01110000
          15 575 rmoveto
          -102 callgsubr
          207 -23 rmoveto
          hintmask 10110000
          -102 callgsubr
          endchar
        </CharString>
        <CharString name="divide">
          -209 188 108 80 64 5 -20 95 108 hstemhm
          135 117 hintmask 10001000
          135 241 rmoveto
          -77 callgsubr
          hintmask 00011000
          332 vmoveto
          -77 callgsubr
          hintmask 00100000
          197 -128 rmoveto
          hintmask 01000000
          14 callgsubr
          15 14 13 21 hvcurveto
          hintmask 00100000
          24 -16 6 -5 vhcurveto
          endchar
        </CharString>
        <CharString name="dollar">
          25 -55 -21 927 -20 hstemhm
          53 63 157 67 144 71 -50 70 hintmask 11111000
          342 803 rmoveto
          108 callgsubr
          -33 vlineto
          -110 -13 -109 -68 -134 vvcurveto
          -173 104 -46 85 -41 vhcurveto
          31 -15 rlineto
          -88 -1 -81 -85 vvcurveto
          -101 11 -55 62 62 vvcurveto
          29 -3 40 -34 -29 -5 -25 -19 vhcurveto
          -42 2 -13 -42 -29 -4 -57 -15 vvcurveto
          -14 callsubr
          30 -65 68 -27 65 -7 rrcurveto
          -35 vlineto
          -14 16 -10 19 23 12 6 21 vhcurveto
          11 -1 10 11 vvcurveto
          97 8 117 44 107 vvcurveto
          99 -118 60 -97 41 vhcurveto
          119 1 139 1 126 vhcurveto
          hintmask 11110100
          75 -15 79 -88 9 -115 rrcurveto
          -29 8 -30 26 24 12 15 19 vhcurveto
          42 -2 36 42 48 4 51 47 vvcurveto
          9 -3 24 -32 -28 -6 -19 -16 -1 3 -41 5 -83 vhcurveto
          -36 102 -58 52 -80 10 rrcurveto
          -218 -224 rmoveto
          91 63 56 85 15 vhcurveto
          1 -118 0 -125 -111 vvcurveto
          -7 3 -7 2 -5 3 rrcurveto
          -65 29 -65 35 120 vvcurveto
          hintmask 11111000
          360 -420 rmoveto
          -52 -65 -38 -79 -9 vhcurveto
          225 vlineto
          74 -33 70 -38 -55 vvcurveto
          endchar
        </CharString>
        <CharString name="dotaccent">
          -459 523 113 hstem
          15 105 vstem
          15 580 -84 callgsubr
        </CharString>
        <CharString name="dotlessi">
          -304 0 48 388 -20 hstemhm
          1 195 -173 173 -70 175 hintmask 11100000
          196 401 rmoveto
          21 -2 14 -16 -20 -50 -2 -3 -34 vhcurveto
          -46 -4 -27 -3 -25 vvcurveto
          -17 28 -1 10 vhcurveto
          10 47 5 11 hhcurveto
          11 3 -9 -8 1 hvcurveto
          hintmask 11001000
          3 -53 1 -49 -54 vvcurveto
          -42 0 -59 -4 -45 vhcurveto
          -1 -14 -6 -5 -18 -2 rrcurveto
          hintmask 11010000
          -44 -6 -30 -5 -13 vvcurveto
          -21 47 -1 32 vhcurveto
          159 hlineto
          hintmask 11001000
          14 26 3 20 16 -20 9 -38 hvcurveto
          hintmask 11100000
          -47 hlineto
          endchar
        </CharString>
        <CharString name="dotlessj">
          94 callsubr
          hstemhm
          -113 117 -21 217 -64 64 hintmask 01110100
          4 -79 3 callsubr
          hintmask 10101000
          -23 callsubr
          hintmask 10110100
          -42 callgsubr
          endchar
        </CharString>
        <CharString name="e">
          -26 callgsubr
          100 callsubr
          hintmask 01111100
          111 299 -105 callgsubr
          hintmask 10111010
          -68 callgsubr
          endchar
        </CharString>
        <CharString name="eacute">
          -26 callgsubr
          28 166 100 callsubr
          hintmask 00001000
          345 633 rmoveto
          -91 callgsubr
          hintmask 01110110
          -234 -334 -105 callgsubr
          hintmask 10110101
          -68 callgsubr
          endchar
        </CharString>
        <CharString name="ebreve">
          -26 callgsubr
          33 45 -45 107 hstemhm
          30 75 30 116 callgsubr
          7 82 -64 64 hintmask 0111001001000000
          111 299 -105 callgsubr
          hintmask 1011001000100000
          -68 callgsubr
          hintmask 0000010010000000
          267 350 -38 callsubr
          hintmask 0000100100000000
          -27 callgsubr
          hintmask 0000010010000000
          -77 callsubr
        </CharString>
        <CharString name="ecaron">
          -26 callgsubr
          18 20 104 21 100 callsubr
          hintmask 0111001100000000
          111 299 -105 callgsubr
          hintmask 1011001010000000
          -68 callgsubr
          263 401 -61 callsubr
          hvcurveto
          hintmask 0000110000000000
          9 -3 8 -8 vhcurveto
          endchar
        </CharString>
        <CharString name="ecircumflex">
          -26 callgsubr
          54 -21 145 -20 100 callsubr
          hintmask 0111001100000000
          111 299 -105 callgsubr
          hintmask 1011001010000000
          -68 callgsubr
          hintmask 0000110000000000
          262 271 -97 callgsubr
        </CharString>
        <CharString name="edieresis">
          -26 callgsubr
          27 114 callsubr
          30 75 -9 105 102 105 -27 82 -64 64 hintmask 0111001001000000
          111 299 -105 callgsubr
          hintmask 1011001000100000
          -68 callgsubr
          hintmask 0000010110000000
          -11 345 rmoveto
          -102 callgsubr
          207 -23 rmoveto
          hintmask 0000100110000000
          -102 callgsubr
          endchar
        </CharString>
        <CharString name="edotaccent">
          -26 callgsubr
          50 113 hstemhm
          30 75 97 105 74 82 -64 64 hintmask 0111010100000000
          111 299 -105 callgsubr
          hintmask 1011010010000000
          -68 callgsubr
          hintmask 0000101000000000
          95 345 -84 callgsubr
        </CharString>
        <CharString name="egrave">
          -26 callgsubr
          27 166 100 callsubr
          hintmask 00001000
          181 632 -42 callsubr
          hintmask 01110110
          -70 -333 -105 callgsubr
          hintmask 10110101
          -68 callgsubr
          endchar
        </CharString>
        <CharString name="eight">
          -33 -20 61 336 77 317 61 hstemhm
          37 75 -53 75 311 64 -64 77 hintmask 11110010
          37 191 rmoveto
          -142 107 -69 125 153 100 104 120 113 -90 83 -76 16 vhcurveto
          hintmask 11101100
          55 16 98 78 112 vvcurveto
          98 -76 112 -147 -142 -85 -104 -113 -102 70 -71 62 -26 vhcurveto
          hintmask 11110100
          -57 -22 -97 -69 -134 vvcurveto
          75 12 rmoveto
          107 86 67 81 78 88 -62 -109 -104 -81 -61 -92 -103 -57 75 87 vhcurveto
          hintmask 11101100
          22 407 rmoveto
          72 40 89 112 104 44 -76 -74 -95 -73 -72 -78 -66 -83 52 104 vhcurveto
          endchar
        </CharString>
        <CharString name="eightinferior">
          -320 -12 129 callgsubr
          71 -100 callgsubr
        </CharString>
        <CharString name="eightsuperior">
          -320 496 129 callgsubr
          579 -100 callgsubr
        </CharString>
        <CharString name="ellipsis">
          -37 -19 108 hstemhm
          46 117 59 117 55 117 hintmask 11000000
          46 34 rmoveto
          -77 callgsubr
          hintmask 10100000
          176 hmoveto
          -77 callgsubr
          hintmask 10010000
          172 hmoveto
          94 callgsubr
        </CharString>
        <CharString name="emacron">
          -26 callgsubr
          63 59 -37 -21 60 -20 21 -20 100 callsubr
          hintmask 0111000011000000
          111 299 -105 callgsubr
          hintmask 1011000010100000
          -68 callgsubr
          hintmask 0000010100000000
          284 363 -37 callgsubr
        </CharString>
        <CharString name="emdash">
          135 238 -25 callsubr
          hintmask 01010000
          649 300 rmoveto
          hintmask 10000000
          -32 -196 -3 -55 hhcurveto
          hintmask 01100000
          -34 -227 42 callgsubr
          455 -63 callsubr
          endchar
        </CharString>
        <CharString name="endash">
          -98 238 -25 callsubr
          hintmask 01010000
          413 300 rmoveto
          hintmask 10000000
          -45 -58 -3 -77 hhcurveto
          hintmask 01100000
          -48 -67 2 -27 hhcurveto
          -22 -10 -16 -14 hvcurveto
          hintmask 10000000
          -14 15 -17 17 vhcurveto
          hintmask 01010000
          103 callgsubr
        </CharString>
        <CharString name="eng">
          -27 -239 59 68 85 41 57 329 55 21 callgsubr
          72 43 63 -63 148 55 70 hintmask 1111100101000000
          511 260 -88 callgsubr
          hintmask 1111001101000000
          -28 callgsubr
          hintmask 1111010101000000
          -36 callsubr
          26 13 4 23 26 -17 6 -22 hvcurveto
          -67 112 hlineto
          40 8 43 14 31 vhcurveto
          51 22 46 44 56 hhcurveto
          85 15 -101 -131 hvcurveto
          -162 vlineto
          -126 -19 -55 -70 -29 -25 20 27 9 2 21 10 7 vhcurveto
          -8 6 13 -8 17 hhcurveto
          hintmask 1111100011000000
          21 19 13 29 31 -26 12 -24 -64 -34 -52 -56 -70 60 -34 57 104 52 89 149 hvcurveto
          endchar
        </CharString>
        <CharString name="eogonek">
          -103 -166 43 110 64 -64 218 -208 -20 263 61 114 62 hstemhm
          30 75 64 64 148 82 -64 64 hintmask 0010111010000000
          111 299 -105 callgsubr
          hintmask 0100111001000000
          -68 callgsubr
          hintmask 1001000100000000
          135 -242 -99 callgsubr
        </CharString>
        <CharString name="equal">
          -209 254 59 -37 -21 167 59 2 96 callsubr
          hintmask 10100000
          310 316 rmoveto
          -32 -41 -3 -55 -34 -48 2 -19 hhcurveto
          -18 -8 -16 -14 -14 11 -17 15 hvcurveto
          hintmask 01001000
          47 121 -63 callsubr
          168 vmoveto
          hintmask 10100000
          6 callgsubr
          hintmask 10010000
          -34 -48 -27 callsubr
          hintmask 10100000
          12 callsubr
          47 121 1 53 hhcurveto
          23 6 22 11 hvcurveto
          hintmask 10001000
          15 -11 13 -10 vhcurveto
          endchar
        </CharString>
        <CharString name="eth">
          -33 -19 61 363 62 365 -20 hstem
          29 75 348 74 vstem
          455 747 rmoveto
          -13 -56 -36 -16 -25 hvcurveto
          -51 66 -32 28 -37 30 rrcurveto
          7 -9 -17 6 -14 hhcurveto
          -16 -13 -13 -14 -8 4 -8 10 -6 hvcurveto
          44 -28 46 -37 38 -51 -75 -40 rcurveline
          -9 -5 -12 -8 -12 vvcurveto
          -12 12 -17 13 9 69 37 12 22 vhcurveto
          59 -95 39 -107 11 -44 rrcurveto
          70 -48 -77 21 -62 hhcurveto
          -117 -119 -80 -157 -113 65 -136 182 213 37 147 92 140 -47 138 -62 111 hvcurveto
          -11 20 -3 4 -11 18 30 17 28 17 17 9 rrcurveto
          7 4 8 10 13 vvcurveto
          14 -11 12 -16 vhcurveto
          -180 -705 rmoveto
          -85 -86 49 136 95 61 83 113 105 69 -81 -115 -70 -36 -97 -141 hvcurveto
          endchar
        </CharString>
        <CharString name="etilde">
          -26 callgsubr
          33 -47 callgsubr
          30 75 276 82 -64 64 hintmask 0111000001100000
          111 299 -105 callgsubr
          hintmask 1011000001010000
          -68 callgsubr
          hintmask 0000011010000000
          -19 315 -95 callsubr
          endchar
        </CharString>
        <CharString name="exclam">
          -347 -46 108 0 39 735 -20 hstemhm
          69 117 -100 70 hintmask 01101000
          96 127 rmoveto
          -22 4 10 -4 15 hhcurveto
          27 4 24 47 hvcurveto
          623 vlineto
          41 -26 0 -10 -17 -17 -7 -34 -139 0 -500 10 -29 vhcurveto
          hintmask 10110000
          -27 -120 rmoveto
          94 callgsubr
        </CharString>
        <CharString name="exclamdown">
          -349 -192 -21 735 49 0 108 hstemhm
          68 117 -100 70 hintmask 11001000
          95 496 rmoveto
          -10 -29 0 -500 -139 vvcurveto
          -34 17 -7 17 10 26 0 41 vhcurveto
          623 vlineto
          47 -4 24 -27 -15 -10 -4 -22 -4 vhcurveto
          hintmask 10110000
          -27 130 rmoveto
          -23 16 -32 43 40 18 28 25 28 -21 27 -39 -41 -16 -29 -24 vhcurveto
          endchar
        </CharString>
        <CharString name="f">
          -276 3 115 callsubr
          414 58 169 183 -56 56 hstemhm
          8 162 -73 73 112 callsubr
          30 102 hintmask 0101101000100000
          94 75 92 callgsubr
          hintmask 1001101000100000
          96 callgsubr
          hintmask 0011100001100000
          -10 callgsubr
          hintmask 1001101000100000
          27 callgsubr
          344 40 callsubr
          hintmask 1001100010100000
          56 callsubr
          hintmask 1001010100100000
          63 callsubr
          hintmask 1001100100100000
          3 callgsubr
        </CharString>
        <CharString name="f_b">
          213 -9 67 -55 55 -49 -21 33 -21 397 61 -38 58 291 56 hstemhm
          -1 162 -141 141 -68 187 -187 206 57 70 277 73 hintmask 1000011000111000
          426 693 rmoveto
          71 -4 61 -112 -199 -18 -191 -143 -7 -1 -6 -11 vhcurveto
          -44 hlineto
          hintmask 0001011100011000
          -24 -14 -6 -20 -18 13 -14 95 callgsubr
          -89 0 -105 -5 -31 vhcurveto
          -1 -16 -8 -1 -28 -4 rrcurveto
          hintmask 0001101010011000
          135 callgsubr
          hintmask 0100101000111000
          97 callsubr
          hintmask 1000011100011000
          -109 351 -9 callgsubr
          hintmask 1000011001011000
          15 20 8 21 24 -20 7 -13 hvcurveto
          -78 hlineto
          hintmask 0010101100011000
          33 callsubr
          hintmask 1000101100011000
          18 callgsubr
          -1 -155 82 callgsubr
          endchar
        </CharString>
        <CharString name="f_f">
          -83 -88 115 callsubr
          93 115 callsubr
          414 58 169 183 -106 56 -6 56 hstemhm
          -13 161 112 callsubr
          -95 162 -73 73 112 callsubr
          30 102 hintmask 100000101000100000000000
          387 743 rmoveto
          18 -20 -23 14 -43 20 callsubr
          hintmask 010000101010000000000000
          -48 callsubr
          -64 2 -64 -64 vvcurveto
          -48 -2 -138 -4 -47 vhcurveto
          97 callgsubr
          hintmask 100000101010000000000000
          96 callgsubr
          hintmask 001000101000100000000000
          -10 callgsubr
          hintmask 100000101010000000000000
          27 callgsubr
          435 40 callsubr
          hintmask 100000101001000000000000
          56 callsubr
          hintmask 100000101010000000000000
          70 callsubr
          21 11 -9 -8 9 hvcurveto
          hintmask 000010110000010001000000
          -55 -627 92 callgsubr
          hintmask 000100110000010001000000
          96 callgsubr
          hintmask 000001110000000011000000
          -10 callgsubr
          hintmask 000100110000010001000000
          27 callgsubr
          344 40 callsubr
          hintmask 000100110000000101000000
          56 callsubr
          hintmask 000100100100001001000000
          63 callsubr
          hintmask 000100110000001001000000
          3 callgsubr
        </CharString>
        <CharString name="f_f_b">
          427 -81 51 -33 -21 22 -21 74 61 -55 -21 27 49 -43 -21 33 -21 397 61 -36 58 -2 -20 268 56 -13 56 hstemhm
          -31 182 -161 161 -73 73 83 45 29 67 -67 186 -186 205 57 69 278 73 hintmask 100100001000110011001100
          639 179 82 callgsubr
          1 514 rmoveto
          71 -4 61 -112 -71 -48 -24 -38 -32 vhcurveto
          hintmask 100100000101000111001100
          11 -17 -21 8 -31 20 callsubr
          hintmask 100100000101001011001100
          -48 callsubr
          -64 2 -64 -64 vvcurveto
          -48 -2 -138 104 callsubr
          -31 -4 -32 -2 rrcurveto
          hintmask 010100001001010011001100
          -14 -1 -28 -4 -23 vvcurveto
          -26 26 0 18 vhcurveto
          hintmask 100100001001010011001100
          15 73 3 36 hhcurveto
          hintmask 001010010101010011001100
          30 36 -2 24 hhcurveto
          34 18 6 23 28 -19 2 -20 hvcurveto
          -89 435 hlineto
          7 2 4 16 vhcurveto
          126 hlineto
          11 -2 2 -7 -19 vvcurveto
          -94 vlineto
          -89 0 -105 -5 -31 vhcurveto
          -1 -16 -8 -1 -28 -4 rrcurveto
          135 callgsubr
          hintmask 100011001001010010011100
          97 callsubr
          hintmask 100100001001010011001100
          -109 351 -9 callgsubr
          hintmask 100100000011010010101100
          15 20 8 21 24 -20 7 -13 hvcurveto
          -78 hlineto
          hintmask 100000101000110011001100
          33 callsubr
          hintmask 100100000011010011001100
          18 callgsubr
          hintmask 100100000101010011001100
          -481 146 rmoveto
          70 callsubr
          18 11 -7 -7 8 hvcurveto
          -30 -66 -4 -83 -72 vvcurveto
          hintmask 100100000011010011001100
          -7 -1 -6 -11 vhcurveto
          endchar
        </CharString>
        <CharString name="f_f_h">
          435 -88 115 callsubr
          29 49 15 45 -27 -21 369 59 -13 58 246 56 -6 56 hstemhm
          -17 181 -162 162 -73 73 59 89 5 67 -67 128 -128 185 6 141 callsubr
          hintmask 100010100110011001010000
          515 825 rmoveto
          -64 -43 -26 -40 -29 hvcurveto
          hintmask 100010011000111001010000
          10 -18 -23 6 -28 hhcurveto
          -200 -16 -180 -104 -3 hvcurveto
          -9 -1 -9 -11 vhcurveto
          -54 hlineto
          hintmask 100010011010011001010000
          -24 -18 -1 -27 -22 17 -8 22 hvcurveto
          57 hlineto
          11 2 -2 -4 hvcurveto
          -64 2 -64 -64 vvcurveto
          -48 -2 -138 104 callsubr
          -11 -4 -32 -2 rrcurveto
          hintmask 010110101001011001010000
          -14 -1 -28 -4 -23 vvcurveto
          -26 26 0 18 vhcurveto
          hintmask 100010101010011001010000
          96 callgsubr
          hintmask 001110101010011001010000
          -10 callgsubr
          hintmask 100001011010011001010000
          27 callgsubr
          435 40 callsubr
          9 11 0 7 9 hvcurveto
          27 hlineto
          2 callsubr
          -86 -1 -133 -3 -16 vhcurveto
          -1 -15 -24 -1 -28 -5 rrcurveto
          136 callgsubr
          hintmask 100010101010010101010000
          15 38 3 36 30 -3 131 callgsubr
          hintmask 100010101010011001010000
          -31 361 -9 callgsubr
          hintmask 100010011010010011010000
          15 19 6 23 18 -19 8 -13 hvcurveto
          -78 hlineto
          hintmask 100001100110011000110000
          -5 -3 2 9 89 0 196 139 73 callgsubr
          hintmask 100001101010011001010000
          137 callsubr
          hintmask 100010101010011001010000
          30 8 3 31 hhcurveto
          hintmask 100001101010011000101000
          17 callsubr
          hintmask 010110101010011001010000
          90 callgsubr
          hintmask 010110101010011001001000
          20 9 13 8 27 -27 1 -27 hvcurveto
          hintmask 010110100110011001010000
          50 callgsubr
          -14 77 -111 vhcurveto
          hintmask 100010011010011001010000
          -211 -352 rmoveto
          -132 hlineto
          70 callsubr
          15 11 -5 -6 8 hvcurveto
          -26 -63 -6 -77 -1 -62 rrcurveto
          -20 -2 -13 -12 vhcurveto
          endchar
        </CharString>
        <CharString name="f_f_i">
          131 -85 115 callsubr
          90 45 -27 -21 421 57 1 -20 116 250 -100 56 -16 60 hstemhm
          -13 161 -73 73 71 77 -2 123 callsubr
          hintmask 100101000110010100000000
          633 47 callsubr
          hintmask 100101010010010010000000
          -23 15 -20 38 47 12 38 43 140 -75 29 -65 -68 -46 -23 -34 -31 vhcurveto
          hintmask 100100101001101000000000
          8 -15 -19 5 -26 20 callsubr
          hintmask 010101010010101000000000
          -48 callsubr
          -64 2 -64 -64 vvcurveto
          -48 -2 -138 104 callsubr
          -11 -7 -29 callsubr
          hintmask 100101010010101000000000
          96 callgsubr
          hintmask 001101010010101000000000
          -10 callgsubr
          hintmask 100011010010011000000000
          27 callgsubr
          438 hlineto
          7 2 4 16 vhcurveto
          115 hlineto
          11 -1 2 -7 -19 vvcurveto
          -94 vlineto
          -88 0 -118 -5 -29 vhcurveto
          -2 -15 -1 -2 -30 -4 rrcurveto
          hintmask 100011010010101000000000
          139 callsubr
          hintmask 100101010010010001000000
          -16 callgsubr
          hintmask 100101010010101000000000
          118 callsubr
          hintmask 100101010010100001000000
          134 callsubr
          hintmask 100101001010011000000000
          140 callsubr
          -339 81 rmoveto
          -20 -1 -11 -12 vhcurveto
          -125 hlineto
          -5 1 -3 2 9 vvcurveto
          88 0 147 153 12 8 -3 -4 7 vhcurveto
          -29 -63 -4 -81 -1 -65 rrcurveto
          endchar
        </CharString>
        <CharString name="f_f_j">
          107 -236 62 -62 183 -34 115 callsubr
          92 113 callsubr
          241 56 -10 60 143 callsubr
          -84 68 callsubr
          hintmask 001000011001000000000000
          8 callsubr
          hintmask 000100011010000000000000
          -34 callsubr
          hintmask 001000011010000000000000
          96 callgsubr
          hintmask 000010011001000000000000
          -10 callgsubr
          hintmask 001000011010000000000000
          -30 callsubr
          hintmask 010001010100000010010000
          101 -791 30 callgsubr
          hintmask 100001010100001000001000
          107 callgsubr
          hintmask 100001010100001000100000
          -52 -40 8 -35 vvcurveto
          -23 14 -22 36 47 15 29 54 31 callgsubr
          hintmask 100001010100100000100000
          142 callgsubr
          hintmask 100000110100001000100000
          2 callsubr
          -88 0 -118 -5 -29 vhcurveto
          -1 -15 -13 -2 -29 -4 rrcurveto
          hintmask 100000110100010000100000
          134 callgsubr
          hintmask 100001010100000100100000
          64 callgsubr
          hintmask 100001010100100000010000
          31 callsubr
          hintmask 100001010100000010100000
          150 callgsubr
          hintmask 100001010100000001100000
          17 2 20 5 28 vvcurveto
          endchar
        </CharString>
        <CharString name="f_f_k">
          426 -87 57 -48 47 -38 -21 22 -21 84 146 callgsubr
          241 56 -6 56 143 callsubr
          -88 72 callsubr
          hintmask 100000001100100000000000
          8 callsubr
          hintmask 001000001101000000000000
          -34 callsubr
          hintmask 100000001101000000000000
          96 callgsubr
          hintmask 000100001100100000000000
          -10 callgsubr
          hintmask 100000001101000000000000
          -30 callsubr
          hintmask 010011010010010000001000
          236 -43 93 callgsubr
          hintmask 010011010010010000100000
          90 callsubr
          hintmask 010011010010010000001000
          -34 callgsubr
          hintmask 010011001010000100100000
          50 callsubr
          hintmask 010010101010010000100000
          -24 -17 -2 -24 -15 16 -17 95 callgsubr
          -87 -1 -131 -3 -17 vhcurveto
          -1 -15 -5 -2 -28 -4 rrcurveto
          hintmask 010010110010001000100000
          136 callsubr
          hintmask 010011010010000001010000
          9 callsubr
          hintmask 010011001010010000100000
          -109 361 -9 callgsubr
          hintmask 010011001010000010100000
          57 callsubr
          hintmask 010011010010010000100000
          103 callsubr
        </CharString>
        <CharString name="f_f_l">
          117 -88 57 -52 45 -32 -21 22 -21 27 -21 82 113 callsubr
          246 56 -11 56 hstemhm
          -13 161 112 callsubr
          -101 107 callsubr
          hintmask 100000011000100000000000
          387 743 rmoveto
          18 -20 -23 14 -43 20 callsubr
          hintmask 001000011010000000000000
          -48 callsubr
          -64 2 -64 -64 vvcurveto
          -48 -2 -138 -4 -47 vhcurveto
          97 callgsubr
          hintmask 100000011010000000000000
          96 callgsubr
          hintmask 000100011000100000000000
          -10 callgsubr
          hintmask 100000011010000000000000
          27 callgsubr
          435 40 callsubr
          hintmask 100000011001000000000000
          56 callsubr
          hintmask 100000011010000000000000
          70 callsubr
          21 11 -9 -8 9 hvcurveto
          hintmask 010001010100000011000000
          182 118 98 callgsubr
          hintmask 010000110100010001000000
          -24 -18 -6 -24 -18 14 -10 25 11 callsubr
          -87 -1 -131 -3 -17 vhcurveto
          -1 -15 -5 -1 -28 -4 rrcurveto
          hintmask 010000110100001001000000
          142 callsubr
          hintmask 010001010100000011000000
          9 callsubr
          hintmask 010001010100010001000000
          -109 361 -9 callgsubr
          hintmask 010001010100000101000000
          57 callsubr
          hintmask 010001010100010001000000
          7 callsubr
          hintmask 000011010100010001000000
          35 callsubr
        </CharString>
        <CharString name="f_f_t">
          228 -87 115 callsubr
          78 130 callgsubr
          -63 58 0 -20 22 -20 259 56 -6 56 143 callsubr
          -88 166 -147 147 -68 68 157 72 hintmask 100000001001001000000000
          8 callsubr
          hintmask 010000001001010000000000
          -34 callsubr
          hintmask 100000001001010000000000
          96 callgsubr
          hintmask 001000001001001000000000
          -10 callgsubr
          hintmask 100000001001010000000000
          -30 callsubr
          hintmask 000010010000100100100000
          189 -537 54 callgsubr
          hintmask 000001010000100100100000
          46 callsubr
          hintmask 000100000010100001100000
          66 callgsubr
          hintmask 000100000100100100100000
          32 callgsubr
          hintmask 000000110000100010100000
          135 callsubr
          hintmask 000001010000100100100000
          15 callgsubr
          hintmask 000100000100100100100000
          132 callgsubr
        </CharString>
        <CharString name="f_h">
          230 -61 49 15 45 -27 -21 369 59 -8 53 296 56 hstemhm
          -1 161 -142 142 -66 163 -163 184 25 141 callsubr
          hintmask 1100110010101000
          322 825 rmoveto
          -203 -22 -196 -123 -3 hvcurveto
          -20 -1 -1 -13 -12 hhcurveto
          -44 hlineto
          hintmask 1010111000101000
          -24 -13 -2 -19 -15 12 -17 95 callgsubr
          -86 -1 -133 -3 -16 vhcurveto
          -1 -15 -5 -2 -28 -4 rrcurveto
          hintmask 1011010100101000
          136 callgsubr
          hintmask 1101010010101000
          15 38 3 36 30 14 131 callgsubr
          hintmask 1100111000101000
          -67 361 -9 callgsubr
          hintmask 1100110001101000
          15 19 6 23 18 -19 8 -13 hvcurveto
          -78 hlineto
          hintmask 1011011000011000
          -5 -3 2 9 89 1 196 157 73 callgsubr
          hintmask 1011011000101000
          137 callsubr
          hintmask 1101011000101000
          30 8 3 31 hhcurveto
          hintmask 1011011000010100
          17 callsubr
          hintmask 1101011000101000
          90 callgsubr
          hintmask 1101011000100100
          20 9 13 8 27 -27 1 -27 hvcurveto
          hintmask 1101011000101000
          50 callgsubr
          -2 77 -111 vhcurveto
          endchar
        </CharString>
        <CharString name="f_i">
          -70 -79 48 34 113 callsubr
          97 250 -60 60 hstemhm
          -2 162 -142 142 -67 123 callsubr
          hintmask 1101010010100000
          432 47 callsubr
          hintmask 1101100010010000
          -23 15 -20 38 47 12 38 43 31 callgsubr
          hintmask 1101101001000000
          -24 -14 -7 -20 -17 13 -14 22 hvcurveto
          47 hlineto
          hintmask 1011100011000000
          2 callsubr
          -88 0 -118 -5 -29 vhcurveto
          -2 -15 -1 -2 -30 -4 rrcurveto
          hintmask 1011100101000000
          139 callsubr
          hintmask 1101101000001000
          -16 callgsubr
          hintmask 1101101001000000
          118 callsubr
          hintmask 1101101000001000
          134 callsubr
          hintmask 1101101001000000
          140 callsubr
          endchar
        </CharString>
        <CharString name="f_j">
          -104 -236 62 -62 183 56 113 callsubr
          287 60 hstemhm
          0 68 callsubr
          hintmask 0110110000100100
          231 -89 30 callgsubr
          hintmask 1010110010000010
          107 callgsubr
          hintmask 1010110010001000
          -52 -40 8 -35 vvcurveto
          -23 14 -22 36 47 15 29 54 31 callgsubr
          hintmask 1010111000001000
          142 callgsubr
          hintmask 1001110010001000
          2 callsubr
          -88 0 -118 -5 -29 vhcurveto
          -1 -15 -13 -2 -29 -4 rrcurveto
          hintmask 1001110100001000
          134 callgsubr
          hintmask 1010110001001000
          64 callgsubr
          hintmask 1010111000000100
          31 callsubr
          hintmask 1010110000101000
          150 callgsubr
          hintmask 1010110000011000
          17 2 20 5 28 vvcurveto
          endchar
        </CharString>
        <CharString name="f_k">
          215 -78 47 26 146 callgsubr
          291 56 hstemhm
          -4 72 callsubr
          hintmask 1110101100000010
          366 659 93 callgsubr
          hintmask 1110101100001000
          90 callsubr
          hintmask 1110101100000010
          -34 callgsubr
          hintmask 1110011001001000
          50 callsubr
          hintmask 1101011100001000
          -24 -17 -2 -24 -15 16 -17 95 callgsubr
          -87 -1 -131 -3 -17 vhcurveto
          -1 -15 -5 -2 -28 -4 rrcurveto
          hintmask 1101101010001000
          136 callsubr
          hintmask 1110101000010100
          9 callsubr
          hintmask 1110011100001000
          -109 361 -9 callgsubr
          hintmask 1110011000101000
          57 callsubr
          hintmask 1110101100001000
          103 callsubr
        </CharString>
        <CharString name="f_l">
          -62 -78 45 -25 -21 82 113 callsubr
          291 56 hstemhm
          -2 107 callsubr
          hintmask 1010110001100000
          327 825 98 callgsubr
          hintmask 1001111000100000
          -24 -18 -6 -24 -18 14 -10 25 11 callsubr
          -87 -1 -131 -3 -17 vhcurveto
          -1 -15 -5 -1 -28 -4 rrcurveto
          hintmask 1001110100100000
          142 callsubr
          hintmask 1010110001100000
          9 callsubr
          hintmask 1010111000100000
          -109 361 -9 callgsubr
          hintmask 1010110010100000
          57 callsubr
          hintmask 1010111000100000
          7 callsubr
          hintmask 0110111000100000
          35 callsubr
        </CharString>
        <CharString name="f_t">
          20 -11 130 callgsubr
          -5 -20 22 -20 309 56 hstemhm
          -1 166 -147 147 -68 68 157 72 hintmask 0100100110010000
          322 165 54 callgsubr
          hintmask 0010100110010000
          46 callsubr
          hintmask 1000001100110000
          66 callgsubr
          hintmask 1000010110010000
          32 callgsubr
          hintmask 0001100101010000
          135 callsubr
          hintmask 0010100110010000
          15 callgsubr
          hintmask 1000010110010000
          132 callgsubr
        </CharString>
        <CharString name="five">
          -52 -12 63 -63 210 195 99 -68 68 251 69 hstemhm
          30 63 -63 121 296 75 hintmask 10101101
          418 812 rmoveto
          -56 -187 -6 -12 -69 hvcurveto
          -12 -2 -6 -8 -1 -9 -9 -128 -3 -31 -15 -111 rrcurveto
          -2 -17 -2 -20 -8 vvcurveto
          -38 8 -29 28 vhcurveto
          hintmask 10011101
          26 83 31 76 hhcurveto
          135 35 -80 -70 -108 -76 -115 -177 -49 -52 17 28 hvcurveto
          hintmask 01101011
          37 58 -29 52 vvcurveto
          28 -20 14 -26 -39 -36 -42 -52 -115 122 -1 46 222 102 150 131 100 -62 123 -173 -62 -83 -24 -5 -16 vhcurveto
          33 261 rlineto
          17 40 176 2 48 hhcurveto
          21 27 7 29 26 -24 7 -29 hvcurveto
          endchar
        </CharString>
        <CharString name="fiveeighths">
          -15 88 callsubr
          160 36 -36 99 26 85 -46 46 -46 185 -5 -20 hstemhm
          35 45 -45 59 99 58 82 47 105 57 hintmask 0000101000101000
          203 827 rmoveto
          -37 -35 -84 12 -12 -21 -3 -4 -8 -66 -8 -58 rrcurveto
          -1 -6 -1 -10 -4 vvcurveto
          -14 5 -9 6 vhcurveto
          hintmask 0000100100101000
          27 18 39 42 hhcurveto
          42 4 -31 -14 -39 -25 -44 -64 -13 -11 7 15 hvcurveto
          hintmask 0000011000011000
          14 14 -6 16 vvcurveto
          11 -8 6 -17 -13 -21 -16 -28 -24 18 -31 49 75 74 54 67 56 -35 33 -55 -21 -25 -11 -13 -13 vhcurveto
          13 74 14 2 62 15 13 9 rlinecurve
          19 9 20 25 14 vvcurveto
          hintmask 0000100010101000
          5 -2 10 -18 -10 -7 -6 -3 -3 vhcurveto
          hintmask 0100000001000000
          -161 -809 -106 callsubr
          hintmask 1011000000000110
          281 53 -100 callgsubr
        </CharString>
        <CharString name="fiveinferior">
          -333 -12 81 callsubr
          328 -43 callgsubr
        </CharString>
        <CharString name="fivesuperior">
          -333 487 81 callsubr
          827 -43 callgsubr
        </CharString>
        <CharString name="florin">
          82 -203 58 -58 189 434 58 166 181 -56 56 hstemhm
          23 55 -55 113 64 136 -136 162 -76 50 -50 197 69 103 -61 61 hintmask 1011010000110000
          359 409 rmoveto
          7 3 4 16 vhcurveto
          12 42 -2 12 hhcurveto
          15 24 6 23 26 -21 5 -15 hvcurveto
          -78 hlineto
          hintmask 1010110010001000
          -6 -1 2 8 77 17 204 159 34 22 -13 -21 -14 -8 -7 -18 -8 hvcurveto
          hintmask 1011010100010000
          -9 -4 -7 -7 -17 vvcurveto
          -17 14 -17 27 31 31 29 49 36 -22 67 -99 -210 -24 -231 -103 -10 vhcurveto
          -7 -1 -2 -6 -11 hhcurveto
          -34 hlineto
          -23 -19 -6 -20 -23 16 -9 22 hvcurveto
          37 hlineto
          hintmask 1011010001010000
          11 0 -7 -19 -122 -8 -115 -13 -112 hvcurveto
          -161 -18 -33 -29 -50 hhcurveto
          -85 -1 42 3 hvcurveto
          hintmask 0111001100010000
          31 58 -21 38 vvcurveto
          20 -15 18 -32 -36 -30 -24 -45 -87 79 -33 53 112 57 71 188 12 vhcurveto
          endchar
        </CharString>
        <CharString name="four">
          -25 0 49 195 64 518 -20 hstemhm
          190 237 -64 149 -128 56 -56 156 hintmask 11100010
          511 244 rmoveto
          11 18 7 22 20 -15 12 -21 1 hvcurveto
          hintmask 11100100
          -64 4 rlineto
          148 29 337 9 vvcurveto
          hintmask 11110000
          15 -18 7 -24 -22 -22 -22 -6 -4 vhcurveto
          -144 -180 -46 -71 -191 -256 rrcurveto
          -8 -11 -2 -8 -8 vvcurveto
          -18 19 -12 23 30 104 6 4 204 vhcurveto
          -9 -155 -1 -26 -19 -9 -29 -3 rlinecurve
          -10 -1 -52 -4 -28 -1 rrcurveto
          -13 -17 -4 -17 -20 21 -4 12 hvcurveto
          245 hlineto
          hintmask 11101000
          26 18 6 19 19 -15 5 -29 hvcurveto
          hintmask 11110000
          -17 -24 0 16 16 5 107 5 56 hvcurveto
          -336 54 rmoveto
          -13 0 4 4 hvcurveto
          8 11 8 4 vvcurveto
          299 401 -28 -417 rlineto
          -6 -96 -162 -6 -11 hhcurveto
          endchar
        </CharString>
        <CharString name="fourinferior">
          -311 0 102 callgsubr
          78 71 callgsubr
          hintmask 01110000
          -80 callgsubr
          hintmask 10110000
          -67 callsubr
        </CharString>
        <CharString name="foursuperior">
          -311 503 102 callgsubr
          581 71 callgsubr
          hintmask 01110000
          -80 callgsubr
          hintmask 10110000
          -67 callsubr
        </CharString>
        <CharString name="fraction">
          -220 33 -21 658 -20 hstem
          287 140 callgsubr
          -11 7 -14 19 24 14 17 13 7 vhcurveto
          34 62 281 530 16 vvcurveto
          5 -10 15 -17 -33 -5 -28 -40 -25 vhcurveto
          endchar
        </CharString>
        <CharString name="g">
          24 callsubr
          70 114 callgsubr
          224 73 52 73 hintmask 1111101110000000
          240 460 -47 callsubr
          hintmask 1111110110000000
          -41 callgsubr
          hintmask 1111101110000000
          -92 callsubr
          hintmask 1111110110000000
          -29 callgsubr
          hintmask 1111101110000000
          59 callsubr
          endchar
        </CharString>
        <CharString name="g.salt">
          -68 -250 61 188 57 81 60 203 60 -34 91 -39 39 hstemhm
          31 73 -46 73 224 73 -73 145 -20 73 hintmask 1111010110100000
          240 460 -47 callsubr
          hintmask 1111011010100000
          -77 -15 -39 -36 -58 vvcurveto
          -99 111 -49 131 166 114 63 96 111 -97 33 -141 3 vhcurveto
          hintmask 1111010110100000
          -45 1 -139 -4 42 vvcurveto
          31 36 11 11 5 vhcurveto
          -1 9 17 -4 25 hhcurveto
          139 60 81 83 71 -46 55 -51 17 hvcurveto
          23 24 20 11 22 hhcurveto
          hintmask 1110101001000000
          43 -21 -52 43 hhcurveto
          24 14 18 17 32 -47 24 -60 -45 -42 -22 -39 -33 hvcurveto
          hintmask 1111011010100000
          3 -10 -10 1 -13 hhcurveto
          50 -461 rmoveto
          26 164 -1 -97 -50 -63 -40 -139 -70 -104 27 56 74 112 31 74 hvcurveto
          -47 401 rmoveto
          47 65 -20 -79 -84 -74 -20 -44 hvcurveto
          hintmask 1111010110100000
          -30 -76 16 79 84 70 24 42 hvcurveto
          endchar
        </CharString>
        <CharString name="gbreve">
          24 callsubr
          50 45 -45 107 -87 114 callgsubr
          -6 116 callgsubr
          -9 73 52 73 hintmask 1111001010011000
          240 460 -47 callsubr
          hintmask 1111001100011000
          -41 callgsubr
          hintmask 1111001010011000
          -92 callsubr
          hintmask 1111001100011000
          -29 callgsubr
          hintmask 1111001010011000
          59 callsubr
          hintmask 0000010000100000
          117 189 -38 callsubr
          hintmask 0000100001000000
          -27 callgsubr
          hintmask 0000010000100000
          -77 callsubr
        </CharString>
        <CharString name="gcircumflex">
          24 callsubr
          57 -21 34 -20 131 114 callgsubr
          -10 227 7 73 52 73 hintmask 0000101001000000
          337 522 rmoveto
          8 3 6 9 33 -73 71 -24 -20 -110 -90 -42 -8 4 -5 7 14 59 44 27 46 hvcurveto
          -27 46 26 -18 14 hhcurveto
          hintmask 1111010010110000
          -97 -62 -47 callsubr
          hintmask 1111010100110000
          -41 callgsubr
          hintmask 1111010010110000
          -92 callsubr
          hintmask 1111010100110000
          -29 callgsubr
          hintmask 1111010010110000
          59 callsubr
          endchar
        </CharString>
        <CharString name="gcommaaccent">
          24 callsubr
          35 176 -141 114 callgsubr
          72 -18 callgsubr
          43 73 52 73 hintmask 1111010100011000
          240 460 -47 callsubr
          hintmask 1111011000011000
          -41 callgsubr
          hintmask 1111010100011000
          -92 callsubr
          hintmask 1111011000011000
          -29 callgsubr
          hintmask 1111010100011000
          59 callsubr
          hintmask 0000100010000000
          -44 222 rmoveto
          hintmask 0000100000100000
          -13 callgsubr
          hintmask 0000100001000000
          -98 callsubr
          hintmask 0000100010000000
          -30 callgsubr
        </CharString>
        <CharString name="gdotaccent">
          24 callsubr
          67 113 -110 114 callgsubr
          66 105 53 73 52 73 hintmask 1111010101100000
          240 460 -47 callsubr
          hintmask 1111011001100000
          -41 callgsubr
          hintmask 1111010101100000
          -92 callsubr
          hintmask 1111011001100000
          -29 callgsubr
          hintmask 1111010101100000
          59 callsubr
          hintmask 0000100010000000
          -50 184 -84 callgsubr
        </CharString>
        <CharString name="germandbls">
          -11 0 44 -44 60 -60 179 -169 -21 780 56 hstemhm
          -8 157 -73 73 72 73 74 71 60 73 hintmask 0100110111000000
          368 700 rmoveto
          -127 -147 -43 -101 vvcurveto
          -95 100 -57 35 -20 vhcurveto
          89 -50 54 -42 -42 vvcurveto
          -39 -37 -24 -50 -51 -49 18 40 -23 vhcurveto
          -4 7 -2 5 -2 11 rrcurveto
          hintmask 0010110111000000
          27 -5 -13 11 -19 hhcurveto
          -13 -11 -13 -18 147 callsubr
          hintmask 0001110111000000
          -15 14 -12 11 25 11 19 42 1 vhcurveto
          hintmask 1000101111000000
          -32 21 59 -18 45 hhcurveto
          52 111 25 89 82 -95 62 -65 34 hvcurveto
          -61 32 -57 44 64 77 145 69 120 vvcurveto
          38 -37 89 -100 -210 -16 -227 -107 vhcurveto
          -90 2 -52 -86 vvcurveto
          -55 -1 -88 -4 -55 vhcurveto
          -21 -1 -11 0 -32 hhcurveto
          hintmask 1000110111000000
          -14 -23 -2 -20 -17 21 -5 18 hvcurveto
          15 48 3 29 hhcurveto
          13 13 5 22 hvcurveto
          454 vlineto
          94 0 191 158 43 18 -37 -32 vhcurveto
          endchar
        </CharString>
        <CharString name="grave">
          -440 524 -21 183 -20 hstem
          10 656 rmoveto
          -30 74 -106 34 -15 vhcurveto
          -1 3 4 -1 3 hhcurveto
          10 7 7 13 25 -51 128 -29 8 hvcurveto
          2 -7 -3 0 -5 hhcurveto
          -21 -19 -11 -19 hvcurveto
          endchar
        </CharString>
        <CharString name="greater">
          -309 273 -21 253 -20 hstem
          49 496 rmoveto
          -16 72 -49 33 -53 vhcurveto
          -33 -53 -72 -48 -16 vvcurveto
          -6 2 -3 9 29 158 100 26 29 -158 98 -29 -9 -2 -3 -6 vhcurveto
          endchar
        </CharString>
        <CharString name="guillemotleft">
          -188 132 callsubr
          hstemhm
          199 516 rmoveto
          -1 callgsubr
          hintmask 11000000
          143 hmoveto
          -1 callgsubr
          endchar
        </CharString>
        <CharString name="guillemotright">
          -188 132 callsubr
          hstem
          207 516 rmoveto
          -3 callsubr
          -143 hmoveto
          -3 callsubr
          endchar
        </CharString>
        <CharString name="guilsinglleft">
          -331 132 callsubr
          hstem
          199 516 rmoveto
          -1 callgsubr
          endchar
        </CharString>
        <CharString name="guilsinglright">
          -331 132 callsubr
          hstem
          64 516 rmoveto
          -3 callsubr
          endchar
        </CharString>
        <CharString name="h">
          126 callgsubr
          342 51 38 callgsubr
          hintmask 1011100010000000
          459 233 -21 callsubr
          hintmask 0111001100000000
          67 callsubr
          hintmask 1011010001000000
          -49 callsubr
          hintmask 1011100100000000
          -54 callgsubr
          hintmask 1011100001000000
          -8 callgsubr
          hintmask 1011100010000000
          -54 hlineto
          endchar
        </CharString>
        <CharString name="hbar">
          126 callgsubr
          103 61 -39 -21 62 -20 21 -20 195 51 38 callgsubr
          hintmask 0000101000000000
          266 595 65 callsubr
          12 callsubr
          hintmask 0000101000000000
          47 141 1 53 hhcurveto
          23 6 22 11 14 -11 16 -10 hvcurveto
          hintmask 1010000110001000
          193 -362 -21 callsubr
          hintmask 0110000100110000
          67 callsubr
          hintmask 1010000101000100
          -49 callsubr
          hintmask 1010000110010000
          -54 callgsubr
          hintmask 1010000110000100
          -8 callgsubr
          hintmask 1010000110001000
          -54 hlineto
          endchar
        </CharString>
        <CharString name="hcircumflex">
          126 callgsubr
          342 51 27 -21 145 -20 38 callgsubr
          hintmask 1011001000100000
          459 233 -21 callsubr
          hintmask 0111000011000000
          67 callsubr
          hintmask 1011000100010000
          -49 callsubr
          hintmask 1011001001000000
          -54 callgsubr
          hintmask 1011001000010000
          -8 callgsubr
          hintmask 1011001000100000
          -54 hlineto
          hintmask 0000110000000000
          -255 827 -97 callgsubr
        </CharString>
        <CharString name="hungarumlaut">
          -291 524 -21 183 -20 hstemhm
          146 656 rmoveto
          -7 callgsubr
          hintmask 11000000
          152 hmoveto
          -7 callgsubr
          endchar
        </CharString>
        <CharString name="hyphen">
          -8 callsubr
        </CharString>
</ttFont>
